<svg aria-hidden="true" style="width:0;height:0;position:absolute;overflow:hidden" xmlns="http://www.w3.org/2000/svg"><defs><symbol id="icon-logo" viewBox="0 0 31 32"><path fill="#fff" style="fill:var(--color1,#fff)" d="M.358 31.803h30.675v-6.771H.358v6.771zm26.149-2.558c0-.217.014-.383.043-.495a.484.484 0 0 1 .191-.278l.002-.001c.099-.075.26-.136.475-.185-.296-.022-.489-.095-.576-.218-.088-.122-.134-.342-.134-.659 0-.285.041-.509.123-.671a.744.744 0 0 1 .356-.347c.156-.07.335-.112.537-.128s.52-.022.952-.022h.917v4.279h-1.294v-1.926c-.163 0-.27.024-.317.07-.049.047-.072.151-.072.309v1.548h-1.201v-1.274h.001zm-3.394-3.004h1.08v1.931l.724-1.931h1.08v4.279h-1.081v-1.948l-.671 1.948h-1.133v-4.279zm-4.505.003h1.672c.05.257.1.561.154.91l.184 1.087.297-1.997h1.682v4.277h-1.131l-.002-2.888-.449 2.888h-.802L19.74 27.7l-.003 2.821h-1.128v-4.277zm-2.612 0h2.155v.856h-.862v.81h.807v.814h-.807v.94h.948v.856h-2.24v-4.277zm-4.271 3.384h.264c.141-.35.254-.811.343-1.383.09-.572.134-1.197.134-1.874v-.13h2.866v3.381h.264v1.636h-.893v-.737h-2.088v.737h-.889v-1.631h-.001zm-6.387-3.387h1.296l.006 1.807c.243-.005.37-.122.378-.349l.024-.834c.008-.309.077-.516.208-.624h1.195c-.117.103-.174.319-.173.644l.006.735c.004.444-.285.696-.872.757.587.063.877.318.872.769l-.006.683c-.001.299.048.518.148.658l.654-4.244h1.867l.739 4.277h-1.32l-.07-.769h-.462l-.077.769H8.444l-.024-.031-.001-.002-.005.033H7.251c-.14-.108-.209-.316-.209-.623v-.844a.327.327 0 0 0-.111-.246.442.442 0 0 0-.28-.099h-.012.001l-.006 1.813H5.338v-4.279zm-2.826.003h1.867l.74 4.277H3.798l-.069-.769h-.462l-.078.769H1.853l.659-4.277zm15.907-1.802v-2.246h.534V21.6h-2.002v.596h.537v2.246h.931zm2.839-1.371v-.377c0-.275-.035-.489-.102-.642a.783.783 0 0 0-.36-.365c-.17-.094-.387-.138-.648-.138h-.025c-.197 0-.384.042-.552.118l.009-.003a.746.746 0 0 0-.356.325l-.002.004c-.072.144-.108.341-.108.589v.828c0 .212.017.372.048.483.033.11.09.211.174.305.083.092.202.163.353.216s.325.078.523.078c.204 0 .373-.026.508-.079s.247-.133.333-.24a.819.819 0 0 0 .169-.303 1.78 1.78 0 0 0 .036-.405v-.209h-.887v.375a.804.804 0 0 1-.035.286c-.025.049-.072.073-.142.073-.058 0-.097-.019-.117-.056-.019-.035-.03-.119-.03-.247v-.615h1.211zm-1.211-.671c0-.16.009-.258.023-.295.016-.036.055-.055.121-.055.052 0 .086.022.104.064s.026.138.026.285v.208h-.273V22.4z"/><path fill="#fff" style="fill:var(--color1,#fff)" d="M14.033 27.087h-.384v.032c-.003.89-.114 1.753-.321 2.578l.016-.074h.69v-2.536zm16.993-2.646v-2.84h-.692c-.589 0-.969.061-1.147.185-.176.123-.265.326-.265.609 0 .255.033.433.099.532.067.1.212.158.436.176a1.52 1.52 0 0 0-.366.129.296.296 0 0 0-.138.174l-.001.002a1.548 1.548 0 0 0-.029.368v.666h.856v-.782c0-.13.022-.218.067-.265.046-.048.129-.07.248-.07v1.117h.932zm-1.18-1.674c-.045-.042-.067-.131-.067-.268v-.038c0-.134.019-.22.06-.256a.231.231 0 0 1 .15-.054h.014-.001.093v.678c-.12.002-.203-.02-.249-.062zM26.192 5.949h4.811l.024-2.853h-8.552v17.242h3.717V5.948zm-4.628 15.65v3.246h.935v-.652a.871.871 0 0 0 .27.223c.1.05.206.074.323.074a.702.702 0 0 0 .372-.096.462.462 0 0 0 .201-.258l.001-.003c.033-.11.05-.293.05-.552v-1.197c0-.226-.013-.386-.039-.479a.46.46 0 0 0-.198-.25.64.64 0 0 0-.358-.108h-.019.001c-.119 0-.228.026-.328.075s-.193.125-.275.226l.016-.251-.951.001zm.961.517c.018-.043.057-.064.119-.064.065 0 .103.018.117.056.013.037.02.143.02.318v1.219c0 .151-.006.245-.021.285s-.053.059-.113.059c-.063 0-.102-.022-.12-.065-.019-.042-.028-.149-.028-.321v-1.178c0-.163.009-.268.026-.31zm6.089 2.325v-1.426c0-.469-.017-.781-.05-.93-.031-.151-.127-.277-.29-.381-.159-.104-.397-.156-.713-.156-.265 0-.479.045-.644.137-.166.092-.275.196-.331.315-.054.12-.082.289-.082.509v.191h.878v-.297c0-.159.008-.257.024-.295.014-.038.054-.056.117-.056.055 0 .095.023.119.069.024.043.036.142.036.289 0 .117-.011.198-.033.236s-.186.113-.493.224c-.287.104-.466.193-.54.269-.072.077-.109.221-.109.435v.233c0 .286.068.473.205.557a.826.826 0 0 0 .452.127.647.647 0 0 0 .322-.075.58.58 0 0 0 .219-.226l.002-.003v.253h.91v.001zm-.936-.767c0 .143-.009.232-.026.264-.018.034-.055.05-.115.05-.061 0-.103-.021-.124-.064s-.031-.137-.031-.284c0-.129.013-.227.037-.296.023-.068.109-.152.259-.255v.585zm-1.464.768V21.6h-.931v1.022h-.336v-1.021h-.927v2.842h.927v-1.048h.336v1.048h.93zM15.84 20.339l.216-1.485h-.003l.303-2.081h1.717l.206 2.018h-.003l.157 1.549h3.139l-.216-1.777.004-.001-1.538-12.633h-4.337l-2.064 12.894h.004l-.242 1.514 2.659.001zM17.308 8.25l.095.058.441 6.287H16.7l.608-6.345zM8.104 24.442V21.6H6.93l-.272 1.572-.299-1.572H5.201v2.842h.801v-1.96l.402 1.96h.511l.388-1.96v1.96h.8zm-3.772-2.806a1.452 1.452 0 0 0-.504-.088h-.037.002c-.251 0-.456.045-.616.135a.727.727 0 0 0-.331.353l-.002.005c-.062.148-.094.355-.094.618v.728c0 .242.018.422.051.543a.75.75 0 0 0 .17.307.74.74 0 0 0 .334.193c.144.04.319.061.525.061a1.5 1.5 0 0 0 .491-.073.805.805 0 0 0 .528-.557l.001-.006a2.79 2.79 0 0 0 .041-.562v-.696c0-.201-.015-.35-.045-.449a.785.785 0 0 0-.169-.287v.001a.867.867 0 0 0-.342-.224l-.006-.002zm-.374 2.058a.687.687 0 0 1-.026.239c-.018.038-.055.056-.11.056-.053 0-.09-.021-.109-.06a.761.761 0 0 1-.028-.262v-1.282c0-.145.009-.238.028-.276s.055-.056.111-.056c.055 0 .092.019.109.056.017.038.025.131.025.276v1.309zm-2.274.746h.9c-.07-.093-.105-.231-.105-.413v-.498c0-.236-.159-.399-.478-.493a3.134 3.134 0 0 0-.279-.067l-.023-.004a.793.793 0 0 0 .312-.067c.143-.063.237-.112.282-.145a.417.417 0 0 0 .183-.345v-.395c0-.182.035-.32.104-.412h-.902c-.069.029-.104.141-.104.334v.482c0 .193-.098.289-.294.289v-1.104H.358v2.84h.922V23.22c.2 0 .299.096.299.289v.622c0 .117.039.226.106.312l-.001-.001zm8.373 2.758a28.119 28.119 0 0 0-.248 1.795h.445a31.518 31.518 0 0 1-.184-1.625l-.013-.17zm18.038.727v-.947h-.061c-.109 0-.19.022-.246.063s-.082.131-.082.265v.236c0 .159.021.262.068.309.046.05.154.074.321.074zm-15.816-9.157V8.478H9.338v9.557H7.774v-7.731l-2.923-.006v7.748H3.289v-.594h.001v-5.345H.347v8.23h11.93v-1.57zm-.39 3.779V21.6h-.929v2.842h1.081c.318 0 .547-.015.688-.043a.44.44 0 0 0 .307-.209l.001-.002c.066-.113.1-.3.1-.558v-.29c0-.24-.034-.417-.105-.528a.488.488 0 0 0-.32-.216h-.003a3.398 3.398 0 0 0-.667-.048h-.153zm.316.863v.114c0 .154-.021.247-.066.275-.043.03-.127.044-.251.044v-.754c.149.005.238.023.27.054.031.032.048.121.048.267zm-1.58 1.032V21.6H8.436v2.842h.927v-2.246h.331v2.246h.931zm4.049-.632a.78.78 0 0 0 .095.29.61.61 0 0 0 .207.216c.09.058.179.094.267.108.09.013.2.02.335.02.271 0 .477-.018.619-.053s.264-.1.363-.195.163-.203.192-.329a2.77 2.77 0 0 0 .043-.576V22.6c0-.179-.009-.318-.029-.417a.627.627 0 0 0-.167-.3.848.848 0 0 0-.361-.224l-.006-.002a1.689 1.689 0 0 0-.506-.076h-.03.002c-.194 0-.363.026-.506.075a.784.784 0 0 0-.343.232.691.691 0 0 0-.162.332l-.001.004a2.624 2.624 0 0 0-.031.437v.038h-.28v-1.101h-.937v2.84h.932v-1.145h.286v.092c0 .174.007.315.02.422zm.912-1.426c0-.129.006-.216.021-.262s.053-.071.117-.071c.063 0 .102.023.116.069.013.043.02.132.02.264v1.458a.153.153 0 0 1-.038.102.122.122 0 0 1-.094.044h-.004c-.094 0-.139-.082-.139-.245v-1.359zM3.499 27.198a28.119 28.119 0 0 0-.248 1.795h.444a31.598 31.598 0 0 1-.183-1.626l-.012-.169z"/><path fill="#fff" style="fill:var(--color1,#fff)" d="m.988 11.942.482.013.055-.111c.422.077.901.206 1.272-.078-.041-.237-.38-.139-.543-.255-.078-.047-.177-.095-.228-.174l-.078-.009c.128-.499.395-.933.632-1.375.663-.784.66-1.869.806-2.886.024-.041.065-.05.107-.045.03-.003.066-.002.105-.001.128.003.28.006.249-.134.611.063 1.106.393 1.71.493-.014.064-.055.114-.074.176-.015.16-.025.314-.038.467l-.006.117c-.044.784-.055 1.236.075 1.992h.429l.048-.109c.407-.018.882.046 1.267-.207-.065-.229-.395-.094-.572-.197-.098-.053-.24-.107-.277-.226a10.709 10.709 0 0 1 .246-2.491l-.013.07c-.581-.831-1.431-1.03-2.181-1.454.032-.09.004-.068.056-.148-.203-.006-.32-.173-.496-.122a1.74 1.74 0 0 1 .006-.647c.055.047.119.069.158.134.389.155.823.208 1.198.407l.147-.092c.064.02.157.075.119.148.011-.016.028-.014.044-.011.013.001.026.003.037-.003.024-.027.056-.047.047-.09.098-.105.172-.285.12-.446-.031-.075-.101-.07-.169-.067-.05.003-.098.006-.132-.02v-.046l-1.23-.536c-.05-.268-.171-.499-.275-.738-.018-.544-.476-.921-.452-1.456.072-.1.151-.084.232-.068.045.008.091.018.136.004.061-.045.096-.08.072-.172.027-.018.034-.071.078-.075.013-.124-.008-.263.144-.292-.046-.102-.121-.19-.131-.315.098-.181-.021-.424-.005-.615-.186-.077-.389-.23-.6-.23a.421.421 0 0 0-.278.107c-.171.179-.281.376-.281.573-.011.381.047.395.073.654-.058.051-.062.193-.169.135-.148.177-.318.376-.48.56-.498.427-1.192.821-1.296 1.544.026.55.021 1.082-.014 1.636.019.003.04.001.062.001.038-.002.077-.005.102.019l-.018.026h-.003c0 .03 0 .058-.005.088h.041c.074.174-.004.417.038.602.043.063.023.194.117.202 0-.024-.004-.053.018-.07l.079.157c.051.028.058-.041.083-.065.038.021.011.076.018.112.019.025.04.058.082.046l.038-.471c.052.14.044.312.062.471h.042c.073-.064.036-.18.048-.272-.019-.278.025-.514-.087-.756.038-.03.053-.065.047-.118.027-.006.034-.048.065-.04.094-.492.078-1.058.108-1.545l.171-.132c.134.705-.013 1.429-.157 2.123.04.126.078.281.024.427l-.014.267h.021l.009-.12c0 .264-.1.587.088.723-.025.681-.05 1.358-.165 1.99-.436.971-1.091 1.939-1.044 3.049z"/></symbol><symbol id="icon-chevron-down" viewBox="0 0 34 32"><path fill="none" stroke="#fff" style="stroke:var(--color1,#fff)" stroke-linejoin="round" stroke-linecap="round" stroke-width="2" d="m9 12 8 8 8-8"/></symbol><symbol id="icon-mob-menu" viewBox="0 0 32 32"><path fill="none" stroke="#fff" style="stroke:var(--color1,#fff)" stroke-linejoin="round" stroke-linecap="round" stroke-width="2.286" d="M22.667 13.333H4M28 8H4M28 18.667H4M22.667 24H4"/></symbol><symbol id="icon-study-1" viewBox="0 0 37 32"><path fill="#4744c9" style="fill:var(--color1,#4744c9)" d="M36.195 14.497C35.095 5.899 25.839-1.017 17.307.123c-.204.027-.406.06-.607.096a.255.255 0 0 0-.269-.109c-1.254.252-2.5.536-3.706.901-5.09.976-9.723 3.814-11.766 8.854-3.268 8.062 2.252 17.725 9.927 20.798.179.072.36.139.541.204a13.136 13.136 0 0 0 7.426.967 20.763 20.763 0 0 0 11.312-4.35A13.748 13.748 0 0 0 33 24.437c2.35-2.63 3.698-6.001 3.195-9.94zm-.43.795a11.115 11.115 0 0 1-1.274 6.125c.21-.63.365-1.277.463-1.934.369-2.502-.109-5.04-1.096-7.368a12.62 12.62 0 0 0-2.18-4.967c-2.423-3.329-6.266-5.227-10.216-6.058a22.332 22.332 0 0 0-4.164-.465C25.87-.536 35.024 6.624 35.765 15.292zm-5.683 11.153a18.315 18.315 0 0 1-3.655 2.061c3.774-2.834 6.612-7.071 7.456-11.568.155-.827.229-1.668.219-2.51.562 2.186.62 4.482-.034 6.674a10.851 10.851 0 0 1-1.55 3.145 15.83 15.83 0 0 1-2.436 2.198zm-12.624 4.918a16.187 16.187 0 0 1-6.116-1.096 12.618 12.618 0 0 1-3.732-2.83c.077.06.152.123.23.182 3.716 2.771 8.512 3.479 13.029 2.901.475-.061.95-.139 1.427-.235-1.046.451-2.14.784-3.26.993-.526.047-1.052.077-1.577.086zm-1.012-1.222c-3.83-.262-7.445-1.748-10.095-4.559a11.693 11.693 0 0 1-.422-.473 13.253 13.253 0 0 1-.211-.39C2.027 17.606 4.488 8.084 10.78 3.353c2.774-1.304 5.708-2.119 8.916-1.803 4.869.478 9.173 3.623 11.923 7.548.71 1.013 1.308 2.1 1.783 3.242.977 5.57-2.261 11.521-6.611 15.164a18.795 18.795 0 0 1-2.516 1.779 22.292 22.292 0 0 1-7.828.86zM14.807 1.212c.331-.029.662-.05.994-.063a16.8 16.8 0 0 0-2.121.502c.297-.131.6-.253.909-.365.072-.026.145-.049.218-.074zM10.58 2.867a43.154 43.154 0 0 0-4.287 2.389l.099-.115c1.726-1.893 4.024-2.945 6.438-3.652a14.89 14.89 0 0 0-2.251 1.378zM5.399 6.376a.242.242 0 0 0 .15-.041A61.868 61.868 0 0 1 8.875 4.33c-3.67 3.628-5.662 9.04-5.327 14.288.092 1.436.372 2.854.831 4.217A15.584 15.584 0 0 1 2.6 15.784c-.068-3.322.864-6.703 2.798-9.408zm20.552-3.238A14.572 14.572 0 0 1 31.372 7.6c.451.618.841 1.279 1.163 1.973a19.98 19.98 0 0 0-.94-1.383 18.739 18.739 0 0 0-5.644-5.051zM.582 14.777C.534 9.954 3.248 5.797 7.368 3.443c.324-.185.654-.358.989-.518a12.124 12.124 0 0 0-3.192 2.878c-2.594 3.363-3.46 7.923-2.923 12.074a14.795 14.795 0 0 0 3.264 7.512 13.292 13.292 0 0 0 2.19 2.91 17.208 17.208 0 0 1-1.493-1.185 17.03 17.03 0 0 1-5.62-12.337zm22.473 15.756a17.998 17.998 0 0 0 1.681-.892 20.843 20.843 0 0 0 4.343-1.988c-.504.363-1.027.7-1.566 1.009a19.923 19.923 0 0 1-4.459 1.87z"/><path fill="#4744c9" style="fill:var(--color1,#4744c9)" d="M28.098 8.573a.36.36 0 0 0-.076-.126.27.27 0 0 0-.321-.237c-2.923.361-5.923.152-8.866.166a14.303 14.303 0 0 1-.075-1.732c.01-.423-.634-.389-.651.026a12.08 12.08 0 0 0 .041 1.712c-1.445.016-2.89.044-4.335.084-.751.021-1.501.046-2.25.075-.709-.033-1.419 0-2.122.099-.745.178-.731 1.295-.281 1.786.309.339.697.27 1.105.209.004 1.189.012 2.378.024 3.567l-.026.036c-.014.017-.024.037-.029.058s-.008.043-.005.065c.003.022.009.043.02.061s.025.036.042.049c.014 1.447.03 2.894.048 4.341.007.643-.004 1.29.019 1.934-.03.4.089.796.335 1.112.248.214.568.324.895.309.746.053 1.501.054 2.249.072 1.055.024 2.111.04 3.168.047-.948 1.03-1.914 2.049-2.818 3.115a.323.323 0 0 0 .253.535.327.327 0 0 0 .223-.096c1.086-1.138 2.106-2.349 3.152-3.525l.015-.022c.135 0 .27.003.404.003a79.18 79.18 0 0 0 .146 3.514c.028.424.688.398.658-.026a81.333 81.333 0 0 1-.172-3.488l.633-.001c.009.019.02.037.034.053a28.735 28.735 0 0 0 3.585 3.739.313.313 0 0 0 .44-.025.317.317 0 0 0-.011-.441c-1.122-1.096-2.252-2.163-3.302-3.327.674-.002 1.35-.008 2.025-.016 1.241-.017 2.556.067 3.776-.196.39-.04.755-.207 1.041-.475.304-.38.209-.948.199-1.394l-.218-9.438c1.286-.074 1.397-1.197 1.026-2.204zM13.784 20.082c-.462.453-.923.907-1.378 1.367l-.426-.01c-.358-.008-.737-.036-.875-.401l-.015-.046c.647-.559 1.248-1.178 1.852-1.787a.297.297 0 0 0 .44.002c1.001-1.039 2-2.081 2.998-3.125l.747-.783.375-.391c.105-.218.214-.207.326.035.278.222.526.477.739.762l.739.762c.219.224.479.623.85.533.456-.112.918-.822 1.233-1.138 1.035-1.039 2.119-2.048 3.101-3.136a.337.337 0 0 0-.494-.457c-1.083.989-2.086 2.078-3.12 3.118a4.39 4.39 0 0 1-.777.782c.094.238.047.23-.14-.022l-.373-.378a17.403 17.403 0 0 0-1.489-1.511c-.29-.228-.526-.296-.837-.056-.491.442-.948.921-1.366 1.433-.864.914-1.726 1.83-2.586 2.747a.234.234 0 0 0-.274.047c-.652.644-1.339 1.27-1.968 1.943a.817.817 0 0 0 0-.07c-.01-.57-.016-1.14-.023-1.709a17.15 17.15 0 0 0 2.744-3.058c.173-.238-.165-.553-.339-.313a29.375 29.375 0 0 1-2.412 2.825l-.021-1.643c.938-1.015 1.76-2.15 2.62-3.229.175-.22-.146-.519-.323-.297-.768.962-1.582 1.904-2.305 2.904l-.025-1.813c.756-.776 1.444-1.621 2.156-2.435.193-.221-.141-.53-.335-.309-.609.695-1.242 1.376-1.83 2.091a506.61 506.61 0 0 0-.049-2.756 18.335 18.335 0 0 1 1.739-.032c3.087.047 6.175.101 9.264.162 1.446.025 2.926.138 4.38.112a16608.998 16608.998 0 0 0 .202 8.74c.014.634.22 1.468-.457 1.759a4.689 4.689 0 0 1-1.598.175c-.598.019-1.195.026-1.792.035-2.39.037-4.78.037-7.17 0-.83-.013-1.66-.029-2.489-.048.375-.354.746-.712 1.117-1.071.212-.205-.126-.518-.338-.311zm12.892-10.036c-.609-.006-1.216-.02-1.824-.031a4714.39 4714.39 0 0 1-3.792-.065l-7.442-.125c-.6-.01-1.201-.027-1.802-.022-.576.006-1.207.183-1.77.151-.221-.012-.26.172-.434-.175a.717.717 0 0 1-.034-.315c.078-.208.224-.146.465-.156a253.198 253.198 0 0 1 9.43-.243c2.649-.018 5.342.149 7.979-.162.074.173.121.356.138.543.014.521-.488.605-.914.6z"/></symbol><symbol id="icon-study-2" viewBox="0 0 37 32"><path fill="#4744c9" style="fill:var(--color1,#4744c9)" d="M36.195 14.497C35.095 5.899 25.839-1.017 17.307.123c-.204.027-.406.06-.607.096a.255.255 0 0 0-.269-.109c-1.254.252-2.5.536-3.706.901-5.09.976-9.723 3.814-11.766 8.854-3.268 8.062 2.252 17.725 9.927 20.798.179.072.36.139.541.204a13.136 13.136 0 0 0 7.426.967 20.763 20.763 0 0 0 11.312-4.35A13.748 13.748 0 0 0 33 24.437c2.35-2.63 3.698-6.001 3.195-9.94zm-.43.795a11.115 11.115 0 0 1-1.274 6.125c.21-.63.365-1.277.463-1.934.369-2.502-.109-5.04-1.096-7.368a12.62 12.62 0 0 0-2.18-4.967c-2.423-3.329-6.266-5.227-10.216-6.058a22.332 22.332 0 0 0-4.164-.465C25.87-.536 35.024 6.624 35.765 15.292zm-5.683 11.153a18.315 18.315 0 0 1-3.655 2.061c3.774-2.834 6.612-7.071 7.456-11.568.155-.827.229-1.668.219-2.51.562 2.186.62 4.482-.034 6.674a10.851 10.851 0 0 1-1.55 3.145 15.83 15.83 0 0 1-2.436 2.198zm-12.624 4.918a16.187 16.187 0 0 1-6.116-1.096 12.618 12.618 0 0 1-3.732-2.83c.077.06.152.123.23.182 3.716 2.771 8.512 3.479 13.029 2.901.475-.061.95-.139 1.427-.235-1.046.451-2.14.784-3.26.993-.526.047-1.052.077-1.577.086zm-1.012-1.222c-3.83-.262-7.445-1.748-10.095-4.559a11.693 11.693 0 0 1-.422-.473 13.253 13.253 0 0 1-.211-.39C2.027 17.606 4.488 8.084 10.78 3.353c2.774-1.304 5.708-2.119 8.916-1.803 4.869.478 9.173 3.623 11.923 7.548.71 1.013 1.308 2.1 1.783 3.242.977 5.57-2.261 11.521-6.611 15.164a18.795 18.795 0 0 1-2.516 1.779 22.292 22.292 0 0 1-7.828.86zM14.807 1.212c.331-.029.662-.05.994-.063a16.8 16.8 0 0 0-2.121.502c.297-.131.6-.253.909-.365.072-.026.145-.049.218-.074zM10.58 2.867a43.154 43.154 0 0 0-4.287 2.389l.099-.115c1.726-1.893 4.024-2.945 6.438-3.652a14.89 14.89 0 0 0-2.251 1.378zM5.399 6.376a.242.242 0 0 0 .15-.041A61.868 61.868 0 0 1 8.875 4.33c-3.67 3.628-5.662 9.04-5.327 14.288.092 1.436.372 2.854.831 4.217A15.584 15.584 0 0 1 2.6 15.784c-.068-3.322.864-6.703 2.798-9.408zm20.552-3.238A14.572 14.572 0 0 1 31.372 7.6c.451.618.841 1.279 1.163 1.973a19.98 19.98 0 0 0-.94-1.383 18.739 18.739 0 0 0-5.644-5.051zM.582 14.777C.534 9.954 3.248 5.797 7.368 3.443c.324-.185.654-.358.989-.518a12.124 12.124 0 0 0-3.192 2.878c-2.594 3.363-3.46 7.923-2.923 12.074a14.795 14.795 0 0 0 3.264 7.512 13.292 13.292 0 0 0 2.19 2.91 17.208 17.208 0 0 1-1.493-1.185 17.03 17.03 0 0 1-5.62-12.337zm22.473 15.756a17.998 17.998 0 0 0 1.681-.892 20.843 20.843 0 0 0 4.343-1.988c-.504.363-1.027.7-1.566 1.009a19.923 19.923 0 0 1-4.459 1.87z"/><path fill="#4744c9" style="fill:var(--color1,#4744c9)" d="M28.556 20.28c-.071-.446-.182-.889-.273-1.331-.009-.065-.044-.125-.097-.166s-.12-.06-.188-.054c-.641.074-1.281.147-1.921.218a.265.265 0 0 0 .022-.166 52.204 52.204 0 0 1-.722-8.52c-.001-.359.068-.774-.212-1.057a1.056 1.056 0 0 0-.781-.243c-.526-.008-1.061.058-1.586.089-4.7.289-9.455.595-14.112 1.286a.273.273 0 0 0-.237.293c.323 3.281.619 6.564.944 9.845a.208.208 0 0 0 .033.096l-1.359.113a.24.24 0 0 0-.352.058.23.23 0 0 0-.035.125l.076 1.974c.008.059.039.113.087.15s.109.054.17.048c4.048-.458 8.103-.861 12.163-1.207 2.011-.169 4.023-.323 6.038-.46.485-.032.97-.06 1.455-.095.293-.021.617-.019.802-.279a.951.951 0 0 0 .083-.718zm-15.025-8.854c-.511.052-1.022.102-1.533.151a.211.211 0 0 1-.04.053 8.043 8.043 0 0 0-.915 1.03c-.257.345-.438.742-.701 1.08l-.001.001.122 1.258c.446-.6.992-1.161 1.469-1.72.53-.62 1.063-1.238 1.599-1.852zm-3.005 4.221.164 1.676c.325-.451.674-.885 1.046-1.301.468-.59.942-1.176 1.423-1.756a107.837 107.837 0 0 1 2.66-3.074l-1.782.182-.004.005c-.593.714-1.183 1.432-1.769 2.153a24.36 24.36 0 0 1-1.737 2.115zm13.348 1.485-.001-.007-.093-1.222-1.153 1.502c-.151.196-.299.395-.45.591.291-.022.582-.037.874-.041.131-.108.279-.196.404-.312.162-.151.303-.323.419-.51zm-.137.829a.225.225 0 0 0 .185-.194 2.862 2.862 0 0 1-.119.128l-.066.066zm-.084-2.604a.214.214 0 0 1 .081-.065l-.123-1.617c-.541.746-1.088 1.487-1.642 2.223l-1.04 1.381c-.224.297-.437.621-.674.918l.443-.052c.277-.032.555-.064.833-.092.162-.178.305-.41.432-.57l.525-.66 1.166-1.466zm-2.327 3.244a.217.217 0 0 0 .131.034.495.495 0 0 0 .237-.073 13.79 13.79 0 0 1 1.917-.079c.242.009.588.096.774-.116.208-.24.07-.701.048-.982l-.536-7.049c-.01-.069-.047-.131-.102-.174s-.127-.063-.197-.057c-2.314.033-4.625.19-6.922.472-2.239.223-4.483.424-6.717.689a.292.292 0 0 0-.278.029c-.04.028-.072.065-.092.109s-.029.091-.026.139c.209 2.064.417 4.129.623 6.195.053.536-.107 1.747.644 1.86.471.025.943.001 1.409-.071.554-.038 1.109-.081 1.663-.128 2.144-.183 4.28-.432 6.417-.68.335-.039.67-.08 1.007-.117zm2.236-5.571c-.671.889-1.352 1.77-2.03 2.654l-.994 1.295c-.351.412-.675.846-.969 1.299l-1.156.134a11.1 11.1 0 0 0 1.276-1.696c.448-.623.896-1.246 1.342-1.87.809-1.128 1.61-2.262 2.412-3.394l.12 1.58zm-.176-2.178c-.911 1.234-1.826 2.466-2.731 3.705l-1.357 1.859c-.473.55-.887 1.145-1.235 1.777a.214.214 0 0 0 .078.25c-.559.063-1.119.125-1.679.184.472-.57.875-1.211 1.31-1.806.505-.691 1.012-1.379 1.522-2.066a564.035 564.035 0 0 1 3.022-4.031.207.207 0 0 0 .038-.079c.342-.011.684-.017 1.026-.018l.016.213-.009.012zm-1.548-.187a292.9 292.9 0 0 0-4.44 5.869 24.223 24.223 0 0 0-1.472 2.053.192.192 0 0 0-.028.098c-.28.029-.559.056-.839.083l-.884.082c.072-.08.148-.155.193-.211l.361-.45.843-1.049 1.747-2.174a716.067 716.067 0 0 0 3.359-4.232c.386-.028.773-.05 1.16-.069zm-1.695.109a629.674 629.674 0 0 0-3.446 4.199l-1.819 2.241-.909 1.12a2.262 2.262 0 0 0-.427.57c-.414.034-.829.065-1.243.094a25.364 25.364 0 0 0 1.568-2.016c.499-.651 1.002-1.3 1.507-1.947a284.847 284.847 0 0 1 3.177-4.008.182.182 0 0 0 .043-.113 89.83 89.83 0 0 1 1.548-.139zm-2.037.187a223.488 223.488 0 0 0-3.154 3.868c-.53.668-1.056 1.338-1.579 2.012a18.587 18.587 0 0 0-1.493 2.022.159.159 0 0 0 .007.186c-.372.052-.841.104-.985-.031-.158-.148-.164-.658-.168-1.029a.207.207 0 0 0 .045-.027 9.091 9.091 0 0 0 1.334-1.649c.463-.594.932-1.183 1.407-1.768a138.558 138.558 0 0 1 2.858-3.41l.358-.036 1.369-.138zm-6.707.671a8.33 8.33 0 0 0-.658.71c-.156.191-.328.398-.476.616l-.119-1.217c.418-.035.835-.071 1.253-.109zm14.58 8.242a37.411 37.411 0 0 0-7.18.634c-.29.048-.24.488.054.444 2.371-.354 4.73-.458 7.117-.623.261-.017.278-.447.009-.455zm-16.127.547c-.27-3.196-.568-6.389-.843-9.584 4.176-.365 8.335-.85 12.521-1.128.556-.037 1.113-.072 1.67-.106.36-.021 1.418-.269 1.587.161.026.187.026.377 0 .565.001.285.003.57.008.855a52.135 52.135 0 0 0 .712 7.666.286.286 0 0 0 .077.154 580.723 580.723 0 0 1-15.752 1.534.218.218 0 0 0 .02-.115zm17.982.345a2.575 2.575 0 0 1-.783.05 403.4 403.4 0 0 0-2.685.186c-1.828.132-3.654.278-5.477.439-3.568.313-7.129.687-10.682 1.12l-.066-1.377a579.51 579.51 0 0 0 19.682-1.93c.062.298.124.596.183.894.045.232.095.473-.172.618z"/></symbol><symbol id="icon-study-3" viewBox="0 0 37 32"><path fill="#4744c9" style="fill:var(--color1,#4744c9)" d="M36.195 14.497C35.095 5.899 25.839-1.017 17.307.123c-.204.027-.406.06-.607.096a.255.255 0 0 0-.269-.109c-1.254.252-2.5.536-3.706.901-5.09.976-9.723 3.814-11.766 8.854-3.268 8.062 2.252 17.725 9.927 20.798.179.072.36.139.541.204a13.136 13.136 0 0 0 7.426.967 20.763 20.763 0 0 0 11.312-4.35A13.748 13.748 0 0 0 33 24.437c2.35-2.63 3.698-6.001 3.195-9.94zm-.43.795a11.115 11.115 0 0 1-1.274 6.125c.21-.63.365-1.277.463-1.934.369-2.502-.109-5.04-1.096-7.368a12.62 12.62 0 0 0-2.18-4.967c-2.423-3.329-6.266-5.227-10.216-6.058a22.332 22.332 0 0 0-4.164-.465C25.87-.536 35.024 6.624 35.765 15.292zm-5.683 11.153a18.315 18.315 0 0 1-3.655 2.061c3.774-2.834 6.612-7.071 7.456-11.568.155-.827.229-1.668.219-2.51.562 2.186.62 4.482-.034 6.674a10.851 10.851 0 0 1-1.55 3.145 15.83 15.83 0 0 1-2.436 2.198zm-12.624 4.918a16.187 16.187 0 0 1-6.116-1.096 12.618 12.618 0 0 1-3.732-2.83c.077.06.152.123.23.182 3.716 2.771 8.512 3.479 13.029 2.901.475-.061.95-.139 1.427-.235-1.046.451-2.14.784-3.26.993-.526.047-1.052.077-1.577.086zm-1.012-1.222c-3.83-.262-7.445-1.748-10.095-4.559a11.693 11.693 0 0 1-.422-.473 13.253 13.253 0 0 1-.211-.39C2.027 17.606 4.488 8.084 10.78 3.353c2.774-1.304 5.708-2.119 8.916-1.803 4.869.478 9.173 3.623 11.923 7.548.71 1.013 1.308 2.1 1.783 3.242.977 5.57-2.261 11.521-6.611 15.164a18.795 18.795 0 0 1-2.516 1.779 22.292 22.292 0 0 1-7.828.86zM14.807 1.212c.331-.029.662-.05.994-.063a16.8 16.8 0 0 0-2.121.502c.297-.131.6-.253.909-.365.072-.026.145-.049.218-.074zM10.58 2.867a43.154 43.154 0 0 0-4.287 2.389l.099-.115c1.726-1.893 4.024-2.945 6.438-3.652a14.89 14.89 0 0 0-2.251 1.378zM5.399 6.376a.242.242 0 0 0 .15-.041A61.868 61.868 0 0 1 8.875 4.33c-3.67 3.628-5.662 9.04-5.327 14.288.092 1.436.372 2.854.831 4.217A15.584 15.584 0 0 1 2.6 15.784c-.068-3.322.864-6.703 2.798-9.408zm20.552-3.238A14.572 14.572 0 0 1 31.372 7.6c.451.618.841 1.279 1.163 1.973a19.98 19.98 0 0 0-.94-1.383 18.739 18.739 0 0 0-5.644-5.051zM.582 14.777C.534 9.954 3.248 5.797 7.368 3.443c.324-.185.654-.358.989-.518a12.124 12.124 0 0 0-3.192 2.878c-2.594 3.363-3.46 7.923-2.923 12.074a14.795 14.795 0 0 0 3.264 7.512 13.292 13.292 0 0 0 2.19 2.91 17.208 17.208 0 0 1-1.493-1.185 17.03 17.03 0 0 1-5.62-12.337zm22.473 15.756a17.998 17.998 0 0 0 1.681-.892 20.843 20.843 0 0 0 4.343-1.988c-.504.363-1.027.7-1.566 1.009a19.923 19.923 0 0 1-4.459 1.87z"/><path fill="#4744c9" style="fill:var(--color1,#4744c9)" d="M25.864 22.516c-.021-1.027-.276-2.099-1.08-2.8-.825-.719-1.934-.887-2.981-1.04a.262.262 0 0 0-.185-.014c-.016.002-.032.004-.048.008-.8-.138-1.226-.807-1.307-1.623a.254.254 0 0 0-.044-.118c1.266-.862 2.026-2.593 2.169-4.06a.253.253 0 0 0 .041-.086c.467-1.815.504-4.658-1.299-5.791h-.001c-.908-.571-2.041-.641-3.083-.569-.994.069-2.048.31-2.742 1.08-.679.754-.738 1.864-.77 2.831-.04 1.16.105 2.318.43 3.432.314 1.059.9 2.298 1.797 3.042a1.925 1.925 0 0 1-1.659 1.77.232.232 0 0 0-.173.103c-1.728.598-3.459 1.46-3.771 3.457a6.403 6.403 0 0 0-.031 1.528c.034.423.031.978.285 1.343.529.762 1.945.528 2.718.542a183.1 183.1 0 0 0 2.226.025c.02.01.042.016.064.016s.044-.005.064-.015c.656.003 1.311.003 1.967 0a.297.297 0 0 0 .103-.001h.004c1.14-.007 2.28-.025 3.421-.052a.176.176 0 0 0 .212.064.172.172 0 0 0 .064-.046l.017-.023h.011l.668-.018a.166.166 0 0 0 .193.076.167.167 0 0 0 .065-.036l.046-.05c.313-.009.626-.02.939-.033.457-.018.943-.019 1.26-.397.509-.608.432-1.804.415-2.543zm-5.379-3.804c.265.209.572.357.901.432l.015.021a4.934 4.934 0 0 1-.518 1.33 2.204 2.204 0 0 0-.253-.284 5.107 5.107 0 0 0-.669-.55c.207-.297.383-.615.524-.949zm-.866 1.666c.046-.078.087-.159.123-.241.112.085.22.173.324.268.158.142.292.325.45.465a.244.244 0 0 0 .135.103c-.216.443-.44.883-.671 1.317-.177.332-.364.658-.553.982-.043-.248-.095-.494-.126-.742a14.66 14.66 0 0 1-.098-1.373l-.003-.033c.14-.248.282-.495.419-.745zm-.111-.906a1.722 1.722 0 0 0-.749-.033c-.274 0-.548.024-.817.073a13.595 13.595 0 0 1-1.076-1.472.199.199 0 0 0-.022-.027c.188-.266.312-.571.362-.892a2.6 2.6 0 0 0 1.655.331c.301-.037.595-.12.871-.248-.001.41.135.809.387 1.133-.208.369-.375.756-.581 1.125l-.03.01zm2.626-7.793a7.474 7.474 0 0 1-.135-.894c.07-.106.132-.216.187-.33.014.409-.003.818-.052 1.224zm.01-1.786a.15.15 0 0 0-.062.065c-.054.106-.114.212-.172.321a1.784 1.784 0 0 0-.224-.539c.139-.142.255-.305.345-.482.049.21.087.421.113.635zm-.231-1.067.007.022c-.023.005-.044.015-.061.03s-.031.034-.04.056a2.09 2.09 0 0 1-.232.402 1.744 1.744 0 0 1-.12.138 1.084 1.084 0 0 0-.642-.322c.252-.346.483-.713.724-1.063.158.226.281.474.364.737zm-.581-1.006c-.01.009-.018.019-.026.029-.323.449-.688.891-.981 1.364-.369.151-.729.323-1.078.517.209-.273.405-.557.586-.85.327-.495.627-1.006.908-1.529.218.127.417.285.591.469zm-2.616-.96c.173.006.344.016.508.031.067.006.132.016.197.025a79.713 79.713 0 0 0-1.602 2.501c-.132.213.214.406.341.189a59.955 59.955 0 0 1 1.625-2.625c.229.05.452.123.666.218-.256.461-.526.912-.819 1.35-.342.424-.652.873-.928 1.342l-.003.012-.056.008c-.533.047-.949-.254-1.361-.549.196-.272.361-.573.546-.847.308-.456.628-.905.958-1.345a.215.215 0 0 0 .035-.172.204.204 0 0 0-.107-.139zm-1.054.038c.301-.035.605-.049.908-.043a.189.189 0 0 0-.058.051c-.297.389-.586.783-.868 1.183-.254.332-.49.678-.708 1.034l-.009-.005a1.186 1.186 0 0 0-.419-.173c.381-.655.747-1.32 1.131-1.959a.144.144 0 0 0 .023-.088zm-1.721.615c.051-.038.104-.073.157-.107a9.1 9.1 0 0 0-1.002 1.503 2.36 2.36 0 0 1 .845-1.396zm-.981 3.495a9.874 9.874 0 0 1 .063-1.719.128.128 0 0 0 .105.07.13.13 0 0 0 .114-.056c.418-.569.753-1.194 1.181-1.758a.187.187 0 0 0 .031-.157.19.19 0 0 0-.1-.126c.295-.143.608-.246.93-.306-.465.75-.969 1.497-1.433 2.26a1.04 1.04 0 0 0-.12.2c-.217.364-.424.732-.61 1.106a.16.16 0 0 0 .278.154l.062-.089a3.664 3.664 0 0 1-.446 1.297 12.467 12.467 0 0 1-.057-.878zm.156 1.625a.302.302 0 0 0 .088-.067c.633-.689.752-1.55.916-2.438.051-.281.044-.621.543-.531.191.035.475.344.647.45.301.209.644.348 1.005.409.375.038.752-.041 1.08-.226.532-.269 1.301-.933 1.819-.234.542.729.188 1.791.749 2.551a.17.17 0 0 0 .021.026 2.596 2.596 0 0 0-.02.094.231.231 0 0 0 .035.188c-.226 1.972-1.786 4.816-4.09 4.099-1.711-.532-2.492-2.51-2.793-4.32zm1.379 5.777c.263.492.602.94 1.003 1.328-.499.29-.964.636-1.386 1.03a26.769 26.769 0 0 1-.47-1.844c.315-.113.605-.288.853-.514zm-3.901 2.124a4.447 4.447 0 0 1 1.083-.751c-.743.996-1.4 2.053-1.965 3.16.007-.888.207-1.754.882-2.409zm-.853 3.117-.001-.016a.19.19 0 0 0 .064-.062c.406-.617.714-1.308 1.09-1.945.377-.641.776-1.268 1.19-1.884.017-.022.026-.048.027-.076s-.008-.054-.024-.077c.383-.167.78-.307 1.167-.441l.053.228a.158.158 0 0 0-.182.071c-1.063 1.71-2.228 3.395-3.209 5.156a2.555 2.555 0 0 1-.176-.955zm1.269 1.25-.044-.001c-.251.016-.504 0-.751-.049 1.134-1.667 2.113-3.467 3.16-5.189.087.351.182.699.286 1.043-.031-.003-.063.003-.091.017s-.051.037-.066.064a4209.8 4209.8 0 0 0-1.326 2.188c-.386.637-.819 1.266-1.169 1.927zm1.74.036-.325-.006c.608-.823 1.09-1.78 1.62-2.649.115-.189-.183-.352-.3-.166-.572.913-1.271 1.832-1.731 2.807l-.55-.011c.367-.571.689-1.182 1.033-1.761l1.264-2.13c.212.661.474 1.305.786 1.926a.167.167 0 0 0-.143.075 14.424 14.424 0 0 0-1.25 1.92l-.404-.004zm.83.009c.118-.197.228-.4.348-.593.242-.39.494-.772.753-1.151.157.29.328.574.513.85-.017-.01-.036-.016-.056-.018s-.04 0-.058.005a.146.146 0 0 0-.089.072c-.157.28-.319.558-.473.841l-.939-.007zm1.299.009c.131-.23.258-.461.387-.691a.146.146 0 0 0 .02-.079c.186.268.386.526.6.772l-1.007-.002zm.794-1.199a8.802 8.802 0 0 1-.949-1.422 9.184 9.184 0 0 1-.447-1.058.287.287 0 0 0 .069-.046c.401-.351.82-.669 1.247-.982.028.067.059.133.086.197.107.256.214.514.328.768-.114.837-.275 1.696-.335 2.543zm.821 1.08a14.28 14.28 0 0 0-.397-.536c.188-.983.319-1.977.392-2.975a.255.255 0 0 0 .078-.292c-.109-.275-.23-.545-.347-.816a10.094 10.094 0 0 0-.063-.143.397.397 0 0 0 .058-.02c.146.004.291-.011.433-.044.142-.016.288-.037.433-.045.172-.01.129-.036.098.092a2.159 2.159 0 0 1-.221.42c-.086.159-.17.321-.253.481a.242.242 0 0 0-.011.219c.019.861.02 1.928.35 2.738-.184.307-.369.613-.551.921zm.566.117a32.096 32.096 0 0 0 1.592-2.825c.436-.848 1.065-1.836 1.233-2.817.187.02.379.044.571.074l-1.482 2.558c-.514.887-1.171 1.794-1.554 2.744-.06.149.132.342.253.186.615-.798 1.053-1.791 1.549-2.669l1.56-2.761c.272.054.539.133.798.235a.17.17 0 0 0-.029.031 61.241 61.241 0 0 0-1.796 2.715c-.278.446-.549.895-.814 1.348a7.365 7.365 0 0 0-.64 1.165c-.413.005-.827.011-1.24.014zm3.161-.048-.512.01a46.135 46.135 0 0 1 2.463-3.952c.135-.194-.186-.368-.32-.177a43.522 43.522 0 0 0-2.608 4.138c-.177.003-.354.008-.531.01.205-.312.36-.668.541-.987a54.124 54.124 0 0 1 2.566-4.088.162.162 0 0 0 .025-.059c.274.135.521.319.729.544.142.158.262.335.356.526-.869 1.366-1.833 2.674-2.708 4.034zm3.016-1.481c.002.281-.028.561-.088.835-.177.56-.472.565-.974.589-.13.006-.26.01-.389.014.463-.616.879-1.266 1.244-1.944.02-.039.024-.084.011-.125s-.041-.076-.079-.098-.083-.026-.125-.015a.163.163 0 0 0-.1.076 21.002 21.002 0 0 1-1.436 2.122l-.572.014c.843-1.172 1.595-2.43 2.35-3.654.19.712.244 1.454.157 2.186z"/></symbol><symbol id="icon-study-4" viewBox="0 0 37 32"><path fill="#4744c9" style="fill:var(--color1,#4744c9)" d="M36.195 14.497C35.095 5.899 25.839-1.017 17.307.123c-.204.027-.406.06-.607.096a.255.255 0 0 0-.269-.109c-1.254.252-2.5.536-3.706.901-5.09.976-9.723 3.814-11.766 8.854-3.268 8.062 2.252 17.725 9.927 20.798.179.072.36.139.541.204a13.136 13.136 0 0 0 7.426.967 20.763 20.763 0 0 0 11.312-4.35A13.748 13.748 0 0 0 33 24.437c2.35-2.63 3.698-6.001 3.195-9.94zm-.43.795a11.115 11.115 0 0 1-1.274 6.125c.21-.63.365-1.277.463-1.934.369-2.502-.109-5.04-1.096-7.368a12.62 12.62 0 0 0-2.18-4.967c-2.423-3.329-6.266-5.227-10.216-6.058a22.332 22.332 0 0 0-4.164-.465C25.87-.536 35.024 6.624 35.765 15.292zm-5.683 11.153a18.315 18.315 0 0 1-3.655 2.061c3.774-2.834 6.612-7.071 7.456-11.568.155-.827.229-1.668.219-2.51.562 2.186.62 4.482-.034 6.674a10.851 10.851 0 0 1-1.55 3.145 15.83 15.83 0 0 1-2.436 2.198zm-12.624 4.918a16.187 16.187 0 0 1-6.116-1.096 12.618 12.618 0 0 1-3.732-2.83c.077.06.152.123.23.182 3.716 2.771 8.512 3.479 13.029 2.901.475-.061.95-.139 1.427-.235-1.046.451-2.14.784-3.26.993-.526.047-1.052.077-1.577.086zm-1.012-1.222c-3.83-.262-7.445-1.748-10.095-4.559a11.693 11.693 0 0 1-.422-.473 13.253 13.253 0 0 1-.211-.39C2.027 17.606 4.488 8.084 10.78 3.353c2.774-1.304 5.708-2.119 8.916-1.803 4.869.478 9.173 3.623 11.923 7.548.71 1.013 1.308 2.1 1.783 3.242.977 5.57-2.261 11.521-6.611 15.164a18.795 18.795 0 0 1-2.516 1.779 22.292 22.292 0 0 1-7.828.86zM14.807 1.212c.331-.029.662-.05.994-.063a16.8 16.8 0 0 0-2.121.502c.297-.131.6-.253.909-.365.072-.026.145-.049.218-.074zM10.58 2.867a43.154 43.154 0 0 0-4.287 2.389l.099-.115c1.726-1.893 4.024-2.945 6.438-3.652a14.89 14.89 0 0 0-2.251 1.378zM5.399 6.376a.242.242 0 0 0 .15-.041A61.868 61.868 0 0 1 8.875 4.33c-3.67 3.628-5.662 9.04-5.327 14.288.092 1.436.372 2.854.831 4.217A15.584 15.584 0 0 1 2.6 15.784c-.068-3.322.864-6.703 2.798-9.408zm20.552-3.238A14.572 14.572 0 0 1 31.372 7.6c.451.618.841 1.279 1.163 1.973a19.98 19.98 0 0 0-.94-1.383 18.739 18.739 0 0 0-5.644-5.051zM.582 14.777C.534 9.954 3.248 5.797 7.368 3.443c.324-.185.654-.358.989-.518a12.124 12.124 0 0 0-3.192 2.878c-2.594 3.363-3.46 7.923-2.923 12.074a14.795 14.795 0 0 0 3.264 7.512 13.292 13.292 0 0 0 2.19 2.91 17.208 17.208 0 0 1-1.493-1.185 17.03 17.03 0 0 1-5.62-12.337zm22.473 15.756a17.998 17.998 0 0 0 1.681-.892 20.843 20.843 0 0 0 4.343-1.988c-.504.363-1.027.7-1.566 1.009a19.923 19.923 0 0 1-4.459 1.87z"/><path fill="#4744c9" style="fill:var(--color1,#4744c9)" d="m27.382 19.32-3.392.035a.219.219 0 0 0-.003-.036c-.104-.601-.239-1.198-.36-1.797a2.773 2.773 0 0 0-.357-1.138c-.475-.646-1.427-.969-2.183-1.109a.25.25 0 0 0-.324-.118.242.242 0 0 0-.098.078 1.878 1.878 0 0 1-.639-.355 1.474 1.474 0 0 1-.536-.643.282.282 0 0 0-.031-.053c.976-.721 1.461-2.339 1.664-3.384a7.743 7.743 0 0 0 .072-2.568c-.112-.777-.482-1.121-1.189-1.424-1.203-.514-3.582-.797-4.168.762a.21.21 0 0 0 .044.225c-.528 1.382-.286 2.998.095 4.392a3.812 3.812 0 0 0 1.209 1.946 1.045 1.045 0 0 1-.25.637 2.51 2.51 0 0 1-.605.449 1.385 1.385 0 0 0-.782-.55c-.845-.264-1.666.552-2.307 1.033-.039-.04-.09-.066-.145-.075s-.111.002-.16.029a.252.252 0 0 0-.121.283c.07.245.161.483.27.713-.252.128-.502.265-.747.409a3.536 3.536 0 0 1-.007-.106c-.027-.352-.579-.343-.552.012l.033.411c-.349.215-.696.433-1.041.644a.215.215 0 0 0-.065.294.215.215 0 0 0 .292.074c.279-.169.567-.332.854-.496.041.518.083 1.035.126 1.552a.471.471 0 0 0 .009.052l-2.357.032a.246.246 0 0 0-.194.103.247.247 0 0 0-.038.217c.135.412.208.841.218 1.274.006.275-.021.333.195.492.508.37 1.37.209 1.949.206.106 0 .211-.003.317-.003.118.909.162 1.826.132 2.742-.032.586.199.917.797.994.847.053 1.696.034 2.539-.058.97-.047 1.941-.112 2.912-.146.929-.041 1.86-.036 2.788.017.916.057 1.877.245 2.793.099a.814.814 0 0 0 .593-.277.785.785 0 0 0 .186-.626c.019-.977-.079-1.973-.118-2.95a.225.225 0 0 0-.027-.102c.856-.038 1.711-.079 2.567-.123a.239.239 0 0 0 .232-.242l-.046-1.314a.259.259 0 0 0-.041-.514zm-4.162-1.458c-.153.231-.308.461-.466.689-.178.216-.33.453-.453.705a.177.177 0 0 0-.008.118l-.93.011a14.917 14.917 0 0 0 1.575-2.53c.032.062.06.126.082.192.086.267.152.539.2.816zm-.478 1.507c.15-.19.284-.391.403-.602l.176-.274c.043.293.086.585.143.867l-.722.008zm-.081-2.879a61.82 61.82 0 0 1-.784 1.244 11.64 11.64 0 0 0-.898 1.414c-.018.039-.024.082-.02.125s.021.083.047.117l-.88.011c.706-1.045 1.262-2.229 1.863-3.34.247.103.474.249.671.43zm-1.052-.572c-.658 1.097-1.407 2.183-1.958 3.332-.025.048-.034.103-.025.157l-.229.003a.235.235 0 0 0 .1-.102 19.513 19.513 0 0 0 1.496-3.542c.208.039.414.09.616.153zm-4.941 2.06a3.34 3.34 0 0 0-.698 1.411.162.162 0 0 0 .006.062l-.948.012c.19-.272.364-.554.524-.845.276-.455.541-.915.796-1.382.13.224.267.445.403.666a.246.246 0 0 0-.082.075zm-.233 1.467c.105-.178.167-.381.257-.569.092-.192.195-.38.306-.561.214.354.392.728.532 1.116l-1.095.014zm-.409-2.513c-.273.463-.553.922-.845 1.374a6.712 6.712 0 0 0-.733 1.165l-.536.007-.007-.149a.217.217 0 0 0 .144-.104c.265-.437.438-.93.692-1.376.279-.486.594-.951.944-1.389a.21.21 0 0 0 .043-.095c.05-.031.099-.062.146-.095.074.195.159.386.254.571a.212.212 0 0 0-.104.092zm-1.331.131a7.535 7.535 0 0 0-.831 1.36 17.88 17.88 0 0 1-.014-1.01.503.503 0 0 0 .197-.013 2.12 2.12 0 0 0 .648-.337zm6.01-8.941a5.194 5.194 0 0 1-.216.428.873.873 0 0 0-.198-.213.707.707 0 0 0-.46-.163c.033-.058.065-.115.098-.17l.33-.539a1.108 1.108 0 0 1 .446.657zm-.525.941a.518.518 0 0 0-.011.037.192.192 0 0 0 .059.189c.028.211.026.446.064.584.058.252.194.48.388.651a7.427 7.427 0 0 1-.731 2.169c-.361.688-.887 1.498-1.789 1.338-.865-.152-1.383-.921-1.652-1.694a10.072 10.072 0 0 1-.39-1.45 1.021 1.021 0 0 0 .565-1.026c.014-.5.153-1.271.724-.889l.017.011a.216.216 0 0 0 .051.034c.181.126.391.206.611.232.28.037.565.007.831-.088.342-.12.761-.549 1.14-.284a.36.36 0 0 1 .123.186zm.498.014c.045-.071.085-.146.125-.214l.008-.014c.011.276.005.553-.02.828-.054-.191-.075-.399-.113-.6zm-.812-1.836-.347.536c-.149.18-.255.391-.309.618a2.288 2.288 0 0 1-.704.31.682.682 0 0 1-.493-.062c.102-.158.192-.326.292-.475.214-.319.439-.631.668-.939A.235.235 0 0 0 19 6.993c.297.048.588.131.866.248zm-1.225-.297c-.228.291-.45.587-.666.888-.122.169-.265.341-.386.523a.53.53 0 0 0-.125-.059 1.033 1.033 0 0 0-.726.156l-.027.016c.055-.091.11-.18.168-.267.285-.429.579-.851.883-1.267a4.576 4.576 0 0 1 .879.009zm-1.482.111a43.19 43.19 0 0 0-.622.853c-.144.205-.304.411-.449.624a3.76 3.76 0 0 1 .312-.911c.178-.273.447-.473.759-.566zm-1.17 2.384a.18.18 0 0 0 .085-.05c.049-.051.095-.104.139-.159-.031.385.081.924-.174 1.151a6.444 6.444 0 0 1-.051-.942zm3.121 4.952c.08.264.245.494.469.655-.138.187-.259.389-.386.586a.23.23 0 0 0-.157-.066 7.553 7.553 0 0 0-1.561.102 3.355 3.355 0 0 1-.332-.208c-.067-.048-.128-.101-.193-.146a1.422 1.422 0 0 0 .645-.925c.4.19.857.222 1.279.091.081-.024.16-.054.237-.09zm.813.903c.184.129.388.227.604.289-.103.288-.206.574-.313.859-.113-.1-.244-.187-.36-.275-.117-.089-.236-.174-.355-.26.161-.19.303-.395.424-.613zm-.664.962c.127.093.253.189.376.286.132.117.271.226.417.325-.233.598-.481 1.19-.765 1.771-.077-.288-.168-.572-.24-.86a2.002 2.002 0 0 1 .213-1.522zm-1.444-.151c.349-.048.702-.07 1.054-.066a2.392 2.392 0 0 0-.363 1.422c.091.613.254 1.213.486 1.787a.21.21 0 0 0 .169.143.222.222 0 0 0 .041.02l-1.217.016a.261.261 0 0 0-.011-.068 4.962 4.962 0 0 0-.173-.44c.098-.252.181-.509.249-.77.126-.319.23-.647.31-.981.063-.444-.338-.702-.546-1.062zm-.397.295c.176.309.409.61.372.905a5.535 5.535 0 0 1-.3 1.008c-.242-.425-.514-.835-.759-1.259l.008-.004c.161-.132.313-.275.453-.429l.226-.221zm-1.16-.485a.742.742 0 0 0 .141-.31c.051.01.103.001.147-.026l.011-.007c.095.114.213.207.346.273.097.058.196.115.296.168l-.299.284c-.125.119-.268.231-.383.361a4.867 4.867 0 0 1-.295-.698l.036-.044zm-1.622-.568c.294-.185.745-.375 1.041-.048l.196.133c-.035.109-.093.21-.169.295s-.169.155-.272.204c-.352.259-.746.474-1.116.707-.308.195-.382.3-.64-.015a1.707 1.707 0 0 1-.248-.433c.403-.277.792-.583 1.207-.844zm-1.335 1.676c.035.047.072.092.112.135a.272.272 0 0 0-.016.074c-.048.75-.032 1.503.05 2.25l-.95.011a.218.218 0 0 0 .001-.057c-.042-.612-.082-1.226-.125-1.84.315-.183.628-.372.928-.575zm11.032 7.432c-.051.374-.141.529-.538.565a7.262 7.262 0 0 1-1.043.002c-1.485-.083-2.938-.191-4.428-.136-1.457.054-2.912.178-4.37.192-.372.003-1.131.148-1.244-.354a5.277 5.277 0 0 1 .07-1.004 6.99 6.99 0 0 0-.192-1.901 318.632 318.632 0 0 0 11.67-.287.223.223 0 0 0-.016.096c.023.738.047 1.476.072 2.213.022.204.029.41.02.615zm-6.59-3.19c-1.541.034-3.081.057-4.621.068-.787.006-1.587.05-2.373.009-.216-.011-.536.048-.635-.161a2.149 2.149 0 0 1-.033-.519 4.387 4.387 0 0 0-.119-.635c5.663-.053 11.325-.114 16.988-.184l.038 1.085c-3.08.154-6.162.267-9.245.337z"/></symbol><symbol id="icon-study-5" viewBox="0 0 37 32"><path fill="#4744c9" style="fill:var(--color1,#4744c9)" d="M36.195 14.497C35.095 5.899 25.839-1.017 17.307.123c-.204.027-.406.06-.607.096a.255.255 0 0 0-.269-.109c-1.254.252-2.5.536-3.706.901-5.09.976-9.723 3.814-11.766 8.854-3.268 8.062 2.252 17.725 9.927 20.798.179.072.36.139.541.204a13.136 13.136 0 0 0 7.426.967 20.763 20.763 0 0 0 11.312-4.35A13.748 13.748 0 0 0 33 24.437c2.35-2.63 3.698-6.001 3.195-9.94zm-.43.795a11.115 11.115 0 0 1-1.274 6.125c.21-.63.365-1.277.463-1.934.369-2.502-.109-5.04-1.096-7.368a12.62 12.62 0 0 0-2.18-4.967c-2.423-3.329-6.266-5.227-10.216-6.058a22.332 22.332 0 0 0-4.164-.465C25.87-.536 35.024 6.624 35.765 15.292zm-5.683 11.153a18.315 18.315 0 0 1-3.655 2.061c3.774-2.834 6.612-7.071 7.456-11.568.155-.827.229-1.668.219-2.51.562 2.186.62 4.482-.034 6.674a10.851 10.851 0 0 1-1.55 3.145 15.83 15.83 0 0 1-2.436 2.198zm-12.624 4.918a16.187 16.187 0 0 1-6.116-1.096 12.618 12.618 0 0 1-3.732-2.83c.077.06.152.123.23.182 3.716 2.771 8.512 3.479 13.029 2.901.475-.061.95-.139 1.427-.235-1.046.451-2.14.784-3.26.993-.526.047-1.052.077-1.577.086zm-1.012-1.222c-3.83-.262-7.445-1.748-10.095-4.559a11.693 11.693 0 0 1-.422-.473 13.253 13.253 0 0 1-.211-.39C2.027 17.606 4.488 8.084 10.78 3.353c2.774-1.304 5.708-2.119 8.916-1.803 4.869.478 9.173 3.623 11.923 7.548.71 1.013 1.308 2.1 1.783 3.242.977 5.57-2.261 11.521-6.611 15.164a18.795 18.795 0 0 1-2.516 1.779 22.292 22.292 0 0 1-7.828.86zM14.807 1.212c.331-.029.662-.05.994-.063a16.8 16.8 0 0 0-2.121.502c.297-.131.6-.253.909-.365.072-.026.145-.049.218-.074zM10.58 2.867a43.154 43.154 0 0 0-4.287 2.389l.099-.115c1.726-1.893 4.024-2.945 6.438-3.652a14.89 14.89 0 0 0-2.251 1.378zM5.399 6.376a.242.242 0 0 0 .15-.041A61.868 61.868 0 0 1 8.875 4.33c-3.67 3.628-5.662 9.04-5.327 14.288.092 1.436.372 2.854.831 4.217A15.584 15.584 0 0 1 2.6 15.784c-.068-3.322.864-6.703 2.798-9.408zm20.552-3.238A14.572 14.572 0 0 1 31.372 7.6c.451.618.841 1.279 1.163 1.973a19.98 19.98 0 0 0-.94-1.383 18.739 18.739 0 0 0-5.644-5.051zM.582 14.777C.534 9.954 3.248 5.797 7.368 3.443c.324-.185.654-.358.989-.518a12.124 12.124 0 0 0-3.192 2.878c-2.594 3.363-3.46 7.923-2.923 12.074a14.795 14.795 0 0 0 3.264 7.512 13.292 13.292 0 0 0 2.19 2.91 17.208 17.208 0 0 1-1.493-1.185 17.03 17.03 0 0 1-5.62-12.337zm22.473 15.756a17.998 17.998 0 0 0 1.681-.892 20.843 20.843 0 0 0 4.343-1.988c-.504.363-1.027.7-1.566 1.009a19.923 19.923 0 0 1-4.459 1.87z"/><path fill="#4744c9" style="fill:var(--color1,#4744c9)" d="M23.239 10.03c.041-.156.085-.313.13-.471.153-.135.305-.271.454-.409.202.05.404.103.605.158-.321.262-.627.541-.916.834l-.282-.074.009-.039zm-3.445-1.924-.19-.04c-.495-.1-.547.04-.647.481-.02.086-.09.266-.127.429.324-.292.655-.567.965-.87zm-.987 1.065c.01.019.024.036.041.049s.038.023.059.029c.022.005.044.006.066.003s.043-.011.062-.023A6.288 6.288 0 0 0 20.188 8.2c.244.063.486.135.724.214l-.619.489a2.836 2.836 0 0 0-.575.505c-.291-.021-.811-.047-.886-.151a.158.158 0 0 1-.026-.087zm1.35.303a4.594 4.594 0 0 1 .74.219c.132-.136.297-.243.442-.367.196-.167.382-.343.562-.526-.2-.09-.403-.173-.607-.25a.173.173 0 0 1-.045.052l-.728.581c-.12.096-.237.201-.363.291zm1.144.355c.093-.071.18-.151.267-.226.119-.103.234-.209.346-.319a1.137 1.137 0 0 1-.084.296c-.036.099-.112.181-.211.228s-.214.054-.319.021zm3.508-.412c.169.05.337.102.505.157-.321.245-.615.52-.878.82l-.542-.149c.304-.242.584-.517.873-.772a.179.179 0 0 0 .043-.056zm.905.293.017.006c.183.052.36.121.529.205.407.313.277.491.191.87-.058.252-.122.504-.186.755-.032-.021-.071-.03-.11-.026s-.074.022-.1.049c-.358.349-.749.688-1.106 1.05l.117-.357a5.52 5.52 0 0 0 .359-1.015c.345-.263.671-.546.976-.85.169-.16-.094-.405-.265-.246-.252.227-.516.44-.792.64a.49.49 0 0 0-.039-.051.925.925 0 0 0-.453-.241c.303-.247.59-.511.861-.789zm-.919 1.511-.122.106a.14.14 0 0 0-.053.107.137.137 0 0 0 .051.107c-.025.05-.049.098-.066.141-.139.357-.264.719-.381 1.083-.386 1.205-.687 2.433-.98 3.661-.304 1.264-.592 2.532-.96 3.782-.171.585-.36 1.165-.573 1.738-.123.331-.256.658-.396.982-.053.121-.09.332-.19.421-.164.144-.034.083-.245.024-.209-.059-.437-.238-.645-.318a7.693 7.693 0 0 0-.814-.258c-.674-.18-1.346-.352-2.009-.566-1.256-.404-2.493-.875-3.788-1.158-.43-.094-1.555-.059-1.595-.529.046-.316.135-.625.267-.919l.303-1.033 1.143-3.903c.413-1.407 1.027-2.736 1.474-4.127.164-.509.426-1.313.32-1.855-.088-.442-.198-.235.1-.214.223.041.441.101.653.18l.974.264a2.99 2.99 0 0 0-.098.486c-.065.616.359.909.937 1.069.927.257 1.83.55 2.748.825.689.207 1.543.227 2.029-.371.097-.124.171-.263.22-.41.265.09.532.18.799.266.163.053.783.151.868.276a.196.196 0 0 1 .028.141zm1.37.72-.141.568a.177.177 0 0 0-.051.043 11.4 11.4 0 0 1-.863.938c-.18.174-.378.334-.569.5.061-.223.125-.446.19-.668.511-.429.99-.89 1.433-1.382zm-.33 1.336-.159.648a.176.176 0 0 0-.161.05l-.82.777c-.135.128-.3.332-.481.497.054-.218.109-.436.166-.654a5.694 5.694 0 0 0 1.455-1.318zm-.289 1.173-.264 1.044a.226.226 0 0 0-.026.016l-.996.715c-.108.077-.223.153-.337.23l.166-.696c.232-.129.437-.297.605-.496l.852-.814zm-.398 1.564-.117.44-.117.429c-.033-.023-.074-.034-.115-.032s-.08.019-.11.047c-.34.299-.722.594-1.082.905l.104-.437.086-.367c.25-.151.48-.351.71-.518l.642-.467zm-.339 1.243c-.074.262-.149.523-.226.784a.461.461 0 0 0-.023.018l-1.036.935c-.087.078-.179.156-.271.234.063-.24.124-.481.183-.723.483-.381.926-.84 1.373-1.249zm-.423 1.441a75.11 75.11 0 0 1-.285.92.18.18 0 0 0-.137.038l-.812.631c-.079.061-.161.121-.243.181.055-.186.109-.372.161-.559.26-.197.487-.448.722-.665l.594-.547zm-.431 1.379c-.09.28-.181.56-.273.839-.032-.018-.069-.024-.106-.017s-.068.027-.09.055a4.866 4.866 0 0 1-.735.691 4.834 4.834 0 0 1-.291.2c.096-.27.188-.541.275-.813.214-.145.41-.323.61-.479l.609-.476zm-.455 1.384c-.14.418-.282.836-.425 1.253-.027-.007-.056-.007-.084 0s-.052.021-.072.04c-.4.362-.827.695-1.254 1.027.278-.447.487-.929.621-1.432a3.633 3.633 0 0 0 1.215-.888zm-1.104 2.661a5.361 5.361 0 0 1-.996.677.121.121 0 0 0-.058.068 39.07 39.07 0 0 1-.331-.071 15.096 15.096 0 0 0 1.892-1.579l-.016.047-.291.846a.159.159 0 0 0-.201.013zm-.688.835a3.85 3.85 0 0 0 .774-.506 1.417 1.417 0 0 1-.139.393c-.082.077-.186.129-.299.149s-.23.007-.336-.036zm-1.166-.265-.711-.16c.268-.179.525-.373.775-.56a.129.129 0 0 0 .021-.019.93.93 0 0 0 .654.128c-.252.199-.5.4-.739.611zm-1.22-.278c-.33-.077-.659-.156-.988-.236l.147-.103c.274-.191.537-.396.789-.612a.133.133 0 0 0 .026-.027c.339.093.67.21.99.35-.313.221-.642.42-.964.628zm-.554.471c.003.024.012.047.027.067s.034.036.057.047c.023.011.048.017.074.016s.051-.007.073-.018l.088-.039c.686.155 1.373.305 2.062.449.477.1 1.181.394 1.577-.027a2.38 2.38 0 0 0 .366-.845c.185-.525.372-1.051.554-1.578.65-1.882 1.276-3.772 1.809-5.687.562-2.023 1.038-4.068 1.532-6.107.169-.703.373-1.357-.418-1.758a11.368 11.368 0 0 0-2.959-.891c.026-.368-.172-.777-.544-.803-.016-.029-.037-.054-.064-.074s-.057-.036-.089-.045a26.37 26.37 0 0 0-2.994-.842c-.543-.093-1.499-.219-1.947.195a.492.492 0 0 0-.063.066c-.894-.192-1.789-.425-2.692-.574-.652-.108-1.215.018-1.509.625a15.883 15.883 0 0 0-.747 2.451 8863.612 8863.612 0 0 1-2.475 8.366l-.011.009c-.022.016-.037.038-.043.064s-.002.052.011.075l-.792 2.671c-.172.58-.545 1.334.109 1.765.612.404 1.553.496 2.257.687l2.435.658c.016.019.038.034.063.04s.051.006.076-.003l.544.145c.319.085.637.168.957.249-.006.025-.005.051.003.075s.022.046.041.064a.16.16 0 0 0 .148.037c.062-.023.122-.05.18-.082.767.193 1.536.378 2.307.555zm-.911-.824-.762-.19.747-.551a.19.19 0 0 0 .039-.271l.288.083c.245.069.489.131.73.195-.221.182-.45.356-.689.517-.113.076-.233.146-.352.217zm-1.226-.309c-.42-.107-.839-.216-1.257-.326.406-.256.795-.551 1.182-.804.376.126.752.25 1.131.367a.288.288 0 0 0-.038.022l-.848.622c-.055.04-.112.079-.169.119zm-1.777-.463-.795-.212c.107-.087.21-.178.316-.262l.779-.625a.188.188 0 0 0 .025-.024c.272.086.542.176.813.266l.145.048-.762.483c-.171.108-.349.212-.519.325zm-1.233-.329-1.444-.391c.122-.078.241-.161.361-.238.29-.187.579-.374.87-.56a.166.166 0 0 0 .065-.074l.104.023c.409.094.814.205 1.215.326l-.627.493c-.177.139-.371.271-.542.421zm-1.884-.51c-.253-.068-.506-.134-.759-.204.337-.239.654-.511.973-.772.103.01.206.013.3.023.264.027.527.066.788.113l-.68.437c-.205.131-.427.254-.622.403zm-1.15-.31c-.262-.062-.521-.116-.571-.448.021-.135.059-.267.112-.394l.042-.142a7.876 7.876 0 0 0 1.224-.812c-.109.361-.19.782.165 1.015-.339.243-.663.503-.971.781zm-.278-1.455c.108-.365.217-.73.327-1.094a6.38 6.38 0 0 0 1.253-.916l-.323 1.106c-.396.329-.816.631-1.257.905zm.472-1.582.06-.201.336-1.128c.433-.289.848-.602 1.243-.937-.108.381-.218.761-.328 1.141l-.011.038a.177.177 0 0 0-.073.047c-.376.38-.786.728-1.226 1.039zm.558-1.873.371-1.244c.434-.32.842-.677 1.249-1.03-.128.436-.254.873-.378 1.311a25.13 25.13 0 0 1-1.243.963zm.55-1.844.294-.984c.119-.099.228-.214.342-.319l.994-.922-.006.019c-.132.395-.257.791-.378 1.19a.188.188 0 0 0-.058.034c-.391.328-.8.646-1.188.983zm.486-1.628.4-1.34a15.648 15.648 0 0 0 1.507-1.317c-.197.544-.416 1.083-.617 1.64a.179.179 0 0 0-.223.017l-.881.813a4.072 4.072 0 0 0-.186.186zm.596-1.998.397-1.329a.159.159 0 0 0 .082-.023 9.689 9.689 0 0 0 1.331-1.051c-.079.41-.184.815-.316 1.212a.166.166 0 0 0-.135.044c-.429.394-.906.761-1.359 1.147zm.544-1.817.22-.735.079-.264a6.552 6.552 0 0 0 1.161-.83 2.24 2.24 0 0 0-.105.606c-.008.085-.018.17-.029.254-.03-.011-.063-.014-.095-.007s-.061.021-.085.042c-.371.318-.778.611-1.147.934zm.438-1.462.193-.642c.14-.463.282-.875.905-.782.155.023.309.049.464.078-.477.491-1 .942-1.561 1.345zm1.896-1.279c.233.048.466.101.699.155-.218.168-.441.333-.657.504a2.831 2.831 0 0 0-.4-.056.644.644 0 0 0-.196.014c.179-.173.35-.352.513-.531a.153.153 0 0 0 .04-.085zm.984.22.508.118c-.191.194-.389.382-.59.567-.179-.06-.36-.119-.54-.169.195-.153.388-.31.582-.462a.11.11 0 0 0 .04-.055zm.764.176.055.012c-.038.155-.068.307-.104.43-.029.098-.06.197-.093.298a12.794 12.794 0 0 1-.449-.145c.208-.189.403-.39.591-.596zm3.257 12.504c-1.156-.337-2.312-.671-3.469-1.004-.552-.158-1.102-.315-1.65-.481a17.099 17.099 0 0 0-1.875-.569c-.066-.014-.135-.005-.194.025s-.106.079-.131.138c-.025.059-.027.125-.006.186s.065.112.122.145c1.023.55 2.334.797 3.46 1.11 1.199.334 2.401.654 3.604.977.356.096.493-.425.14-.528zm.591-1.897a409.719 409.719 0 0 0-3.409-.939 29.928 29.928 0 0 0-3.421-.901c-.284-.041-.522.365-.207.489 1.101.368 2.224.672 3.364.908 1.182.308 2.365.61 3.549.906.064.013.131.002.186-.031s.096-.085.112-.145c.016-.06.007-.124-.026-.178s-.086-.094-.149-.111zm.556-1.887c-1.238-.372-2.483-.705-3.732-1.04a955.62 955.62 0 0 0-1.81-.487 8.79 8.79 0 0 0-1.774-.411c-.057.003-.112.023-.157.057s-.076.082-.09.134c-.014.053-.01.108.012.159s.06.093.109.121a8.891 8.891 0 0 0 1.743.524l1.812.481c1.248.331 2.496.664 3.754.959.068.014.14.002.2-.033s.102-.091.12-.155c.017-.064.007-.133-.027-.19s-.092-.1-.159-.119zm.327-2.188a61.462 61.462 0 0 0-6.655-1.895c-.075-.015-.153-.002-.218.036s-.112.099-.131.169c-.019.07-.008.145.03.208s.101.109.174.13c2.22.615 4.452 1.21 6.679 1.807.311.084.415-.354.121-.455zm.499-1.697a124.37 124.37 0 0 0-3.399-1.031c-.55-.158-1.1-.314-1.649-.469a7.52 7.52 0 0 0-1.618-.384c-.057.002-.112.022-.157.057s-.076.081-.09.134c-.014.053-.01.108.012.159s.06.092.11.12c.469.209.962.367 1.468.47.59.165 1.179.331 1.768.498 1.139.322 2.278.643 3.421.953.344.092.466-.4.135-.507zm-.286-3.867a2.552 2.552 0 0 1-.203 1.463c-.084.136-.205.249-.351.326s-.31.116-.476.113c-.562.011-1.124-.35-1.669-.447-.437-.078-1.148-.03-1.484-.351-.322-.307-.097-.797-.008-1.155.092-.37.113-.893.559-1.04.417-.138 1.017.098 1.417.211.62.18 1.223.41 1.802.688a.285.285 0 0 1 .072-.012l.042-.003c.067-.001.132.019.186.056s.093.091.113.152zm.057 1.535c-.138.413-.256.679-.74.765a1.851 1.851 0 0 1-.858-.102c-.572-.171-1.118-.405-1.694-.566-.355-.099-1.249-.141-1.483-.439-.256-.327.201-1.212.304-1.579.076-.269.099-.728.375-.892.303-.098.628-.122.943-.07 1.074.151 2.127.414 3.14.785-.008.044-.003.089.013.131s.044.079.08.108.079.049.126.057a.298.298 0 0 0 .139-.009c.115-.033-.109.9-.125.964-.072.28-.126.573-.218.848z"/></symbol><symbol id="icon-study-6" viewBox="0 0 37 32"><path fill="#4744c9" style="fill:var(--color1,#4744c9)" d="M36.195 14.497C35.095 5.899 25.839-1.017 17.307.123c-.204.027-.406.06-.607.096a.255.255 0 0 0-.269-.109c-1.254.252-2.5.536-3.706.901-5.09.976-9.723 3.814-11.766 8.854-3.268 8.062 2.252 17.725 9.927 20.798.179.072.36.139.541.204a13.136 13.136 0 0 0 7.426.967 20.763 20.763 0 0 0 11.312-4.35A13.748 13.748 0 0 0 33 24.437c2.35-2.63 3.698-6.001 3.195-9.94zm-.43.795a11.115 11.115 0 0 1-1.274 6.125c.21-.63.365-1.277.463-1.934.369-2.502-.109-5.04-1.096-7.368a12.62 12.62 0 0 0-2.18-4.967c-2.423-3.329-6.266-5.227-10.216-6.058a22.332 22.332 0 0 0-4.164-.465C25.87-.536 35.024 6.624 35.765 15.292zm-5.683 11.153a18.315 18.315 0 0 1-3.655 2.061c3.774-2.834 6.612-7.071 7.456-11.568.155-.827.229-1.668.219-2.51.562 2.186.62 4.482-.034 6.674a10.851 10.851 0 0 1-1.55 3.145 15.83 15.83 0 0 1-2.436 2.198zm-12.624 4.918a16.187 16.187 0 0 1-6.116-1.096 12.618 12.618 0 0 1-3.732-2.83c.077.06.152.123.23.182 3.716 2.771 8.512 3.479 13.029 2.901.475-.061.95-.139 1.427-.235-1.046.451-2.14.784-3.26.993-.526.047-1.052.077-1.577.086zm-1.012-1.222c-3.83-.262-7.445-1.748-10.095-4.559a11.693 11.693 0 0 1-.422-.473 13.253 13.253 0 0 1-.211-.39C2.027 17.606 4.488 8.084 10.78 3.353c2.774-1.304 5.708-2.119 8.916-1.803 4.869.478 9.173 3.623 11.923 7.548.71 1.013 1.308 2.1 1.783 3.242.977 5.57-2.261 11.521-6.611 15.164a18.795 18.795 0 0 1-2.516 1.779 22.292 22.292 0 0 1-7.828.86zM14.807 1.212c.331-.029.662-.05.994-.063a16.8 16.8 0 0 0-2.121.502c.297-.131.6-.253.909-.365.072-.026.145-.049.218-.074zM10.58 2.867a43.154 43.154 0 0 0-4.287 2.389l.099-.115c1.726-1.893 4.024-2.945 6.438-3.652a14.89 14.89 0 0 0-2.251 1.378zM5.399 6.376a.242.242 0 0 0 .15-.041A61.868 61.868 0 0 1 8.875 4.33c-3.67 3.628-5.662 9.04-5.327 14.288.092 1.436.372 2.854.831 4.217A15.584 15.584 0 0 1 2.6 15.784c-.068-3.322.864-6.703 2.798-9.408zm20.552-3.238A14.572 14.572 0 0 1 31.372 7.6c.451.618.841 1.279 1.163 1.973a19.98 19.98 0 0 0-.94-1.383 18.739 18.739 0 0 0-5.644-5.051zM.582 14.777C.534 9.954 3.248 5.797 7.368 3.443c.324-.185.654-.358.989-.518a12.124 12.124 0 0 0-3.192 2.878c-2.594 3.363-3.46 7.923-2.923 12.074a14.795 14.795 0 0 0 3.264 7.512 13.292 13.292 0 0 0 2.19 2.91 17.208 17.208 0 0 1-1.493-1.185 17.03 17.03 0 0 1-5.62-12.337zm22.473 15.756a17.998 17.998 0 0 0 1.681-.892 20.843 20.843 0 0 0 4.343-1.988c-.504.363-1.027.7-1.566 1.009a19.923 19.923 0 0 1-4.459 1.87z"/><path fill="#4744c9" style="fill:var(--color1,#4744c9)" d="M25.944 10.827a.312.312 0 0 0-.134.059 239.692 239.692 0 0 0-4.064-.122c.087-.791.049-1.645-.647-2.16-.788-.582-2.018-.501-2.938-.485-.639.012-1.275.053-1.911.104a5.35 5.35 0 0 0-1.536.197c-.961.389-.574 1.482-.656 2.265-.494.001-.987.001-1.481.004-.524.003-1.049.007-1.574.014a5.144 5.144 0 0 0-1.475.088c-.614.194-.858.786-.924 1.379a25.419 25.419 0 0 0 .009 3.147c.012 1.095.025 2.19.039 3.284.002.195 0 .394-.003.595a.51.51 0 0 0-.087.125.29.29 0 0 0 .078.352c-.03.649.004 1.299.101 1.942a1.569 1.569 0 0 0 1.155 1.353c.923.233 2.01.128 2.957.157a343.292 343.292 0 0 0 10.21.161c.988.059 1.979.039 2.964-.062.308-.023.602-.136.845-.325s.427-.445.527-.736c.098-.469.135-.948.11-1.426a87598.496 87598.496 0 0 1 .15-5.662c.033-1.24.546-4.684-1.716-4.251h-.001zM15.276 8.926c-.141.16-.28.32-.417.483-.081.096-.172.192-.259.292a.749.749 0 0 1 .677-.774zm-.687 1.438c.187-.179.354-.377.498-.592-.078.3-.077.615.003.915l-.509-.001c.008-.105.009-.213.009-.322zm.87-1.044c.128-.15.257-.299.387-.447.183-.014.365-.027.548-.039a4.764 4.764 0 0 0-.209.321 1.669 1.669 0 0 0-.712.157l-.015.008zm1.101-.18c.076-.108.148-.22.222-.329.193-.01.386-.018.578-.025a7.87 7.87 0 0 0-.259.32l-.472.03-.07.004zm1.001-.059c.085-.101.168-.205.252-.306.216-.005.439-.011.664-.013-.067.098-.136.195-.201.295l-.165.005c-.183.004-.367.011-.55.02zm1.127-.034.119-.175a.142.142 0 0 0 .027-.11c.259.003.517.019.775.049-.055.09-.113.179-.172.267a6.246 6.246 0 0 0-.749-.031zm.388.667c-.002.028.004.056.018.08s.035.043.06.055.053.016.081.011a.131.131 0 0 0 .073-.037c.027-.022.052-.045.078-.069.483.096.848.349.788.979a312.9 312.9 0 0 0-4.543-.045l-.004-.042a.394.394 0 0 1 .18-.595c.069-.195.187-.28.355-.258.2-.028.403-.035.605-.022.412-.018.823-.045 1.236-.054.315-.007.709-.034 1.075-.005zm.749-.57c.051-.093.1-.186.146-.276l.101.022c.153.033.301.088.438.164-.066.095-.133.19-.197.286a1.6 1.6 0 0 0-.489-.197zm.743.434c.072-.101.141-.206.21-.31.075.084.136.18.18.283l-.009.013a6.187 6.187 0 0 1-.212.315 1.312 1.312 0 0 0-.169-.301zm.272.73.088-.118c.049-.065.096-.132.143-.199.025.252.026.506.003.759a22.731 22.731 0 0 0-.257-.004 1.43 1.43 0 0 0 .023-.438zm-3.497 8.262-.541.515c-.061.058-.124.115-.187.172l-.001-.009c-.041-.393-.068-.678.432-.692a2.46 2.46 0 0 1 .297.014zm-.698 1.076c.112-.109.22-.222.33-.329l.673-.651a.127.127 0 0 0 .039-.067c.063.003.127.001.19-.004.137-.012.27-.031.401-.045-.482.532-.983 1.056-1.432 1.614-.198-.131-.174-.224-.198-.49l-.002-.027zm.488.63c.519-.558.996-1.166 1.49-1.744.046.001.093.005.139.01a.354.354 0 0 0 .269.191l-.771.848c-.211.232-.44.457-.648.696-.159.021-.32.021-.479-.001zm.995-.073c.139-.161.274-.325.412-.479l.727-.811c.028.206.04.413.035.621-.028-.008-.058-.009-.085 0s-.053.024-.072.046c-.184.195-.379.385-.565.583a2.978 2.978 0 0 0-.452.041zm.862.04.289-.317c-.019.138-.061.282-.168.324a.26.26 0 0 1-.121-.007zm-7.627 1.261c-.244.293-.498.582-.733.885a1.664 1.664 0 0 1-.768-.149 15.87 15.87 0 0 0 1.585-1.85c.114-.153-.1-.363-.218-.208a23.097 23.097 0 0 1-1.607 1.859.74.74 0 0 1-.053-.072 1.394 1.394 0 0 1-.203-.655c.421-.537.837-1.076 1.26-1.61l1.785.018c1.174.012 2.349.023 3.524.032.022.125.044.242.061.344a.935.935 0 0 0 .984.866 7 7 0 0 0 1.101-.092c.378-.036.727.089 1.096.082.516-.01.712-.395.778-.856.012-.089.023-.196.031-.315a53.634 53.634 0 0 1 6.886-.013l-.019.727c.03.472.007.946-.071 1.412-.24.876-1.473.703-2.163.705a347.4 347.4 0 0 1-13.621-.216c.197-.227.387-.461.581-.69.124-.146-.093-.354-.216-.206zm.251-3.512a78.82 78.82 0 0 0-.916 1.066l-.589-.011c.628-.819 1.238-1.655 1.919-2.434.116-.134-.081-.324-.2-.191-.74.831-1.535 1.696-2.211 2.616-.098-.004-.199-.013-.3-.019l-.004-.452c1.216-1.375 2.299-2.894 3.435-4.335.108-.137-.087-.327-.198-.189-1.075 1.335-2.224 2.64-3.244 4.022-.005-.315-.01-.63-.017-.946a30.744 30.744 0 0 0 2.03-2.564l2.073-2.648c.1-.128-.082-.305-.185-.176l-2.162 2.717c-.577.724-1.233 1.432-1.766 2.199-.011-.524-.024-1.049-.033-1.574a.128.128 0 0 0 .136-.045c.974-1.213 1.871-2.468 2.91-3.631a.142.142 0 0 0 .039-.089c.481-.003.962-.004 1.443-.004 4.047 0 8.093.142 12.139.134a.338.338 0 0 0 .223.029c1.145-.223.91 1.746.894 2.34l-.072 2.702-.072 2.703v.005a49.894 49.894 0 0 0-6.895-.039c-.037-.628-.228-1.256-.819-1.162l-.023-.011c-.646-.235-1.396-.066-2.073-.13-.453-.043-.927.052-1.13.505-.09.25-.12.517-.087.781-1.37-.029-2.74-.056-4.108-.082l-.614-.011c.233-.286.47-.569.712-.849.136-.158-.097-.383-.236-.225zm-1.431 1.691c-.289.357-.57.72-.841 1.09a45.32 45.32 0 0 1-.014-.739c.105-.127.209-.254.311-.383.181.005.366.019.544.032zm1.781-8.373a27.331 27.331 0 0 0-2.724 3.382c-.01-.7-.015-1.4-.005-2.098.004-.397-.008-.787.311-1.06.292-.249.741-.222 1.135-.212a.14.14 0 0 0-.034.026c-.486.461-.947.948-1.382 1.457-.021.023-.032.054-.03.085s.015.061.037.082c.023.022.053.034.084.033s.061-.012.084-.034c.487-.46.95-.945 1.386-1.453a.122.122 0 0 0-.039-.194h.099c.359-.006.717-.01 1.076-.013z"/></symbol><symbol id="icon-cross" viewBox="0 0 32 32"><path d="M31.708 25.708 22 16l9.708-9.708a1 1 0 0 0 0-1.414L27.122.292a1 1 0 0 0-1.414-.001L16 9.999 6.292.291a.998.998 0 0 0-1.414.001L.292 4.878a1 1 0 0 0 0 1.414L10 16 .292 25.708a.999.999 0 0 0 0 1.414l4.586 4.586a1 1 0 0 0 1.414 0L16 22l9.708 9.708a1 1 0 0 0 1.414 0l4.586-4.586a.999.999 0 0 0 0-1.414z"/></symbol></defs></svg>