<svg aria-hidden="true" style="position: absolute; width: 0; height: 0; overflow: hidden;" version="1.1" xmlns="http://www.w3.org/2000/svg" xmlns:xlink="http://www.w3.org/1999/xlink">
<defs>
<symbol id="icon-logo" viewBox="0 0 31 32">
<path fill="#fff" style="fill: var(--color1, #fff)" d="M0.358 31.803h30.675v-6.771h-30.675v6.771zM26.507 29.245c0-0.217 0.014-0.383 0.043-0.495 0.030-0.116 0.098-0.213 0.191-0.278l0.002-0.001c0.099-0.075 0.26-0.136 0.475-0.185-0.296-0.022-0.489-0.095-0.576-0.218-0.088-0.122-0.134-0.342-0.134-0.659 0-0.285 0.041-0.509 0.123-0.671 0.083-0.16 0.201-0.276 0.356-0.347 0.156-0.070 0.335-0.112 0.537-0.128s0.52-0.022 0.952-0.022h0.917v4.279h-1.294v-1.926c-0.163 0-0.27 0.024-0.317 0.070-0.049 0.047-0.072 0.151-0.072 0.309v1.548h-1.201v-1.274h0.001zM23.113 26.241h1.080v1.931l0.724-1.931h1.080v4.279h-1.081v-1.948l-0.671 1.948h-1.133v-4.279zM18.608 26.244h1.672c0.050 0.257 0.1 0.561 0.154 0.91l0.184 1.087 0.297-1.997h1.682v4.277h-1.131l-0.002-2.888-0.449 2.888h-0.802l-0.473-2.821-0.003 2.821h-1.128v-4.277zM15.996 26.244h2.155v0.856h-0.862v0.81h0.807v0.814h-0.807v0.94h0.948v0.856h-2.24v-4.277zM11.725 29.628h0.264c0.141-0.35 0.254-0.811 0.343-1.383 0.090-0.572 0.134-1.197 0.134-1.874v-0.13h2.866v3.381h0.264v1.636h-0.893v-0.737h-2.088v0.737h-0.889v-1.631h-0.001zM5.338 26.241h1.296l0.006 1.807c0.243-0.005 0.37-0.122 0.378-0.349l0.024-0.834c0.008-0.309 0.077-0.516 0.208-0.624h1.195c-0.117 0.103-0.174 0.319-0.173 0.644l0.006 0.735c0.004 0.444-0.285 0.696-0.872 0.757 0.587 0.063 0.877 0.318 0.872 0.769l-0.006 0.683c-0.001 0.299 0.048 0.518 0.148 0.658l0.654-4.244h1.867l0.739 4.277h-1.32l-0.070-0.769h-0.462l-0.077 0.769h-1.307c-0.008-0.009-0.016-0.020-0.024-0.031l-0.001-0.002-0.005 0.033h-1.163c-0.14-0.108-0.209-0.316-0.209-0.623v-0.835c0-0.003 0-0.006 0-0.009 0-0.098-0.043-0.186-0.111-0.246l-0-0c-0.076-0.062-0.174-0.099-0.28-0.099-0.004 0-0.008 0-0.012 0h0.001l-0.006 1.813h-1.296v-4.279zM2.512 26.244h1.867l0.74 4.277h-1.321l-0.069-0.769h-0.462l-0.078 0.769h-1.336l0.659-4.277zM18.419 24.442v-2.246h0.534v-0.596h-2.002v0.596h0.537v2.246h0.931zM21.258 23.071v-0.377c0-0.275-0.035-0.489-0.102-0.642-0.069-0.151-0.188-0.273-0.36-0.365-0.17-0.094-0.387-0.138-0.648-0.138-0.008-0-0.016-0-0.025-0-0.197 0-0.384 0.042-0.552 0.118l0.009-0.003c-0.154 0.068-0.278 0.182-0.356 0.325l-0.002 0.004c-0.072 0.144-0.108 0.341-0.108 0.589v0.828c0 0.212 0.017 0.372 0.048 0.483 0.033 0.11 0.090 0.211 0.174 0.305 0.083 0.092 0.202 0.163 0.353 0.216s0.325 0.078 0.523 0.078c0.204 0 0.373-0.026 0.508-0.079s0.247-0.133 0.333-0.24c0.088-0.107 0.144-0.208 0.169-0.303 0.023-0.093 0.036-0.228 0.036-0.405v-0.209h-0.887v0.375c0 0.141-0.013 0.236-0.035 0.286-0.025 0.049-0.072 0.073-0.142 0.073-0.058 0-0.097-0.019-0.117-0.056-0.019-0.035-0.030-0.119-0.030-0.247v-0.615h1.211zM20.047 22.4c0-0.16 0.009-0.258 0.023-0.295 0.016-0.036 0.055-0.055 0.121-0.055 0.052 0 0.086 0.022 0.104 0.064s0.026 0.138 0.026 0.285v0.208h-0.273v-0.207z"></path>
<path fill="#fff" style="fill: var(--color1, #fff)" d="M14.033 27.087h-0.384v0.032c-0.003 0.89-0.114 1.753-0.321 2.578l0.016-0.074h0.69v-2.536zM31.026 24.441v-2.84h-0.692c-0.589 0-0.969 0.061-1.147 0.185-0.176 0.123-0.265 0.326-0.265 0.609 0 0.255 0.033 0.433 0.099 0.532 0.067 0.1 0.212 0.158 0.436 0.176-0.173 0.044-0.295 0.087-0.366 0.129-0.067 0.038-0.116 0.1-0.138 0.174l-0.001 0.002c-0.021 0.075-0.029 0.198-0.029 0.368v0.666h0.856v-0.782c0-0.13 0.022-0.218 0.067-0.265 0.046-0.048 0.129-0.070 0.248-0.070v1.117h0.932zM29.846 22.767c-0.045-0.042-0.067-0.131-0.067-0.268v-0.038c0-0.134 0.019-0.22 0.060-0.256 0.040-0.034 0.093-0.054 0.15-0.054 0.005 0 0.009 0 0.014 0l-0.001-0h0.093v0.678c-0.12 0.002-0.203-0.020-0.249-0.062zM26.192 5.949h4.811l0.024-2.853h-8.552v17.242h3.717v-14.39zM21.564 21.599v3.246h0.935v-0.652c0.082 0.099 0.173 0.173 0.27 0.223 0.1 0.050 0.206 0.074 0.323 0.074 0.144 0 0.269-0.033 0.372-0.096 0.096-0.059 0.168-0.15 0.201-0.258l0.001-0.003c0.033-0.11 0.050-0.293 0.050-0.552v-1.197c0-0.226-0.013-0.386-0.039-0.479-0.026-0.094-0.093-0.178-0.198-0.25-0.101-0.068-0.225-0.108-0.358-0.108-0.006 0-0.013 0-0.019 0l0.001-0c-0.119 0-0.228 0.026-0.328 0.075s-0.193 0.125-0.275 0.226l0.016-0.251-0.951 0.001zM22.525 22.116c0.018-0.043 0.057-0.064 0.119-0.064 0.065 0 0.103 0.018 0.117 0.056 0.013 0.037 0.020 0.143 0.020 0.318v1.219c0 0.151-0.006 0.245-0.021 0.285s-0.053 0.059-0.113 0.059c-0.063 0-0.102-0.022-0.12-0.065-0.019-0.042-0.028-0.149-0.028-0.321v-1.178c0-0.163 0.009-0.268 0.026-0.31zM28.614 24.441v-1.426c0-0.469-0.017-0.781-0.050-0.93-0.031-0.151-0.127-0.277-0.29-0.381-0.159-0.104-0.397-0.156-0.713-0.156-0.265 0-0.479 0.045-0.644 0.137-0.166 0.092-0.275 0.196-0.331 0.315-0.054 0.12-0.082 0.289-0.082 0.509v0.191h0.878v-0.297c0-0.159 0.008-0.257 0.024-0.295 0.014-0.038 0.054-0.056 0.117-0.056 0.055 0 0.095 0.023 0.119 0.069 0.024 0.043 0.036 0.142 0.036 0.289 0 0.117-0.011 0.198-0.033 0.236s-0.186 0.113-0.493 0.224c-0.287 0.104-0.466 0.193-0.54 0.269-0.072 0.077-0.109 0.221-0.109 0.435v0.233c0 0.286 0.068 0.473 0.205 0.557 0.137 0.087 0.289 0.127 0.452 0.127 0.123 0 0.232-0.024 0.322-0.075 0.094-0.055 0.169-0.133 0.219-0.226l0.002-0.003v0.253h0.91v0.001zM27.678 23.674c0 0.143-0.009 0.232-0.026 0.264-0.018 0.034-0.055 0.050-0.115 0.050-0.061 0-0.103-0.021-0.124-0.064s-0.031-0.137-0.031-0.284c0-0.129 0.013-0.227 0.037-0.296 0.023-0.068 0.109-0.152 0.259-0.255v0.585zM26.214 24.442v-2.842h-0.931v1.022h-0.336v-1.021h-0.927v2.842h0.927v-1.048h0.336v1.048h0.93zM15.84 20.339l0.216-1.485h-0.003l0.303-2.081h1.717l0.206 2.018h-0.003l0.157 1.549h3.139l-0.216-1.777 0.004-0.001-1.538-12.633h-4.337l-2.064 12.894h0.004l-0.242 1.514 2.659 0.001zM17.308 8.25l0.095 0.058 0.441 6.287h-1.144l0.608-6.345zM8.104 24.442v-2.842h-1.174l-0.272 1.572-0.299-1.572h-1.158v2.842h0.801v-1.96l0.402 1.96h0.511l0.388-1.96v1.96h0.8zM4.332 21.636c-0.15-0.056-0.323-0.088-0.504-0.088-0.012 0-0.025 0-0.037 0l0.002-0c-0.251 0-0.456 0.045-0.616 0.135-0.149 0.078-0.265 0.202-0.331 0.353l-0.002 0.005c-0.062 0.148-0.094 0.355-0.094 0.618v0.728c0 0.242 0.018 0.422 0.051 0.543 0.034 0.12 0.092 0.222 0.17 0.307 0.080 0.086 0.191 0.149 0.334 0.193 0.144 0.040 0.319 0.061 0.525 0.061 0.186 0 0.349-0.024 0.491-0.073 0.261-0.086 0.459-0.296 0.528-0.557l0.001-0.006c0.027-0.12 0.041-0.306 0.041-0.562v-0.696c0-0.201-0.015-0.35-0.045-0.449-0.037-0.111-0.095-0.207-0.169-0.287l0 0.001c-0.094-0.1-0.21-0.177-0.342-0.224l-0.006-0.002zM3.958 23.694c0 0.123-0.009 0.203-0.026 0.239-0.018 0.038-0.055 0.056-0.11 0.056-0.053 0-0.090-0.021-0.109-0.060-0.019-0.041-0.028-0.129-0.028-0.262v-1.282c0-0.145 0.009-0.238 0.028-0.276s0.055-0.056 0.111-0.056c0.055 0 0.092 0.019 0.109 0.056 0.017 0.038 0.025 0.131 0.025 0.276v1.309zM1.684 24.44h0.9c-0.070-0.093-0.105-0.231-0.105-0.413v-0.498c0-0.236-0.159-0.399-0.478-0.493-0.074-0.022-0.176-0.047-0.279-0.067l-0.023-0.004c0.116-0.003 0.22-0.025 0.312-0.067 0.143-0.063 0.237-0.112 0.282-0.145 0.122-0.092 0.183-0.207 0.183-0.345v-0.395c0-0.182 0.035-0.32 0.104-0.412h-0.902c-0.069 0.029-0.104 0.141-0.104 0.334v0.482c0 0.193-0.098 0.289-0.294 0.289v-1.104h-0.922v2.84h0.922v-1.222c0.2 0 0.299 0.096 0.299 0.289v0.599c-0 0.007-0 0.015-0 0.023 0 0.117 0.039 0.226 0.106 0.312l-0.001-0.001zM10.057 27.198c-0.132 0.819-0.215 1.418-0.248 1.795h0.445c-0.058-0.389-0.128-1.005-0.184-1.625l-0.013-0.17zM28.095 27.925v-0.947h-0.061c-0.109 0-0.19 0.022-0.246 0.063s-0.082 0.131-0.082 0.265v0.236c0 0.159 0.021 0.262 0.068 0.309 0.046 0.050 0.154 0.074 0.321 0.074zM12.279 18.768v-10.29h-2.941v9.557h-1.564v-7.731l-2.923-0.006v7.748h-1.562v-0.594h0.001v-5.345h-2.943v8.23h11.93v-1.57zM11.889 22.547v-0.947h-0.929v2.842h1.081c0.318 0 0.547-0.015 0.688-0.043 0.132-0.022 0.242-0.1 0.307-0.209l0.001-0.002c0.066-0.113 0.1-0.3 0.1-0.558v-0.29c0-0.24-0.034-0.417-0.105-0.528-0.072-0.112-0.187-0.191-0.32-0.216l-0.003-0c-0.147-0.032-0.369-0.048-0.667-0.048h-0.153zM12.205 23.41v0.114c0 0.154-0.021 0.247-0.066 0.275-0.043 0.030-0.127 0.044-0.251 0.044v-0.754c0.149 0.005 0.238 0.023 0.27 0.054 0.031 0.032 0.048 0.121 0.048 0.267zM10.625 24.442v-2.842h-2.189v2.842h0.927v-2.246h0.331v2.246h0.931zM14.674 23.81c0.014 0.106 0.045 0.203 0.095 0.29 0.049 0.088 0.119 0.159 0.207 0.216 0.090 0.058 0.179 0.094 0.267 0.108 0.090 0.013 0.2 0.020 0.335 0.020 0.271 0 0.477-0.018 0.619-0.053s0.264-0.1 0.363-0.195 0.163-0.203 0.192-0.329c0.029-0.124 0.043-0.316 0.043-0.576v-0.691c0-0.179-0.009-0.318-0.029-0.417-0.028-0.118-0.087-0.22-0.167-0.3l-0-0c-0.099-0.103-0.222-0.181-0.361-0.224l-0.006-0.002c-0.151-0.048-0.325-0.076-0.506-0.076-0.010 0-0.020 0-0.030 0l0.002-0c-0.194 0-0.363 0.026-0.506 0.075-0.142 0.051-0.255 0.128-0.343 0.232-0.081 0.092-0.139 0.206-0.162 0.332l-0.001 0.004c-0.021 0.122-0.031 0.268-0.031 0.437v0.038h-0.28v-1.101h-0.937v2.84h0.932v-1.145h0.286v0.092c0 0.174 0.007 0.315 0.020 0.422zM15.586 22.384c0-0.129 0.006-0.216 0.021-0.262s0.053-0.071 0.117-0.071c0.063 0 0.102 0.023 0.116 0.069 0.013 0.043 0.020 0.132 0.020 0.264v1.451c0 0.002 0 0.005 0 0.007 0 0.039-0.014 0.075-0.038 0.102l0-0c-0.023 0.027-0.056 0.044-0.094 0.044-0.002 0-0.003-0-0.004-0h0c-0.094 0-0.139-0.082-0.139-0.245v-1.359zM3.499 27.198c-0.132 0.819-0.215 1.418-0.248 1.795h0.444c-0.058-0.389-0.127-1.005-0.183-1.626l-0.012-0.169z"></path>
<path fill="#fff" style="fill: var(--color1, #fff)" d="M0.988 11.942l0.482 0.013 0.055-0.111c0.422 0.077 0.901 0.206 1.272-0.078-0.041-0.237-0.38-0.139-0.543-0.255-0.078-0.047-0.177-0.095-0.228-0.174l-0.078-0.009c0.128-0.499 0.395-0.933 0.632-1.375 0.663-0.784 0.66-1.869 0.806-2.886 0.024-0.041 0.065-0.050 0.107-0.045 0.030-0.003 0.066-0.002 0.105-0.001 0.128 0.003 0.28 0.006 0.249-0.134 0.611 0.063 1.106 0.393 1.71 0.493-0.014 0.064-0.055 0.114-0.074 0.176-0.015 0.16-0.025 0.314-0.038 0.467l-0.006 0.117c-0.044 0.784-0.055 1.236 0.075 1.992h0.429l0.048-0.109c0.407-0.018 0.882 0.046 1.267-0.207-0.065-0.229-0.395-0.094-0.572-0.197-0.098-0.053-0.24-0.107-0.277-0.226-0.001-0.058-0.002-0.127-0.002-0.196 0-0.788 0.086-1.556 0.248-2.295l-0.013 0.070c-0.581-0.831-1.431-1.030-2.181-1.454 0.032-0.090 0.004-0.068 0.056-0.148-0.203-0.006-0.32-0.173-0.496-0.122-0.030-0.199-0.045-0.44 0.006-0.647 0.055 0.047 0.119 0.069 0.158 0.134 0.389 0.155 0.823 0.208 1.198 0.407l0.147-0.092c0.064 0.020 0.157 0.075 0.119 0.148 0.011-0.016 0.028-0.014 0.044-0.011 0.013 0.001 0.026 0.003 0.037-0.003 0.024-0.027 0.056-0.047 0.047-0.090 0.098-0.105 0.172-0.285 0.12-0.446-0.031-0.075-0.101-0.070-0.169-0.067-0.050 0.003-0.098 0.006-0.132-0.020v-0.046l-1.23-0.536c-0.050-0.268-0.171-0.499-0.275-0.738-0.018-0.544-0.476-0.921-0.452-1.456 0.072-0.1 0.151-0.084 0.232-0.068 0.045 0.008 0.091 0.018 0.136 0.004 0.061-0.045 0.096-0.080 0.072-0.172 0.027-0.018 0.034-0.071 0.078-0.075 0.013-0.124-0.008-0.263 0.144-0.292-0.046-0.102-0.121-0.19-0.131-0.315 0.098-0.181-0.021-0.424-0.005-0.615-0.186-0.077-0.389-0.23-0.6-0.23-0.107 0.001-0.204 0.041-0.278 0.107l0-0c-0.171 0.179-0.281 0.376-0.281 0.573-0.011 0.381 0.047 0.395 0.073 0.654-0.058 0.051-0.062 0.193-0.169 0.135-0.148 0.177-0.318 0.376-0.48 0.56-0.498 0.427-1.192 0.821-1.296 1.544 0.026 0.55 0.021 1.082-0.014 1.636 0.019 0.003 0.040 0.001 0.062 0.001 0.038-0.002 0.077-0.005 0.102 0.019-0.008 0.010-0.012 0.018-0.018 0.026h-0.003c0 0.030 0 0.058-0.005 0.088h0.041c0.074 0.174-0.004 0.417 0.038 0.602 0.043 0.063 0.023 0.194 0.117 0.202 0-0.024-0.004-0.053 0.018-0.070l0.079 0.157c0.051 0.028 0.058-0.041 0.083-0.065 0.038 0.021 0.011 0.076 0.018 0.112 0.019 0.025 0.040 0.058 0.082 0.046l0.038-0.471c0.052 0.14 0.044 0.312 0.062 0.471h0.042c0.073-0.064 0.036-0.18 0.048-0.272-0.019-0.278 0.025-0.514-0.087-0.756 0.038-0.030 0.053-0.065 0.047-0.118 0.027-0.006 0.034-0.048 0.065-0.040 0.094-0.492 0.078-1.058 0.108-1.545l0.171-0.132c0.134 0.705-0.013 1.429-0.157 2.123 0.040 0.126 0.078 0.281 0.024 0.427l-0.014 0.267h0.021l0.009-0.12c0 0.264-0.1 0.587 0.088 0.723-0.025 0.681-0.050 1.358-0.165 1.99-0.436 0.971-1.091 1.939-1.044 3.049z"></path>
</symbol>
<symbol id="icon-chevron-down" viewBox="0 0 34 32">
<path fill="none" stroke="#fff" style="stroke: var(--color1, #fff)" stroke-linejoin="round" stroke-linecap="round" stroke-miterlimit="4" stroke-width="2" d="M9 12l8 8 8-8"></path>
</symbol>
<symbol id="icon-mob-menu" viewBox="0 0 32 32">
<path fill="none" stroke="#fff" style="stroke: var(--color1, #fff)" stroke-linejoin="round" stroke-linecap="round" stroke-miterlimit="4" stroke-width="2.2857" d="M22.667 13.333h-18.667"></path>
<path fill="none" stroke="#fff" style="stroke: var(--color1, #fff)" stroke-linejoin="round" stroke-linecap="round" stroke-miterlimit="4" stroke-width="2.2857" d="M28 8h-24"></path>
<path fill="none" stroke="#fff" style="stroke: var(--color1, #fff)" stroke-linejoin="round" stroke-linecap="round" stroke-miterlimit="4" stroke-width="2.2857" d="M28 18.667h-24"></path>
<path fill="none" stroke="#fff" style="stroke: var(--color1, #fff)" stroke-linejoin="round" stroke-linecap="round" stroke-miterlimit="4" stroke-width="2.2857" d="M22.667 24h-18.667"></path>
</symbol>
<symbol id="icon-study-1" viewBox="0 0 37 32">
<path fill="#4744c9" style="fill: var(--color1, #4744c9)" d="M36.195 14.497c-1.1-8.598-10.356-15.514-18.888-14.374-0.204 0.027-0.406 0.060-0.607 0.096-0.028-0.044-0.069-0.078-0.117-0.097s-0.101-0.024-0.152-0.012c-1.254 0.252-2.5 0.536-3.706 0.901-5.090 0.976-9.723 3.814-11.766 8.854-3.268 8.062 2.252 17.725 9.927 20.798 0.179 0.072 0.36 0.139 0.541 0.204 2.329 1.036 4.909 1.372 7.426 0.967 4.119-0.293 8.058-1.807 11.312-4.35 1.094-0.866 2.050-1.893 2.835-3.047 2.35-2.63 3.698-6.001 3.195-9.94zM35.765 15.292c0.171 2.121-0.272 4.247-1.274 6.125 0.21-0.63 0.365-1.277 0.463-1.934 0.369-2.502-0.109-5.040-1.096-7.368-0.358-1.794-1.102-3.489-2.18-4.967-2.423-3.329-6.266-5.227-10.216-6.058-1.37-0.285-2.765-0.441-4.164-0.465 8.572-1.161 17.726 5.999 18.467 14.667zM30.082 26.445c-1.135 0.825-2.362 1.516-3.655 2.061 3.774-2.834 6.612-7.071 7.456-11.568 0.155-0.827 0.229-1.668 0.219-2.51 0.562 2.186 0.62 4.482-0.034 6.674-0.343 1.125-0.866 2.188-1.55 3.145-0.734 0.815-1.55 1.552-2.436 2.198v0zM17.458 31.363c-2.090 0.033-4.167-0.339-6.116-1.096-1.41-0.702-2.675-1.662-3.732-2.83 0.077 0.060 0.152 0.123 0.23 0.182 3.716 2.771 8.512 3.479 13.029 2.901 0.475-0.061 0.95-0.139 1.427-0.235-1.046 0.451-2.14 0.784-3.26 0.993-0.526 0.047-1.052 0.077-1.577 0.086h0zM16.446 30.141c-3.83-0.262-7.445-1.748-10.095-4.559-0.146-0.154-0.286-0.313-0.422-0.473-0.072-0.129-0.143-0.258-0.211-0.39-3.691-7.113-1.23-16.635 5.062-21.366 2.774-1.304 5.708-2.119 8.916-1.803 4.869 0.478 9.173 3.623 11.923 7.548 0.71 1.013 1.308 2.1 1.783 3.242 0.977 5.57-2.261 11.521-6.611 15.164-0.789 0.661-1.63 1.256-2.516 1.779-2.537 0.749-5.188 1.040-7.828 0.86h0zM14.807 1.212c0.331-0.029 0.662-0.050 0.994-0.063-0.717 0.121-1.425 0.289-2.121 0.502 0.297-0.131 0.6-0.253 0.909-0.365 0.072-0.026 0.145-0.049 0.218-0.074zM10.58 2.867c-1.473 0.714-2.904 1.512-4.287 2.389 0.034-0.038 0.065-0.077 0.099-0.115 1.726-1.893 4.024-2.945 6.438-3.652-0.79 0.392-1.543 0.853-2.251 1.378zM5.399 6.376c0.053 0.003 0.106-0.011 0.15-0.041 1.091-0.697 2.197-1.38 3.326-2.005-3.67 3.628-5.662 9.040-5.327 14.288 0.092 1.436 0.372 2.854 0.831 4.217-1.141-2.177-1.75-4.593-1.779-7.051-0.068-3.322 0.864-6.703 2.798-9.408h0zM25.951 3.138c2.144 1.023 4.004 2.555 5.421 4.462 0.451 0.618 0.841 1.279 1.163 1.973-0.296-0.477-0.61-0.939-0.94-1.383-1.518-2.050-3.438-3.769-5.644-5.051v0zM0.582 14.777c-0.048-4.823 2.666-8.98 6.786-11.334 0.324-0.185 0.654-0.358 0.989-0.518-1.227 0.762-2.308 1.736-3.192 2.878-2.594 3.363-3.46 7.923-2.923 12.074 0.359 2.761 1.491 5.365 3.264 7.512 0.593 1.066 1.33 2.045 2.19 2.91-0.519-0.367-1.018-0.763-1.493-1.185-1.732-1.562-3.124-3.463-4.091-5.585s-1.487-4.421-1.529-6.752zM23.055 30.533c0.576-0.268 1.137-0.565 1.681-0.892 1.519-0.494 2.976-1.161 4.343-1.988-0.504 0.363-1.027 0.7-1.566 1.009-1.405 0.802-2.902 1.43-4.459 1.87v0z"></path>
<path fill="#4744c9" style="fill: var(--color1, #4744c9)" d="M28.098 8.573c-0.017-0.047-0.042-0.090-0.076-0.126-0.004-0.037-0.016-0.073-0.035-0.106s-0.044-0.061-0.074-0.083c-0.030-0.022-0.065-0.038-0.101-0.046s-0.075-0.009-0.111-0.002c-2.923 0.361-5.923 0.152-8.866 0.166-0.060-0.575-0.085-1.153-0.075-1.732 0.010-0.423-0.634-0.389-0.651 0.026-0.027 0.571-0.013 1.143 0.041 1.712-1.445 0.016-2.89 0.044-4.335 0.084-0.751 0.021-1.501 0.046-2.25 0.075-0.709-0.033-1.419-0-2.122 0.099-0.745 0.178-0.731 1.295-0.281 1.786 0.309 0.339 0.697 0.27 1.105 0.209 0.004 1.189 0.012 2.378 0.024 3.567l-0.026 0.036c-0.014 0.017-0.024 0.037-0.029 0.058s-0.008 0.043-0.005 0.065c0.003 0.022 0.009 0.043 0.020 0.061s0.025 0.036 0.042 0.049c0.014 1.447 0.030 2.894 0.048 4.341 0.007 0.643-0.004 1.29 0.019 1.934-0.030 0.4 0.089 0.796 0.335 1.112 0.248 0.214 0.568 0.324 0.895 0.309 0.746 0.053 1.501 0.054 2.249 0.072 1.055 0.024 2.111 0.040 3.168 0.047-0.948 1.030-1.914 2.049-2.818 3.115-0.055 0.064-0.083 0.146-0.078 0.23s0.042 0.162 0.104 0.219c0.062 0.057 0.143 0.088 0.227 0.086s0.164-0.037 0.223-0.096c1.086-1.138 2.106-2.349 3.152-3.525l0.015-0.022c0.135 0 0.27 0.003 0.404 0.003 0.023 1.173 0.071 2.344 0.146 3.514 0.028 0.424 0.688 0.398 0.658-0.026-0.082-1.162-0.14-2.325-0.172-3.488 0.211 0 0.422-0 0.633-0.001 0.009 0.019 0.020 0.037 0.034 0.053 1.080 1.352 2.28 2.603 3.585 3.739 0.062 0.054 0.143 0.081 0.225 0.077s0.159-0.041 0.215-0.102c0.056-0.061 0.086-0.14 0.084-0.223s-0.036-0.161-0.095-0.218c-1.122-1.096-2.252-2.163-3.302-3.327 0.674-0.002 1.35-0.008 2.025-0.016 1.241-0.017 2.556 0.067 3.776-0.196 0.39-0.040 0.755-0.207 1.041-0.475 0.304-0.38 0.209-0.948 0.199-1.394-0.073-3.146-0.145-6.292-0.218-9.438 1.286-0.074 1.397-1.197 1.026-2.204l-0 0zM13.784 20.082c-0.462 0.453-0.923 0.907-1.378 1.367l-0.426-0.010c-0.358-0.008-0.737-0.036-0.875-0.401-0.005-0.015-0.010-0.030-0.015-0.046 0.647-0.559 1.248-1.178 1.852-1.787 0.028 0.031 0.062 0.055 0.1 0.072s0.079 0.026 0.12 0.026c0.041 0 0.082-0.008 0.12-0.025s0.072-0.041 0.1-0.071c1.001-1.039 2-2.081 2.998-3.125l0.747-0.783c0.126-0.13 0.25-0.261 0.375-0.391 0.105-0.218 0.214-0.207 0.326 0.035 0.278 0.222 0.526 0.477 0.739 0.762 0.245 0.254 0.492 0.507 0.739 0.762 0.219 0.224 0.479 0.623 0.85 0.533 0.456-0.112 0.918-0.822 1.233-1.138 1.035-1.039 2.119-2.048 3.101-3.136 0.057-0.066 0.086-0.152 0.081-0.239s-0.044-0.169-0.108-0.228-0.148-0.091-0.236-0.089c-0.087 0.002-0.17 0.038-0.231 0.099l0 0c-1.083 0.989-2.086 2.078-3.12 3.118-0.225 0.292-0.486 0.555-0.777 0.782 0.094 0.238 0.047 0.23-0.14-0.022l-0.373-0.378c-0.465-0.533-0.962-1.038-1.489-1.511-0.29-0.228-0.526-0.296-0.837-0.056-0.491 0.442-0.948 0.921-1.366 1.433-0.864 0.914-1.726 1.83-2.586 2.747-0.045-0.023-0.095-0.030-0.145-0.022s-0.095 0.032-0.129 0.069c-0.652 0.644-1.339 1.27-1.968 1.943 0.001-0.024 0.001-0.048 0-0.070-0.010-0.57-0.016-1.14-0.023-1.709 1.034-0.906 1.955-1.932 2.744-3.058 0.173-0.238-0.165-0.553-0.339-0.313-0.744 0.992-1.549 1.935-2.412 2.825l-0.021-1.643c0.938-1.015 1.76-2.15 2.62-3.229 0.175-0.22-0.146-0.519-0.323-0.297-0.768 0.962-1.582 1.904-2.305 2.904-0.008-0.604-0.016-1.209-0.025-1.813 0.756-0.776 1.444-1.621 2.156-2.435 0.193-0.221-0.141-0.53-0.335-0.309-0.609 0.695-1.242 1.376-1.83 2.091-0.014-0.919-0.030-1.837-0.049-2.756 0.578-0.045 1.159-0.042 1.739-0.032 3.087 0.047 6.175 0.101 9.264 0.162 1.446 0.025 2.926 0.138 4.38 0.112 0.054 2.352 0.108 4.704 0.163 7.056 0.012 0.561 0.025 1.122 0.039 1.684 0.014 0.634 0.22 1.468-0.457 1.759l-0-0c-0.519 0.15-1.059 0.209-1.598 0.175-0.598 0.019-1.195 0.026-1.792 0.035-2.39 0.037-4.78 0.037-7.17-0-0.83-0.013-1.66-0.029-2.489-0.048 0.375-0.354 0.746-0.712 1.117-1.071 0.212-0.205-0.126-0.518-0.338-0.311zM26.676 10.046c-0.609-0.006-1.216-0.020-1.824-0.031-1.264-0.021-2.529-0.043-3.792-0.065-2.481-0.042-4.962-0.084-7.442-0.125-0.6-0.010-1.201-0.027-1.802-0.022-0.576 0.006-1.207 0.183-1.77 0.151-0.221-0.012-0.26 0.172-0.434-0.175-0.035-0.101-0.046-0.209-0.034-0.315 0.078-0.208 0.224-0.146 0.465-0.156 0.655-0.029 1.312-0.056 1.97-0.080 2.485-0.091 4.972-0.145 7.46-0.163 2.649-0.018 5.342 0.149 7.979-0.162 0.074 0.173 0.121 0.356 0.138 0.543 0.014 0.521-0.488 0.605-0.914 0.6z"></path>
</symbol>
<symbol id="icon-study-2" viewBox="0 0 37 32">
<path fill="#4744c9" style="fill: var(--color1, #4744c9)" d="M36.195 14.497c-1.1-8.598-10.356-15.514-18.888-14.374-0.204 0.027-0.406 0.060-0.607 0.096-0.028-0.044-0.069-0.078-0.117-0.097s-0.101-0.024-0.152-0.012c-1.254 0.252-2.5 0.536-3.706 0.901-5.090 0.976-9.723 3.814-11.766 8.854-3.268 8.062 2.252 17.725 9.927 20.798 0.179 0.072 0.36 0.139 0.541 0.204 2.329 1.036 4.909 1.372 7.426 0.967 4.119-0.293 8.058-1.807 11.312-4.35 1.094-0.866 2.050-1.893 2.835-3.047 2.35-2.63 3.698-6.001 3.195-9.94zM35.765 15.292c0.171 2.121-0.272 4.247-1.274 6.125 0.21-0.63 0.365-1.277 0.463-1.934 0.369-2.502-0.109-5.040-1.096-7.368-0.358-1.794-1.102-3.489-2.18-4.967-2.423-3.329-6.266-5.227-10.216-6.058-1.37-0.285-2.765-0.441-4.164-0.465 8.572-1.161 17.726 5.999 18.467 14.667zM30.082 26.445c-1.135 0.825-2.362 1.516-3.655 2.061 3.774-2.834 6.612-7.071 7.456-11.568 0.155-0.827 0.229-1.668 0.219-2.51 0.562 2.186 0.62 4.482-0.034 6.674-0.343 1.125-0.866 2.188-1.55 3.145-0.734 0.815-1.55 1.552-2.436 2.198v0zM17.458 31.363c-2.090 0.033-4.167-0.339-6.116-1.096-1.41-0.702-2.675-1.662-3.732-2.83 0.077 0.060 0.152 0.123 0.23 0.182 3.716 2.771 8.512 3.479 13.029 2.901 0.475-0.061 0.95-0.139 1.427-0.235-1.046 0.451-2.14 0.784-3.26 0.993-0.526 0.047-1.052 0.077-1.577 0.086h0zM16.446 30.141c-3.83-0.262-7.445-1.748-10.095-4.559-0.146-0.154-0.286-0.313-0.422-0.473-0.072-0.129-0.143-0.258-0.211-0.39-3.691-7.113-1.23-16.635 5.062-21.366 2.774-1.304 5.708-2.119 8.916-1.803 4.869 0.478 9.173 3.623 11.923 7.548 0.71 1.013 1.308 2.1 1.783 3.242 0.977 5.57-2.261 11.521-6.611 15.164-0.789 0.661-1.63 1.256-2.516 1.779-2.537 0.749-5.188 1.040-7.828 0.86h0zM14.807 1.212c0.331-0.029 0.662-0.050 0.994-0.063-0.717 0.121-1.425 0.289-2.121 0.502 0.297-0.131 0.6-0.253 0.909-0.365 0.072-0.026 0.145-0.049 0.218-0.074zM10.58 2.867c-1.473 0.714-2.904 1.512-4.287 2.389 0.034-0.038 0.065-0.077 0.099-0.115 1.726-1.893 4.024-2.945 6.438-3.652-0.79 0.392-1.543 0.853-2.251 1.378zM5.399 6.376c0.053 0.003 0.106-0.011 0.15-0.041 1.091-0.697 2.197-1.38 3.326-2.005-3.67 3.628-5.662 9.040-5.327 14.288 0.092 1.436 0.372 2.854 0.831 4.217-1.141-2.177-1.75-4.593-1.779-7.051-0.068-3.322 0.864-6.703 2.798-9.408h0zM25.951 3.138c2.144 1.023 4.004 2.555 5.421 4.462 0.451 0.618 0.841 1.279 1.163 1.973-0.296-0.477-0.61-0.939-0.94-1.383-1.518-2.050-3.438-3.769-5.644-5.051v0zM0.582 14.777c-0.048-4.823 2.666-8.98 6.786-11.334 0.324-0.185 0.654-0.358 0.989-0.518-1.227 0.762-2.308 1.736-3.192 2.878-2.594 3.363-3.46 7.923-2.923 12.074 0.359 2.761 1.491 5.365 3.264 7.512 0.593 1.066 1.33 2.045 2.19 2.91-0.519-0.367-1.018-0.763-1.493-1.185-1.732-1.562-3.124-3.463-4.091-5.585s-1.487-4.421-1.529-6.752zM23.055 30.533c0.576-0.268 1.137-0.565 1.681-0.892 1.519-0.494 2.976-1.161 4.343-1.988-0.504 0.363-1.027 0.7-1.566 1.009-1.405 0.802-2.902 1.43-4.459 1.87v0z"></path>
<path fill="#4744c9" style="fill: var(--color1, #4744c9)" d="M28.556 20.28c-0.071-0.446-0.182-0.889-0.273-1.331-0.009-0.065-0.044-0.125-0.097-0.166s-0.12-0.060-0.188-0.054c-0.641 0.074-1.281 0.147-1.921 0.218 0.025-0.052 0.033-0.11 0.022-0.166-0.379-2.253-0.61-4.527-0.691-6.809-0.020-0.57-0.030-1.141-0.031-1.711-0.001-0.359 0.068-0.774-0.212-1.057-0.107-0.090-0.231-0.157-0.365-0.199s-0.276-0.057-0.416-0.044c-0.526-0.008-1.061 0.058-1.586 0.089-4.7 0.289-9.455 0.595-14.112 1.286-0.071 0.009-0.135 0.045-0.179 0.1s-0.065 0.124-0.058 0.193c0.323 3.281 0.619 6.564 0.944 9.845 0.003 0.034 0.014 0.067 0.033 0.096-0.454 0.038-0.906 0.075-1.359 0.113-0.035-0.028-0.078-0.046-0.123-0.051s-0.091 0.002-0.131 0.022c-0.041 0.019-0.075 0.050-0.098 0.087s-0.036 0.081-0.035 0.125c0.025 0.658 0.051 1.316 0.076 1.974 0.008 0.059 0.039 0.113 0.087 0.15s0.109 0.054 0.17 0.048c4.048-0.458 8.103-0.861 12.163-1.207 2.011-0.169 4.023-0.323 6.038-0.46 0.485-0.032 0.97-0.060 1.455-0.095 0.293-0.021 0.617-0.019 0.802-0.279 0.121-0.22 0.151-0.477 0.083-0.718zM13.531 11.426c-0.511 0.052-1.022 0.102-1.533 0.151-0.011 0.020-0.024 0.038-0.040 0.053-0.335 0.318-0.641 0.662-0.915 1.030-0.257 0.345-0.438 0.742-0.701 1.080l-0.001 0.001 0.122 1.258c0.446-0.6 0.992-1.161 1.469-1.72 0.53-0.62 1.063-1.238 1.599-1.852zM10.526 15.647c0.054 0.559 0.109 1.117 0.164 1.676 0.325-0.451 0.674-0.885 1.046-1.301 0.468-0.59 0.942-1.176 1.423-1.756 0.867-1.041 1.754-2.066 2.66-3.074-0.594 0.061-1.188 0.122-1.782 0.182l-0.004 0.005c-0.593 0.714-1.183 1.432-1.769 2.153-0.538 0.736-1.118 1.442-1.737 2.115zM23.874 17.132l-0.001-0.007c-0.031-0.408-0.062-0.815-0.093-1.222-0.384 0.5-0.769 1.001-1.153 1.502-0.151 0.196-0.299 0.395-0.45 0.591 0.291-0.022 0.582-0.037 0.874-0.041 0.131-0.108 0.279-0.196 0.404-0.312 0.162-0.151 0.303-0.323 0.419-0.51zM23.737 17.961c0.048-0.009 0.092-0.032 0.125-0.067s0.054-0.079 0.060-0.127c-0.038 0.044-0.078 0.086-0.119 0.128-0.022 0.022-0.044 0.044-0.066 0.066zM23.653 15.357c0.021-0.028 0.049-0.050 0.081-0.065-0.041-0.539-0.082-1.078-0.123-1.617-0.541 0.746-1.088 1.487-1.642 2.223-0.347 0.46-0.693 0.921-1.040 1.381-0.224 0.297-0.437 0.621-0.674 0.918l0.443-0.052c0.277-0.032 0.555-0.064 0.833-0.092 0.162-0.178 0.305-0.41 0.432-0.57 0.175-0.22 0.35-0.44 0.525-0.66l1.166-1.466zM21.326 18.601c0.039 0.025 0.085 0.037 0.131 0.034 0.084-0.004 0.166-0.029 0.237-0.073 0.636-0.071 1.277-0.097 1.917-0.079 0.242 0.009 0.588 0.096 0.774-0.116 0.208-0.24 0.070-0.701 0.048-0.982-0.179-2.35-0.357-4.699-0.536-7.049h0c-0.010-0.069-0.047-0.131-0.102-0.174s-0.127-0.063-0.197-0.057c-2.314 0.033-4.625 0.19-6.922 0.472-2.239 0.223-4.483 0.424-6.717 0.689-0.045-0.019-0.095-0.026-0.143-0.021s-0.095 0.023-0.135 0.050c-0.040 0.028-0.072 0.065-0.092 0.109s-0.029 0.091-0.026 0.139c0.209 2.064 0.417 4.129 0.623 6.195 0.053 0.536-0.107 1.747 0.644 1.86 0.471 0.025 0.943 0.001 1.409-0.071 0.554-0.038 1.109-0.081 1.663-0.128 2.144-0.183 4.28-0.432 6.417-0.68 0.335-0.039 0.67-0.080 1.007-0.117zM23.562 13.030c-0.671 0.889-1.352 1.77-2.030 2.654-0.331 0.432-0.663 0.863-0.994 1.295-0.351 0.412-0.675 0.846-0.969 1.299-0.385 0.045-0.771 0.089-1.156 0.134 0.48-0.525 0.907-1.093 1.276-1.696 0.448-0.623 0.896-1.246 1.342-1.87 0.809-1.128 1.61-2.262 2.412-3.394l0.12 1.58zM23.386 10.852c-0.911 1.234-1.826 2.466-2.731 3.705-0.453 0.619-0.905 1.239-1.357 1.859-0.473 0.55-0.887 1.145-1.235 1.777-0.017 0.044-0.018 0.093-0.004 0.138s0.043 0.085 0.082 0.112c-0.559 0.063-1.119 0.125-1.679 0.184 0.472-0.57 0.875-1.211 1.31-1.806 0.505-0.691 1.012-1.379 1.522-2.066 1.001-1.348 2.009-2.692 3.022-4.031 0.018-0.023 0.031-0.050 0.038-0.079 0.342-0.011 0.684-0.017 1.026-0.018l0.016 0.213-0.009 0.012zM21.838 10.665c-1 1.287-1.989 2.582-2.967 3.885-0.494 0.659-0.985 1.321-1.473 1.984-0.527 0.659-1.018 1.345-1.472 2.053-0.018 0.030-0.028 0.064-0.028 0.098-0.28 0.029-0.559 0.056-0.839 0.083-0.295 0.028-0.59 0.055-0.884 0.082 0.072-0.080 0.148-0.155 0.193-0.211 0.121-0.15 0.241-0.3 0.361-0.45 0.281-0.35 0.562-0.7 0.843-1.049 0.582-0.725 1.165-1.45 1.747-2.174 1.125-1.407 2.245-2.817 3.359-4.232 0.386-0.028 0.773-0.050 1.16-0.069zM20.143 10.774c-1.155 1.395-2.303 2.794-3.446 4.199l-1.819 2.241c-0.303 0.373-0.606 0.747-0.909 1.12-0.172 0.167-0.316 0.359-0.427 0.57-0.414 0.034-0.829 0.065-1.243 0.094 0.557-0.646 1.080-1.319 1.568-2.016 0.499-0.651 1.002-1.3 1.507-1.947 1.050-1.343 2.103-2.684 3.177-4.008 0.027-0.032 0.042-0.072 0.043-0.113 0.516-0.050 1.032-0.098 1.548-0.139zM18.106 10.961c-1.063 1.281-2.121 2.565-3.154 3.868-0.53 0.668-1.056 1.338-1.579 2.012-0.544 0.641-1.042 1.316-1.493 2.022-0.019 0.028-0.028 0.061-0.027 0.094s0.013 0.065 0.034 0.092c-0.372 0.052-0.841 0.104-0.985-0.031-0.158-0.148-0.164-0.658-0.168-1.029 0.016-0.007 0.031-0.016 0.045-0.027 0.509-0.498 0.957-1.051 1.334-1.649 0.463-0.594 0.932-1.183 1.407-1.768 0.934-1.152 1.887-2.288 2.858-3.41l0.358-0.036c0.456-0.046 0.912-0.092 1.369-0.138v-0zM11.399 11.632c-0.233 0.224-0.453 0.461-0.658 0.71-0.156 0.191-0.328 0.398-0.476 0.616-0.040-0.405-0.079-0.811-0.119-1.217 0.418-0.035 0.835-0.071 1.253-0.109zM25.979 19.874l0 0c-2.409-0.020-4.814 0.192-7.18 0.634-0.29 0.048-0.24 0.488 0.054 0.444 2.371-0.354 4.73-0.458 7.117-0.623 0.261-0.017 0.278-0.447 0.009-0.455zM9.852 20.421c-0.27-3.196-0.568-6.389-0.843-9.584 4.176-0.365 8.335-0.85 12.521-1.128 0.556-0.037 1.113-0.072 1.67-0.106 0.36-0.021 1.418-0.269 1.587 0.161 0.026 0.187 0.026 0.377 0 0.565 0.001 0.285 0.003 0.57 0.008 0.855 0.008 0.499 0.024 0.998 0.049 1.498 0.098 2.067 0.32 4.126 0.663 6.168 0.009 0.058 0.036 0.111 0.077 0.154-5.243 0.583-10.494 1.094-15.752 1.534 0.017-0.036 0.024-0.076 0.020-0.115l-0-0zM27.834 20.766c-0.257 0.057-0.521 0.073-0.783 0.050-0.895 0.059-1.79 0.121-2.685 0.186-1.828 0.132-3.654 0.278-5.477 0.439-3.568 0.313-7.129 0.687-10.682 1.12-0.022-0.459-0.044-0.918-0.066-1.377 6.571-0.531 13.132-1.175 19.682-1.93 0.062 0.298 0.124 0.596 0.183 0.894 0.045 0.232 0.095 0.473-0.172 0.618v0z"></path>
</symbol>
<symbol id="icon-study-3" viewBox="0 0 37 32">
<path fill="#4744c9" style="fill: var(--color1, #4744c9)" d="M36.195 14.497c-1.1-8.598-10.356-15.514-18.888-14.374-0.204 0.027-0.406 0.060-0.607 0.096-0.028-0.044-0.069-0.078-0.117-0.097s-0.101-0.024-0.152-0.012c-1.254 0.252-2.5 0.536-3.706 0.901-5.090 0.976-9.723 3.814-11.766 8.854-3.268 8.062 2.252 17.725 9.927 20.798 0.179 0.072 0.36 0.139 0.541 0.204 2.329 1.036 4.909 1.372 7.426 0.967 4.119-0.293 8.058-1.807 11.312-4.35 1.094-0.866 2.050-1.893 2.835-3.047 2.35-2.63 3.698-6.001 3.195-9.94zM35.765 15.292c0.171 2.121-0.272 4.247-1.274 6.125 0.21-0.63 0.365-1.277 0.463-1.934 0.369-2.502-0.109-5.040-1.096-7.368-0.358-1.794-1.102-3.489-2.18-4.967-2.423-3.329-6.266-5.227-10.216-6.058-1.37-0.285-2.765-0.441-4.164-0.465 8.572-1.161 17.726 5.999 18.467 14.667zM30.082 26.445c-1.135 0.825-2.362 1.516-3.655 2.061 3.774-2.834 6.612-7.071 7.456-11.568 0.155-0.827 0.229-1.668 0.219-2.51 0.562 2.186 0.62 4.482-0.034 6.674-0.343 1.125-0.866 2.188-1.55 3.145-0.734 0.815-1.55 1.552-2.436 2.198v0zM17.458 31.363c-2.090 0.033-4.167-0.339-6.116-1.096-1.41-0.702-2.675-1.662-3.732-2.83 0.077 0.060 0.152 0.123 0.23 0.182 3.716 2.771 8.512 3.479 13.029 2.901 0.475-0.061 0.95-0.139 1.427-0.235-1.046 0.451-2.14 0.784-3.26 0.993-0.526 0.047-1.052 0.077-1.577 0.086h0zM16.446 30.141c-3.83-0.262-7.445-1.748-10.095-4.559-0.146-0.154-0.286-0.313-0.422-0.473-0.072-0.129-0.143-0.258-0.211-0.39-3.691-7.113-1.23-16.635 5.062-21.366 2.774-1.304 5.708-2.119 8.916-1.803 4.869 0.478 9.173 3.623 11.923 7.548 0.71 1.013 1.308 2.1 1.783 3.242 0.977 5.57-2.261 11.521-6.611 15.164-0.789 0.661-1.63 1.256-2.516 1.779-2.537 0.749-5.188 1.040-7.828 0.86h0zM14.807 1.212c0.331-0.029 0.662-0.050 0.994-0.063-0.717 0.121-1.425 0.289-2.121 0.502 0.297-0.131 0.6-0.253 0.909-0.365 0.072-0.026 0.145-0.049 0.218-0.074zM10.58 2.867c-1.473 0.714-2.904 1.512-4.287 2.389 0.034-0.038 0.065-0.077 0.099-0.115 1.726-1.893 4.024-2.945 6.438-3.652-0.79 0.392-1.543 0.853-2.251 1.378zM5.399 6.376c0.053 0.003 0.106-0.011 0.15-0.041 1.091-0.697 2.197-1.38 3.326-2.005-3.67 3.628-5.662 9.040-5.327 14.288 0.092 1.436 0.372 2.854 0.831 4.217-1.141-2.177-1.75-4.593-1.779-7.051-0.068-3.322 0.864-6.703 2.798-9.408h0zM25.951 3.138c2.144 1.023 4.004 2.555 5.421 4.462 0.451 0.618 0.841 1.279 1.163 1.973-0.296-0.477-0.61-0.939-0.94-1.383-1.518-2.050-3.438-3.769-5.644-5.051v0zM0.582 14.777c-0.048-4.823 2.666-8.98 6.786-11.334 0.324-0.185 0.654-0.358 0.989-0.518-1.227 0.762-2.308 1.736-3.192 2.878-2.594 3.363-3.46 7.923-2.923 12.074 0.359 2.761 1.491 5.365 3.264 7.512 0.593 1.066 1.33 2.045 2.19 2.91-0.519-0.367-1.018-0.763-1.493-1.185-1.732-1.562-3.124-3.463-4.091-5.585s-1.487-4.421-1.529-6.752zM23.055 30.533c0.576-0.268 1.137-0.565 1.681-0.892 1.519-0.494 2.976-1.161 4.343-1.988-0.504 0.363-1.027 0.7-1.566 1.009-1.405 0.802-2.902 1.43-4.459 1.87v0z"></path>
<path fill="#4744c9" style="fill: var(--color1, #4744c9)" d="M25.864 22.516c-0.021-1.027-0.276-2.099-1.080-2.8-0.825-0.719-1.934-0.887-2.981-1.040-0.058-0.027-0.123-0.032-0.185-0.014-0.016 0.002-0.032 0.004-0.048 0.008-0.8-0.138-1.226-0.807-1.307-1.623-0.004-0.042-0.020-0.083-0.044-0.118 1.266-0.862 2.026-2.593 2.169-4.060 0.019-0.026 0.033-0.055 0.041-0.086 0.467-1.815 0.504-4.658-1.299-5.791l-0.001-0c-0.908-0.571-2.041-0.641-3.083-0.569-0.994 0.069-2.048 0.31-2.742 1.080-0.679 0.754-0.738 1.864-0.77 2.831-0.040 1.16 0.105 2.318 0.43 3.432 0.314 1.059 0.9 2.298 1.797 3.042-0.031 0.441-0.213 0.857-0.515 1.18s-0.706 0.531-1.144 0.59c-0.035 0.003-0.068 0.014-0.098 0.032s-0.056 0.042-0.075 0.071c-1.728 0.598-3.459 1.46-3.771 3.457-0.071 0.506-0.082 1.019-0.031 1.528 0.034 0.423 0.031 0.978 0.285 1.343 0.529 0.762 1.945 0.528 2.718 0.542 0.741 0.013 1.483 0.021 2.226 0.025 0.020 0.010 0.042 0.016 0.064 0.016s0.044-0.005 0.064-0.015c0.656 0.003 1.311 0.003 1.967-0 0.034 0.006 0.069 0.005 0.103-0.001h0.004c1.14-0.007 2.28-0.025 3.421-0.052 0.015 0.022 0.035 0.041 0.058 0.054s0.049 0.021 0.076 0.023c0.027 0.002 0.053-0.003 0.078-0.013s0.046-0.026 0.064-0.046c0.006-0.008 0.011-0.015 0.017-0.023l0.011-0c0.222-0.006 0.445-0.012 0.668-0.018 0.013 0.022 0.030 0.040 0.050 0.054s0.044 0.023 0.069 0.027c0.025 0.004 0.050 0.002 0.074-0.005s0.046-0.019 0.065-0.036c0.016-0.016 0.030-0.033 0.046-0.050 0.313-0.009 0.626-0.020 0.939-0.033 0.457-0.018 0.943-0.019 1.26-0.397 0.509-0.608 0.432-1.804 0.415-2.543zM20.485 18.712c0.265 0.209 0.572 0.357 0.901 0.432 0.005 0.007 0.010 0.013 0.015 0.021-0.107 0.466-0.282 0.914-0.518 1.33-0.076-0.102-0.161-0.197-0.253-0.284-0.207-0.202-0.431-0.386-0.669-0.55 0.207-0.297 0.383-0.615 0.524-0.949zM19.619 20.378c0.046-0.078 0.087-0.159 0.123-0.241 0.112 0.085 0.22 0.173 0.324 0.268 0.158 0.142 0.292 0.325 0.45 0.465 0.031 0.049 0.079 0.086 0.135 0.103-0.216 0.443-0.44 0.883-0.671 1.317-0.177 0.332-0.364 0.658-0.553 0.982-0.043-0.248-0.095-0.494-0.126-0.742-0.056-0.456-0.085-0.914-0.098-1.373-0.001-0.012-0.001-0.021-0.003-0.033 0.14-0.248 0.282-0.495 0.419-0.745zM19.508 19.472c-0.244-0.066-0.5-0.077-0.749-0.033-0.274-0-0.548 0.024-0.817 0.073-0.391-0.466-0.751-0.958-1.076-1.472-0.007-0.010-0.014-0.019-0.022-0.027 0.188-0.266 0.312-0.571 0.362-0.892 0.499 0.291 1.082 0.408 1.655 0.331 0.301-0.037 0.595-0.12 0.871-0.248-0.001 0.41 0.135 0.809 0.387 1.133-0.208 0.369-0.375 0.756-0.581 1.125-0.010 0.003-0.020 0.006-0.030 0.010zM22.134 11.679c-0.063-0.295-0.108-0.593-0.135-0.894 0.070-0.106 0.132-0.216 0.187-0.33 0.014 0.409-0.003 0.818-0.052 1.224zM22.144 9.893c-0.027 0.015-0.049 0.038-0.062 0.065-0.054 0.106-0.114 0.212-0.172 0.321-0.045-0.191-0.12-0.373-0.224-0.539 0.139-0.142 0.255-0.305 0.345-0.482 0.049 0.21 0.087 0.421 0.113 0.635zM21.913 8.826c0.002 0.007 0.004 0.015 0.007 0.022-0.023 0.005-0.044 0.015-0.061 0.030s-0.031 0.034-0.040 0.056c-0.062 0.142-0.14 0.277-0.232 0.402-0.038 0.048-0.077 0.094-0.12 0.138-0.171-0.177-0.398-0.291-0.642-0.322 0.252-0.346 0.483-0.713 0.724-1.063 0.158 0.226 0.281 0.474 0.364 0.737zM21.332 7.82c-0.010 0.009-0.018 0.019-0.026 0.029-0.323 0.449-0.688 0.891-0.981 1.364-0.369 0.151-0.729 0.323-1.078 0.517 0.209-0.273 0.405-0.557 0.586-0.85 0.327-0.495 0.627-1.006 0.908-1.529 0.218 0.127 0.417 0.285 0.591 0.469zM18.716 6.86c0.173 0.006 0.344 0.016 0.508 0.031 0.067 0.006 0.132 0.016 0.197 0.025-0.551 0.823-1.082 1.658-1.602 2.501-0.132 0.213 0.214 0.406 0.341 0.189 0.517-0.89 1.063-1.763 1.625-2.625 0.229 0.050 0.452 0.123 0.666 0.218-0.256 0.461-0.526 0.912-0.819 1.35-0.342 0.424-0.652 0.873-0.928 1.342-0.001 0.004-0.003 0.008-0.003 0.012-0.019 0.003-0.037 0.006-0.056 0.008-0.533 0.047-0.949-0.254-1.361-0.549 0.196-0.272 0.361-0.573 0.546-0.847 0.308-0.456 0.628-0.905 0.958-1.345 0.018-0.025 0.030-0.053 0.036-0.082s0.005-0.060-0.001-0.090-0.020-0.057-0.038-0.081c-0.018-0.024-0.042-0.044-0.069-0.058zM17.662 6.898c0.301-0.035 0.605-0.049 0.908-0.043-0.023 0.013-0.042 0.030-0.058 0.051-0.297 0.389-0.586 0.783-0.868 1.183-0.254 0.332-0.49 0.678-0.708 1.034l-0.009-0.005c-0.127-0.084-0.27-0.143-0.419-0.173 0.381-0.655 0.747-1.32 1.131-1.959 0.017-0.026 0.025-0.057 0.023-0.088zM15.941 7.513c0.051-0.038 0.104-0.073 0.157-0.107-0.383 0.467-0.719 0.97-1.002 1.503 0.107-0.551 0.406-1.046 0.845-1.396zM14.96 11.008c-0.029-0.574-0.008-1.149 0.063-1.719 0.010 0.020 0.025 0.037 0.043 0.049s0.040 0.020 0.062 0.021c0.022 0.001 0.044-0.003 0.064-0.013s0.037-0.024 0.050-0.043c0.418-0.569 0.753-1.194 1.181-1.758 0.016-0.022 0.028-0.048 0.033-0.075s0.005-0.055-0.002-0.082c-0.007-0.027-0.019-0.052-0.036-0.074s-0.039-0.039-0.064-0.052c0.295-0.143 0.608-0.246 0.93-0.306-0.465 0.75-0.969 1.497-1.433 2.26-0.047 0.062-0.088 0.129-0.12 0.2-0.217 0.364-0.424 0.732-0.61 1.106-0.019 0.037-0.023 0.080-0.011 0.119s0.039 0.073 0.075 0.093c0.036 0.020 0.079 0.025 0.119 0.014s0.074-0.037 0.095-0.072c0.021-0.029 0.041-0.060 0.062-0.089-0.066 0.457-0.217 0.897-0.446 1.297-0.031-0.309-0.049-0.604-0.057-0.878zM15.116 12.633c0.033-0.017 0.063-0.039 0.088-0.067 0.633-0.689 0.752-1.55 0.916-2.438 0.051-0.281 0.044-0.621 0.543-0.531 0.191 0.035 0.475 0.344 0.647 0.45 0.301 0.209 0.644 0.348 1.005 0.409 0.375 0.038 0.752-0.041 1.080-0.226 0.532-0.269 1.301-0.933 1.819-0.234 0.542 0.729 0.188 1.791 0.749 2.551 0.006 0.009 0.013 0.018 0.021 0.026-0.007 0.031-0.014 0.062-0.020 0.094-0.008 0.032-0.009 0.065-0.003 0.098s0.019 0.063 0.038 0.090c-0.226 1.972-1.786 4.816-4.090 4.099-1.711-0.532-2.492-2.51-2.793-4.32zM16.495 18.41c0.263 0.492 0.602 0.94 1.003 1.328-0.499 0.29-0.964 0.636-1.386 1.030-0.185-0.607-0.329-1.227-0.47-1.844 0.315-0.113 0.605-0.288 0.853-0.514zM12.594 20.534c0.322-0.303 0.687-0.556 1.083-0.751-0.743 0.996-1.4 2.053-1.965 3.16 0.007-0.888 0.207-1.754 0.882-2.409zM11.741 23.651c-0-0.005-0.001-0.010-0.001-0.016 0.026-0.015 0.048-0.037 0.064-0.062 0.406-0.617 0.714-1.308 1.090-1.945 0.377-0.641 0.776-1.268 1.19-1.884 0.017-0.022 0.026-0.048 0.027-0.076s-0.008-0.054-0.024-0.077c0.383-0.167 0.78-0.307 1.167-0.441 0.017 0.076 0.036 0.152 0.053 0.228-0.034-0.010-0.070-0.009-0.103 0.004s-0.061 0.037-0.079 0.067c-1.063 1.71-2.228 3.395-3.209 5.156-0.119-0.304-0.179-0.628-0.176-0.955zM13.010 24.901c-0.015-0.001-0.029-0.001-0.044-0.001-0.251 0.016-0.504-0-0.751-0.049 1.134-1.667 2.113-3.467 3.16-5.189 0.087 0.351 0.182 0.699 0.286 1.043-0.031-0.003-0.063 0.003-0.091 0.017s-0.051 0.037-0.066 0.064c-0.442 0.729-0.884 1.458-1.326 2.188-0.386 0.637-0.819 1.266-1.169 1.927zM14.75 24.937c-0.109-0.002-0.217-0.004-0.325-0.006 0.608-0.823 1.090-1.78 1.62-2.649 0.115-0.189-0.183-0.352-0.3-0.166-0.572 0.913-1.271 1.832-1.731 2.807-0.183-0.004-0.367-0.007-0.55-0.011 0.367-0.571 0.689-1.182 1.033-1.761 0.421-0.71 0.843-1.42 1.264-2.13 0.212 0.661 0.474 1.305 0.786 1.926-0.028-0-0.056 0.006-0.081 0.019s-0.046 0.032-0.062 0.056c-0.467 0.606-0.885 1.248-1.25 1.92-0.135-0.002-0.27-0.002-0.404-0.004zM15.58 24.946c0.118-0.197 0.228-0.4 0.348-0.593 0.242-0.39 0.494-0.772 0.753-1.151 0.157 0.29 0.328 0.574 0.513 0.85-0.017-0.010-0.036-0.016-0.056-0.018s-0.040-0-0.058 0.005c-0.019 0.006-0.037 0.015-0.052 0.027s-0.028 0.028-0.037 0.045c-0.157 0.28-0.319 0.558-0.473 0.841-0.313-0.002-0.626-0.005-0.939-0.007zM16.879 24.955c0.131-0.23 0.258-0.461 0.387-0.691 0.014-0.024 0.021-0.051 0.020-0.079 0.186 0.268 0.386 0.526 0.6 0.772-0.336 0-0.672-0.001-1.007-0.002zM17.673 23.756c-0.362-0.442-0.679-0.918-0.949-1.422-0.171-0.343-0.32-0.696-0.447-1.058 0.025-0.012 0.048-0.027 0.069-0.046 0.401-0.351 0.82-0.669 1.247-0.982 0.028 0.067 0.059 0.133 0.086 0.197 0.107 0.256 0.214 0.514 0.328 0.768-0.114 0.837-0.275 1.696-0.335 2.543zM18.494 24.836c-0.128-0.183-0.262-0.361-0.397-0.536 0.188-0.983 0.319-1.977 0.392-2.975 0.043-0.034 0.073-0.080 0.087-0.133s0.011-0.108-0.009-0.159c-0.109-0.275-0.23-0.545-0.347-0.816-0.021-0.049-0.042-0.096-0.063-0.143 0.020-0.005 0.039-0.012 0.058-0.020 0.146 0.004 0.291-0.011 0.433-0.044 0.142-0.016 0.288-0.037 0.433-0.045 0.172-0.010 0.129-0.036 0.098 0.092-0.058 0.148-0.132 0.288-0.221 0.42-0.086 0.159-0.17 0.321-0.253 0.481-0.019 0.033-0.030 0.070-0.032 0.108s0.006 0.076 0.021 0.111c0.019 0.861 0.020 1.928 0.35 2.738-0.184 0.307-0.369 0.613-0.551 0.921zM19.060 24.953c0.578-0.914 1.109-1.857 1.592-2.825 0.436-0.848 1.065-1.836 1.233-2.817 0.187 0.020 0.379 0.044 0.571 0.074-0.494 0.853-0.988 1.705-1.482 2.558-0.514 0.887-1.171 1.794-1.554 2.744-0.060 0.149 0.132 0.342 0.253 0.186 0.615-0.798 1.053-1.791 1.549-2.669 0.52-0.92 1.040-1.841 1.56-2.761 0.272 0.054 0.539 0.133 0.798 0.235-0.011 0.009-0.021 0.020-0.029 0.031-0.623 0.889-1.221 1.794-1.796 2.715-0.278 0.446-0.549 0.895-0.814 1.348-0.248 0.368-0.462 0.758-0.64 1.165-0.413 0.005-0.827 0.011-1.24 0.014zM22.221 24.905c-0.171 0.003-0.341 0.007-0.512 0.010 0.754-1.358 1.576-2.677 2.463-3.952 0.135-0.194-0.186-0.368-0.32-0.177-0.946 1.329-1.817 2.711-2.608 4.138-0.177 0.003-0.354 0.008-0.531 0.010 0.205-0.312 0.36-0.668 0.541-0.987 0.259-0.457 0.524-0.909 0.796-1.358 0.562-0.928 1.155-1.836 1.77-2.73 0.012-0.018 0.021-0.038 0.025-0.059 0.274 0.135 0.521 0.319 0.729 0.544 0.142 0.158 0.262 0.335 0.356 0.526-0.869 1.366-1.833 2.674-2.708 4.034zM25.237 23.424c0.002 0.281-0.028 0.561-0.088 0.835-0.177 0.56-0.472 0.565-0.974 0.589-0.13 0.006-0.26 0.010-0.389 0.014 0.463-0.616 0.879-1.266 1.244-1.944 0.020-0.039 0.024-0.084 0.011-0.125s-0.041-0.076-0.079-0.098-0.083-0.026-0.125-0.015c-0.042 0.011-0.078 0.038-0.1 0.076-0.435 0.736-0.915 1.445-1.436 2.122-0.191 0.005-0.381 0.009-0.572 0.014 0.843-1.172 1.595-2.43 2.35-3.654 0.19 0.712 0.244 1.454 0.157 2.186z"></path>
</symbol>
<symbol id="icon-study-4" viewBox="0 0 37 32">
<path fill="#4744c9" style="fill: var(--color1, #4744c9)" d="M36.195 14.497c-1.1-8.598-10.356-15.514-18.888-14.374-0.204 0.027-0.406 0.060-0.607 0.096-0.028-0.044-0.069-0.078-0.117-0.097s-0.101-0.024-0.152-0.012c-1.254 0.252-2.5 0.536-3.706 0.901-5.090 0.976-9.723 3.814-11.766 8.854-3.268 8.062 2.252 17.725 9.927 20.798 0.179 0.072 0.36 0.139 0.541 0.204 2.329 1.036 4.909 1.372 7.426 0.967 4.119-0.293 8.058-1.807 11.312-4.35 1.094-0.866 2.050-1.893 2.835-3.047 2.35-2.63 3.698-6.001 3.195-9.94zM35.765 15.292c0.171 2.121-0.272 4.247-1.274 6.125 0.21-0.63 0.365-1.277 0.463-1.934 0.369-2.502-0.109-5.040-1.096-7.368-0.358-1.794-1.102-3.489-2.18-4.967-2.423-3.329-6.266-5.227-10.216-6.058-1.37-0.285-2.765-0.441-4.164-0.465 8.572-1.161 17.726 5.999 18.467 14.667zM30.082 26.445c-1.135 0.825-2.362 1.516-3.655 2.061 3.774-2.834 6.612-7.071 7.456-11.568 0.155-0.827 0.229-1.668 0.219-2.51 0.562 2.186 0.62 4.482-0.034 6.674-0.343 1.125-0.866 2.188-1.55 3.145-0.734 0.815-1.55 1.552-2.436 2.198v0zM17.458 31.363c-2.090 0.033-4.167-0.339-6.116-1.096-1.41-0.702-2.675-1.662-3.732-2.83 0.077 0.060 0.152 0.123 0.23 0.182 3.716 2.771 8.512 3.479 13.029 2.901 0.475-0.061 0.95-0.139 1.427-0.235-1.046 0.451-2.14 0.784-3.26 0.993-0.526 0.047-1.052 0.077-1.577 0.086h0zM16.446 30.141c-3.83-0.262-7.445-1.748-10.095-4.559-0.146-0.154-0.286-0.313-0.422-0.473-0.072-0.129-0.143-0.258-0.211-0.39-3.691-7.113-1.23-16.635 5.062-21.366 2.774-1.304 5.708-2.119 8.916-1.803 4.869 0.478 9.173 3.623 11.923 7.548 0.71 1.013 1.308 2.1 1.783 3.242 0.977 5.57-2.261 11.521-6.611 15.164-0.789 0.661-1.63 1.256-2.516 1.779-2.537 0.749-5.188 1.040-7.828 0.86h0zM14.807 1.212c0.331-0.029 0.662-0.050 0.994-0.063-0.717 0.121-1.425 0.289-2.121 0.502 0.297-0.131 0.6-0.253 0.909-0.365 0.072-0.026 0.145-0.049 0.218-0.074zM10.58 2.867c-1.473 0.714-2.904 1.512-4.287 2.389 0.034-0.038 0.065-0.077 0.099-0.115 1.726-1.893 4.024-2.945 6.438-3.652-0.79 0.392-1.543 0.853-2.251 1.378zM5.399 6.376c0.053 0.003 0.106-0.011 0.15-0.041 1.091-0.697 2.197-1.38 3.326-2.005-3.67 3.628-5.662 9.040-5.327 14.288 0.092 1.436 0.372 2.854 0.831 4.217-1.141-2.177-1.75-4.593-1.779-7.051-0.068-3.322 0.864-6.703 2.798-9.408h0zM25.951 3.138c2.144 1.023 4.004 2.555 5.421 4.462 0.451 0.618 0.841 1.279 1.163 1.973-0.296-0.477-0.61-0.939-0.94-1.383-1.518-2.050-3.438-3.769-5.644-5.051v0zM0.582 14.777c-0.048-4.823 2.666-8.98 6.786-11.334 0.324-0.185 0.654-0.358 0.989-0.518-1.227 0.762-2.308 1.736-3.192 2.878-2.594 3.363-3.46 7.923-2.923 12.074 0.359 2.761 1.491 5.365 3.264 7.512 0.593 1.066 1.33 2.045 2.19 2.91-0.519-0.367-1.018-0.763-1.493-1.185-1.732-1.562-3.124-3.463-4.091-5.585s-1.487-4.421-1.529-6.752zM23.055 30.533c0.576-0.268 1.137-0.565 1.681-0.892 1.519-0.494 2.976-1.161 4.343-1.988-0.504 0.363-1.027 0.7-1.566 1.009-1.405 0.802-2.902 1.43-4.459 1.87v0z"></path>
<path fill="#4744c9" style="fill: var(--color1, #4744c9)" d="M27.382 19.32c-1.131 0.011-2.261 0.023-3.392 0.035-0-0.012-0.001-0.024-0.003-0.036-0.104-0.601-0.239-1.198-0.36-1.797-0.035-0.401-0.157-0.789-0.357-1.138-0.475-0.646-1.427-0.969-2.183-1.109-0.019-0.038-0.047-0.071-0.082-0.095s-0.076-0.039-0.118-0.043c-0.042-0.004-0.085 0.003-0.124 0.020s-0.073 0.044-0.098 0.078c-0.234-0.075-0.451-0.196-0.639-0.355-0.237-0.158-0.423-0.381-0.536-0.643-0.008-0.019-0.019-0.036-0.031-0.053 0.976-0.721 1.461-2.339 1.664-3.384 0.167-0.846 0.191-1.714 0.072-2.568-0.112-0.777-0.482-1.121-1.189-1.424-1.203-0.514-3.582-0.797-4.168 0.762-0.015 0.038-0.019 0.079-0.011 0.119s0.027 0.077 0.055 0.106c-0.528 1.382-0.286 2.998 0.095 4.392 0.194 0.757 0.616 1.437 1.209 1.946-0.009 0.234-0.098 0.459-0.25 0.637-0.178 0.179-0.382 0.331-0.605 0.449-0.187-0.27-0.465-0.466-0.782-0.55-0.845-0.264-1.666 0.552-2.307 1.033-0.039-0.040-0.090-0.066-0.145-0.075s-0.111 0.002-0.16 0.029c-0.049 0.027-0.087 0.070-0.109 0.121s-0.026 0.108-0.012 0.162c0.070 0.245 0.161 0.483 0.27 0.713-0.252 0.128-0.502 0.265-0.747 0.409-0.003-0.035-0.005-0.070-0.007-0.106-0.027-0.352-0.579-0.343-0.552 0.012 0.010 0.137 0.022 0.274 0.033 0.411-0.349 0.215-0.696 0.433-1.041 0.644-0.047 0.031-0.080 0.079-0.092 0.134s-0.002 0.113 0.027 0.16c0.030 0.048 0.077 0.083 0.131 0.096s0.112 0.006 0.161-0.022c0.279-0.169 0.567-0.332 0.854-0.496 0.041 0.518 0.083 1.035 0.126 1.552 0.002 0.017 0.005 0.035 0.009 0.052-0.785 0.011-1.571 0.021-2.357 0.032-0.038 0.001-0.075 0.011-0.109 0.029s-0.063 0.043-0.085 0.074c-0.022 0.031-0.038 0.066-0.044 0.104s-0.004 0.076 0.006 0.113c0.135 0.412 0.208 0.841 0.218 1.274 0.006 0.275-0.021 0.333 0.195 0.492 0.508 0.37 1.37 0.209 1.949 0.206 0.106 0 0.211-0.003 0.317-0.003 0.118 0.909 0.162 1.826 0.132 2.742-0.032 0.586 0.199 0.917 0.797 0.994 0.847 0.053 1.696 0.034 2.539-0.058 0.97-0.047 1.941-0.112 2.912-0.146 0.929-0.041 1.86-0.036 2.788 0.017 0.916 0.057 1.877 0.245 2.793 0.099 0.113-0.002 0.224-0.028 0.326-0.075s0.193-0.117 0.267-0.202c0.074-0.085 0.128-0.185 0.16-0.293s0.041-0.222 0.026-0.333c0.019-0.977-0.079-1.973-0.118-2.95-0.001-0.036-0.010-0.071-0.027-0.102 0.856-0.038 1.711-0.079 2.567-0.123 0.063-0.002 0.122-0.029 0.165-0.074s0.067-0.105 0.067-0.168l-0.046-1.314c0.064-0.011 0.12-0.046 0.16-0.097s0.058-0.115 0.053-0.179c-0.005-0.064-0.034-0.124-0.081-0.168s-0.109-0.069-0.173-0.070l-0-0zM23.22 17.862c-0.153 0.231-0.308 0.461-0.466 0.689-0.178 0.216-0.33 0.453-0.453 0.705-0.016 0.037-0.019 0.079-0.008 0.118l-0.93 0.011c0.608-0.789 1.136-1.636 1.575-2.53 0.032 0.062 0.060 0.126 0.082 0.192 0.086 0.267 0.152 0.539 0.2 0.816v0zM22.742 19.369c0.15-0.19 0.284-0.391 0.403-0.602 0.059-0.091 0.118-0.182 0.176-0.274 0.043 0.293 0.086 0.585 0.143 0.867l-0.722 0.008zM22.661 16.49c-0.257 0.417-0.517 0.833-0.784 1.244-0.333 0.449-0.633 0.922-0.898 1.414-0.018 0.039-0.024 0.082-0.020 0.125s0.021 0.083 0.047 0.117l-0.88 0.011c0.706-1.045 1.262-2.229 1.863-3.34 0.247 0.103 0.474 0.249 0.671 0.43v0zM21.609 15.918c-0.658 1.097-1.407 2.183-1.958 3.332-0.025 0.048-0.034 0.103-0.025 0.157l-0.229 0.003c0.043-0.023 0.078-0.058 0.1-0.102 0.614-1.128 1.115-2.315 1.496-3.542l-0-0c0.208 0.039 0.414 0.090 0.616 0.153v0zM16.668 17.978c-0.342 0.408-0.581 0.892-0.698 1.411-0.002 0.021 0 0.042 0.006 0.062l-0.948 0.012c0.19-0.272 0.364-0.554 0.524-0.845 0.276-0.455 0.541-0.915 0.796-1.382 0.13 0.224 0.267 0.445 0.403 0.666-0.033 0.019-0.061 0.044-0.082 0.075v0zM16.435 19.445c0.105-0.178 0.167-0.381 0.257-0.569 0.092-0.192 0.195-0.38 0.306-0.561 0.214 0.354 0.392 0.728 0.532 1.116l-0-0-1.095 0.014zM16.026 16.932c-0.273 0.463-0.553 0.922-0.845 1.374-0.284 0.362-0.529 0.753-0.733 1.165l-0.536 0.007-0.007-0.149c0.030-0.006 0.058-0.019 0.083-0.037s0.046-0.041 0.061-0.067c0.265-0.437 0.438-0.93 0.692-1.376 0.279-0.486 0.594-0.951 0.944-1.389 0.022-0.028 0.037-0.060 0.043-0.095 0.050-0.031 0.099-0.062 0.146-0.095 0.074 0.195 0.159 0.386 0.254 0.571-0.044 0.018-0.081 0.051-0.104 0.092v0zM14.695 17.063c-0.324 0.423-0.603 0.878-0.831 1.36-0.013-0.336-0.020-0.672-0.014-1.010 0.066 0.009 0.133 0.004 0.197-0.013 0.234-0.074 0.453-0.188 0.648-0.337v0zM20.705 8.122c-0.066 0.146-0.137 0.289-0.216 0.428-0.054-0.082-0.121-0.154-0.198-0.213-0.129-0.107-0.292-0.165-0.46-0.163 0.033-0.058 0.065-0.115 0.098-0.17l0.33-0.539c0.19 0.132 0.333 0.32 0.411 0.538 0.013 0.039 0.025 0.079 0.035 0.119v0zM20.18 9.063c-0.004 0.012-0.008 0.025-0.011 0.037-0.009 0.034-0.008 0.069 0.003 0.103s0.030 0.063 0.056 0.086c0.028 0.211 0.026 0.446 0.064 0.584 0.058 0.252 0.194 0.48 0.388 0.651-0.13 0.757-0.377 1.488-0.731 2.169-0.361 0.688-0.887 1.498-1.789 1.338l-0-0c-0.865-0.152-1.383-0.921-1.652-1.694-0.166-0.473-0.296-0.957-0.39-1.45 0.188-0.093 0.342-0.241 0.443-0.425s0.143-0.393 0.122-0.601c0.014-0.5 0.153-1.271 0.724-0.889l0.017 0.011c0.015 0.014 0.033 0.025 0.051 0.034 0.181 0.126 0.391 0.206 0.611 0.232 0.28 0.037 0.565 0.007 0.831-0.088 0.342-0.12 0.761-0.549 1.14-0.284 0.060 0.048 0.103 0.113 0.123 0.186v0zM20.678 9.077c0.045-0.071 0.085-0.146 0.125-0.214l0.008-0.014c0.011 0.276 0.005 0.553-0.020 0.828-0.054-0.191-0.075-0.399-0.113-0.6zM19.866 7.241l-0.347 0.536c-0.149 0.18-0.255 0.391-0.309 0.618-0.215 0.142-0.453 0.247-0.704 0.31-0.166 0.042-0.342 0.020-0.493-0.062 0.102-0.158 0.192-0.326 0.292-0.475 0.214-0.319 0.439-0.631 0.668-0.939 0.025-0.033 0.041-0.073 0.046-0.114s-0.002-0.083-0.019-0.122c0.297 0.048 0.588 0.131 0.866 0.248h0zM18.641 6.944c-0.228 0.291-0.45 0.587-0.666 0.888-0.122 0.169-0.265 0.341-0.386 0.523-0.039-0.025-0.081-0.045-0.125-0.059-0.253-0.040-0.512 0.016-0.726 0.156-0.009 0.005-0.018 0.011-0.027 0.016 0.055-0.091 0.11-0.18 0.168-0.267 0.285-0.429 0.579-0.851 0.883-1.267 0.165-0.014 0.331-0.019 0.497-0.015 0.115 0.002 0.245 0.010 0.382 0.024v0zM17.159 7.055c-0.211 0.282-0.418 0.566-0.622 0.853-0.144 0.205-0.304 0.411-0.449 0.624 0.065-0.316 0.169-0.622 0.312-0.911h-0c0.178-0.273 0.447-0.473 0.759-0.566v0zM15.989 9.439c0.032-0.008 0.062-0.026 0.085-0.050 0.049-0.051 0.095-0.104 0.139-0.159-0.031 0.385 0.081 0.924-0.174 1.151-0.040-0.312-0.057-0.627-0.051-0.942v0zM19.11 14.391c0.080 0.264 0.245 0.494 0.469 0.655-0.138 0.187-0.259 0.389-0.386 0.586-0.042-0.041-0.098-0.065-0.157-0.066-0.523-0.020-1.046 0.014-1.561 0.102-0.115-0.063-0.225-0.132-0.332-0.208-0.067-0.048-0.128-0.101-0.193-0.146 0.165-0.102 0.307-0.237 0.418-0.396s0.188-0.339 0.227-0.529c0.4 0.19 0.857 0.222 1.279 0.091 0.081-0.024 0.16-0.054 0.237-0.090h-0zM19.923 15.294c0.184 0.129 0.388 0.227 0.604 0.289-0.103 0.288-0.206 0.574-0.313 0.859-0.113-0.1-0.244-0.187-0.36-0.275-0.117-0.089-0.236-0.174-0.355-0.26 0.161-0.19 0.303-0.395 0.424-0.613l-0-0zM19.259 16.256c0.127 0.093 0.253 0.189 0.376 0.286 0.132 0.117 0.271 0.226 0.417 0.325-0.233 0.598-0.481 1.19-0.765 1.771-0.077-0.288-0.168-0.572-0.24-0.86-0.066-0.255-0.082-0.521-0.045-0.782s0.124-0.513 0.258-0.74l-0-0zM17.815 16.105c0.349-0.048 0.702-0.070 1.054-0.066-0.267 0.424-0.394 0.922-0.363 1.422 0.091 0.613 0.254 1.213 0.486 1.787 0.012 0.037 0.034 0.071 0.064 0.096s0.066 0.042 0.105 0.047c0.013 0.008 0.027 0.015 0.041 0.020-0.406 0.006-0.812 0.010-1.217 0.016-0.001-0.023-0.004-0.046-0.011-0.068-0.051-0.151-0.109-0.297-0.173-0.44 0.098-0.252 0.181-0.509 0.249-0.77 0.126-0.319 0.23-0.647 0.31-0.981 0.063-0.444-0.338-0.702-0.546-1.062l-0-0zM17.418 16.4c0.176 0.309 0.409 0.61 0.372 0.905-0.068 0.345-0.168 0.682-0.3 1.008-0.242-0.425-0.514-0.835-0.759-1.259 0.003-0.001 0.006-0.003 0.008-0.004 0.161-0.132 0.313-0.275 0.453-0.429 0.075-0.074 0.15-0.147 0.226-0.221l-0-0zM16.258 15.915c0.070-0.091 0.119-0.197 0.141-0.31 0.051 0.010 0.103 0.001 0.147-0.026 0.004-0.002 0.008-0.005 0.011-0.007 0.095 0.114 0.213 0.207 0.346 0.273 0.097 0.058 0.196 0.115 0.296 0.168l-0.299 0.284c-0.125 0.119-0.268 0.231-0.383 0.361-0.116-0.224-0.215-0.458-0.295-0.698 0.012-0.015 0.025-0.029 0.036-0.044v-0zM14.636 15.347c0.294-0.185 0.745-0.375 1.041-0.048 0.065 0.045 0.131 0.089 0.196 0.133-0.035 0.109-0.093 0.21-0.169 0.295s-0.169 0.155-0.272 0.204c-0.352 0.259-0.746 0.474-1.116 0.707-0.308 0.195-0.382 0.3-0.64-0.015-0.103-0.131-0.187-0.277-0.248-0.433 0.403-0.277 0.792-0.583 1.207-0.844h-0zM13.301 17.023c0.035 0.047 0.072 0.092 0.112 0.135-0.009 0.024-0.014 0.049-0.016 0.074-0.048 0.75-0.032 1.503 0.050 2.25-0.316 0.004-0.633 0.008-0.95 0.011 0.003-0.019 0.003-0.038 0.001-0.057-0.042-0.612-0.082-1.226-0.125-1.84 0.315-0.183 0.628-0.372 0.928-0.575l-0-0zM24.333 24.455c-0.051 0.374-0.141 0.529-0.538 0.565-0.347 0.026-0.696 0.026-1.043 0.002-1.485-0.083-2.938-0.191-4.428-0.136-1.457 0.054-2.912 0.178-4.37 0.192-0.372 0.003-1.131 0.148-1.244-0.354-0.009-0.336 0.015-0.672 0.070-1.004 0.023-0.64-0.041-1.279-0.192-1.901 1.43-0.011 2.86-0.030 4.29-0.057 2.461-0.048 4.921-0.125 7.38-0.23-0.012 0.030-0.018 0.063-0.016 0.096 0.023 0.738 0.047 1.476 0.072 2.213 0.022 0.204 0.029 0.41 0.020 0.615l-0-0zM17.743 21.265c-1.541 0.034-3.081 0.057-4.621 0.068-0.787 0.006-1.587 0.050-2.373 0.009-0.216-0.011-0.536 0.048-0.635-0.161-0.032-0.171-0.043-0.345-0.033-0.519-0.024-0.215-0.064-0.427-0.119-0.635 5.663-0.053 11.325-0.114 16.988-0.184 0.012 0.363 0.025 0.723 0.038 1.085-3.080 0.154-6.162 0.267-9.245 0.337h-0z"></path>
</symbol>
<symbol id="icon-study-5" viewBox="0 0 37 32">
<path fill="#4744c9" style="fill: var(--color1, #4744c9)" d="M36.195 14.497c-1.1-8.598-10.356-15.514-18.888-14.374-0.204 0.027-0.406 0.060-0.607 0.096-0.028-0.044-0.069-0.078-0.117-0.097s-0.101-0.024-0.152-0.012c-1.254 0.252-2.5 0.536-3.706 0.901-5.090 0.976-9.723 3.814-11.766 8.854-3.268 8.062 2.252 17.725 9.927 20.798 0.179 0.072 0.36 0.139 0.541 0.204 2.329 1.036 4.909 1.372 7.426 0.967 4.119-0.293 8.058-1.807 11.312-4.35 1.094-0.866 2.050-1.893 2.835-3.047 2.35-2.63 3.698-6.001 3.195-9.94zM35.765 15.292c0.171 2.121-0.272 4.247-1.274 6.125 0.21-0.63 0.365-1.277 0.463-1.934 0.369-2.502-0.109-5.040-1.096-7.368-0.358-1.794-1.102-3.489-2.18-4.967-2.423-3.329-6.266-5.227-10.216-6.058-1.37-0.285-2.765-0.441-4.164-0.465 8.572-1.161 17.726 5.999 18.467 14.667zM30.082 26.445c-1.135 0.825-2.362 1.516-3.655 2.061 3.774-2.834 6.612-7.071 7.456-11.568 0.155-0.827 0.229-1.668 0.219-2.51 0.562 2.186 0.62 4.482-0.034 6.674-0.343 1.125-0.866 2.188-1.55 3.145-0.734 0.815-1.55 1.552-2.436 2.198v0zM17.458 31.363c-2.090 0.033-4.167-0.339-6.116-1.096-1.41-0.702-2.675-1.662-3.732-2.83 0.077 0.060 0.152 0.123 0.23 0.182 3.716 2.771 8.512 3.479 13.029 2.901 0.475-0.061 0.95-0.139 1.427-0.235-1.046 0.451-2.14 0.784-3.26 0.993-0.526 0.047-1.052 0.077-1.577 0.086h0zM16.446 30.141c-3.83-0.262-7.445-1.748-10.095-4.559-0.146-0.154-0.286-0.313-0.422-0.473-0.072-0.129-0.143-0.258-0.211-0.39-3.691-7.113-1.23-16.635 5.062-21.366 2.774-1.304 5.708-2.119 8.916-1.803 4.869 0.478 9.173 3.623 11.923 7.548 0.71 1.013 1.308 2.1 1.783 3.242 0.977 5.57-2.261 11.521-6.611 15.164-0.789 0.661-1.63 1.256-2.516 1.779-2.537 0.749-5.188 1.040-7.828 0.86h0zM14.807 1.212c0.331-0.029 0.662-0.050 0.994-0.063-0.717 0.121-1.425 0.289-2.121 0.502 0.297-0.131 0.6-0.253 0.909-0.365 0.072-0.026 0.145-0.049 0.218-0.074zM10.58 2.867c-1.473 0.714-2.904 1.512-4.287 2.389 0.034-0.038 0.065-0.077 0.099-0.115 1.726-1.893 4.024-2.945 6.438-3.652-0.79 0.392-1.543 0.853-2.251 1.378zM5.399 6.376c0.053 0.003 0.106-0.011 0.15-0.041 1.091-0.697 2.197-1.38 3.326-2.005-3.67 3.628-5.662 9.040-5.327 14.288 0.092 1.436 0.372 2.854 0.831 4.217-1.141-2.177-1.75-4.593-1.779-7.051-0.068-3.322 0.864-6.703 2.798-9.408h0zM25.951 3.138c2.144 1.023 4.004 2.555 5.421 4.462 0.451 0.618 0.841 1.279 1.163 1.973-0.296-0.477-0.61-0.939-0.94-1.383-1.518-2.050-3.438-3.769-5.644-5.051v0zM0.582 14.777c-0.048-4.823 2.666-8.98 6.786-11.334 0.324-0.185 0.654-0.358 0.989-0.518-1.227 0.762-2.308 1.736-3.192 2.878-2.594 3.363-3.46 7.923-2.923 12.074 0.359 2.761 1.491 5.365 3.264 7.512 0.593 1.066 1.33 2.045 2.19 2.91-0.519-0.367-1.018-0.763-1.493-1.185-1.732-1.562-3.124-3.463-4.091-5.585s-1.487-4.421-1.529-6.752zM23.055 30.533c0.576-0.268 1.137-0.565 1.681-0.892 1.519-0.494 2.976-1.161 4.343-1.988-0.504 0.363-1.027 0.7-1.566 1.009-1.405 0.802-2.902 1.43-4.459 1.87v0z"></path>
<path fill="#4744c9" style="fill: var(--color1, #4744c9)" d="M23.239 10.030c0.041-0.156 0.085-0.313 0.13-0.471 0.153-0.135 0.305-0.271 0.454-0.409 0.202 0.050 0.404 0.103 0.605 0.158-0.321 0.262-0.627 0.541-0.916 0.834-0.094-0.025-0.188-0.049-0.282-0.074l0.009-0.039zM19.794 8.106c-0.063-0.014-0.127-0.027-0.19-0.040-0.495-0.1-0.547 0.040-0.647 0.481-0.020 0.086-0.090 0.266-0.127 0.429 0.324-0.292 0.655-0.567 0.965-0.87zM18.807 9.171c0.010 0.019 0.024 0.036 0.041 0.049s0.038 0.023 0.059 0.029c0.022 0.005 0.044 0.006 0.066 0.003s0.043-0.011 0.062-0.023c0.428-0.297 0.815-0.642 1.153-1.029 0.244 0.063 0.486 0.135 0.724 0.214l-0.619 0.489c-0.215 0.143-0.409 0.313-0.575 0.505-0.291-0.021-0.811-0.047-0.886-0.151-0.017-0.026-0.026-0.056-0.026-0.087zM20.157 9.474c0.204 0.042 0.404 0.097 0.6 0.166 0.046 0.016 0.093 0.034 0.14 0.053 0.132-0.136 0.297-0.243 0.442-0.367 0.196-0.167 0.382-0.343 0.562-0.526-0.2-0.090-0.403-0.173-0.607-0.25-0.011 0.020-0.027 0.038-0.045 0.052-0.243 0.194-0.486 0.387-0.728 0.581-0.12 0.096-0.237 0.201-0.363 0.291zM21.301 9.829v0c0.093-0.071 0.18-0.151 0.267-0.226 0.119-0.103 0.234-0.209 0.346-0.319-0.014 0.102-0.043 0.201-0.084 0.296l0 0c-0.036 0.099-0.112 0.181-0.211 0.228s-0.214 0.054-0.319 0.021zM24.809 9.417c0.169 0.050 0.337 0.102 0.505 0.157-0.321 0.245-0.615 0.52-0.878 0.82-0.181-0.050-0.361-0.1-0.542-0.149 0.304-0.242 0.584-0.517 0.873-0.772 0.018-0.016 0.033-0.035 0.043-0.056zM25.714 9.71l0.017 0.006c0.183 0.052 0.36 0.121 0.529 0.205 0.407 0.313 0.277 0.491 0.191 0.87-0.058 0.252-0.122 0.504-0.186 0.755-0.032-0.021-0.071-0.030-0.11-0.026s-0.074 0.022-0.1 0.049c-0.358 0.349-0.749 0.688-1.106 1.050 0.038-0.119 0.077-0.238 0.117-0.357 0.153-0.327 0.273-0.667 0.359-1.015 0.345-0.263 0.671-0.546 0.976-0.85 0.169-0.16-0.094-0.405-0.265-0.246-0.252 0.227-0.516 0.44-0.792 0.64-0.012-0.018-0.025-0.035-0.039-0.051-0.123-0.12-0.28-0.204-0.453-0.241 0.303-0.247 0.59-0.511 0.861-0.789zM24.795 11.221v0c-0.041 0.035-0.082 0.070-0.122 0.106-0.016 0.013-0.030 0.029-0.039 0.048s-0.014 0.039-0.014 0.059 0.004 0.040 0.013 0.059c0.009 0.019 0.022 0.035 0.038 0.048-0.025 0.050-0.049 0.098-0.066 0.141-0.139 0.357-0.264 0.719-0.381 1.083-0.386 1.205-0.687 2.433-0.98 3.661-0.304 1.264-0.592 2.532-0.96 3.782-0.171 0.585-0.36 1.165-0.573 1.738-0.123 0.331-0.256 0.658-0.396 0.982-0.053 0.121-0.090 0.332-0.19 0.421-0.164 0.144-0.034 0.083-0.245 0.024-0.209-0.059-0.437-0.238-0.645-0.318-0.266-0.101-0.538-0.187-0.814-0.258-0.674-0.18-1.346-0.352-2.009-0.566-1.256-0.404-2.493-0.875-3.788-1.158-0.43-0.094-1.555-0.059-1.595-0.529 0.046-0.316 0.135-0.625 0.267-0.919 0.101-0.345 0.202-0.689 0.303-1.033 0.381-1.302 0.762-2.603 1.143-3.903 0.413-1.407 1.027-2.736 1.474-4.127 0.164-0.509 0.426-1.313 0.32-1.855-0.088-0.442-0.198-0.235 0.1-0.214 0.223 0.041 0.441 0.101 0.653 0.18 0.324 0.088 0.65 0.176 0.974 0.264l0 0c-0.046 0.159-0.079 0.322-0.098 0.486-0.065 0.616 0.359 0.909 0.937 1.069 0.927 0.257 1.83 0.55 2.748 0.825 0.689 0.207 1.543 0.227 2.029-0.371 0.097-0.124 0.171-0.263 0.22-0.41 0.265 0.090 0.532 0.18 0.799 0.266 0.163 0.053 0.783 0.151 0.868 0.276 0.027 0.043 0.037 0.092 0.028 0.141zM26.165 11.941c-0.047 0.189-0.094 0.379-0.141 0.568-0.020 0.011-0.037 0.026-0.051 0.043-0.269 0.327-0.557 0.641-0.863 0.938-0.18 0.174-0.378 0.334-0.569 0.5 0.061-0.223 0.125-0.446 0.19-0.668 0.511-0.429 0.99-0.89 1.433-1.382zM25.835 13.277c-0.053 0.216-0.106 0.432-0.159 0.648-0.029-0.006-0.059-0.004-0.087 0.005s-0.054 0.024-0.074 0.045c-0.273 0.259-0.546 0.518-0.82 0.777-0.135 0.128-0.3 0.332-0.481 0.497 0.054-0.218 0.109-0.436 0.166-0.654 0.562-0.356 1.055-0.802 1.455-1.318zM25.546 14.45c-0.087 0.348-0.175 0.696-0.264 1.044-0.009 0.005-0.018 0.010-0.026 0.016-0.332 0.238-0.664 0.477-0.996 0.715-0.108 0.077-0.223 0.153-0.337 0.23 0.055-0.232 0.11-0.464 0.166-0.696 0.232-0.129 0.437-0.297 0.605-0.496 0.284-0.271 0.568-0.543 0.852-0.814zM25.148 16.014c-0.039 0.147-0.078 0.294-0.117 0.44-0.038 0.143-0.077 0.286-0.117 0.429-0.033-0.023-0.074-0.034-0.115-0.032s-0.080 0.019-0.11 0.047c-0.34 0.299-0.722 0.594-1.082 0.905 0.035-0.146 0.069-0.292 0.104-0.437l0.086-0.367c0.25-0.151 0.48-0.351 0.71-0.518 0.214-0.156 0.428-0.311 0.642-0.467zM24.809 17.257c-0.074 0.262-0.149 0.523-0.226 0.784-0.008 0.006-0.016 0.012-0.023 0.018-0.345 0.312-0.69 0.623-1.036 0.935-0.087 0.078-0.179 0.156-0.271 0.234 0.063-0.24 0.124-0.481 0.183-0.723 0.483-0.381 0.926-0.84 1.373-1.249zM24.386 18.698c-0.093 0.307-0.188 0.614-0.285 0.92-0.024-0.003-0.049-0.002-0.073 0.005s-0.046 0.018-0.064 0.033c-0.271 0.21-0.541 0.421-0.812 0.631-0.079 0.061-0.161 0.121-0.243 0.181 0.055-0.186 0.109-0.372 0.161-0.559 0.26-0.197 0.487-0.448 0.722-0.665l0.594-0.547zM23.955 20.077c-0.090 0.28-0.181 0.56-0.273 0.839-0.032-0.018-0.069-0.024-0.106-0.017s-0.068 0.027-0.090 0.055c-0.219 0.254-0.465 0.485-0.735 0.691-0.094 0.071-0.192 0.136-0.291 0.2 0.096-0.27 0.188-0.541 0.275-0.813 0.214-0.145 0.41-0.323 0.61-0.479l0.609-0.476zM23.5 21.461c-0.14 0.418-0.282 0.836-0.425 1.253-0.027-0.007-0.056-0.007-0.084-0s-0.052 0.021-0.072 0.040c-0.4 0.362-0.827 0.695-1.254 1.027 0.278-0.447 0.487-0.929 0.621-1.432 0.467-0.211 0.881-0.514 1.215-0.888zM22.396 24.122c-0.303 0.261-0.638 0.488-0.996 0.677-0.028 0.015-0.048 0.039-0.058 0.068-0.11-0.023-0.221-0.047-0.331-0.071 0.675-0.476 1.308-1.004 1.892-1.579l-0.016 0.047c-0.098 0.282-0.194 0.564-0.291 0.846-0.029-0.021-0.066-0.032-0.103-0.029s-0.072 0.017-0.098 0.042zM21.708 24.957c0.279-0.138 0.539-0.308 0.774-0.506-0.027 0.137-0.073 0.269-0.139 0.393-0.082 0.077-0.186 0.129-0.299 0.149s-0.23 0.007-0.336-0.036zM20.542 24.692c-0.237-0.053-0.474-0.106-0.711-0.16 0.268-0.179 0.525-0.373 0.775-0.56 0.008-0.006 0.015-0.012 0.021-0.019 0.192 0.122 0.427 0.167 0.654 0.128-0.252 0.199-0.5 0.4-0.739 0.611zM19.322 24.414c-0.33-0.077-0.659-0.156-0.988-0.236 0.049-0.035 0.098-0.069 0.147-0.103 0.274-0.191 0.537-0.396 0.789-0.612 0.010-0.008 0.019-0.017 0.026-0.027 0.339 0.093 0.67 0.21 0.99 0.35-0.313 0.221-0.642 0.42-0.964 0.628zM18.768 24.885c0.003 0.024 0.012 0.047 0.027 0.067s0.034 0.036 0.057 0.047c0.023 0.011 0.048 0.017 0.074 0.016s0.051-0.007 0.073-0.018c0.029-0.013 0.059-0.026 0.088-0.039 0.686 0.155 1.373 0.305 2.062 0.449 0.477 0.1 1.181 0.394 1.577-0.027 0.177-0.258 0.301-0.544 0.366-0.845 0.185-0.525 0.372-1.051 0.554-1.578 0.65-1.882 1.276-3.772 1.809-5.687 0.562-2.023 1.038-4.068 1.532-6.107 0.169-0.703 0.373-1.357-0.418-1.758-0.937-0.429-1.933-0.729-2.959-0.891l-0-0c0.026-0.368-0.172-0.777-0.544-0.803-0.016-0.029-0.037-0.054-0.064-0.074s-0.057-0.036-0.089-0.045c-0.979-0.339-1.979-0.62-2.994-0.842-0.543-0.093-1.499-0.219-1.947 0.195-0.023 0.020-0.044 0.042-0.063 0.066-0.894-0.192-1.789-0.425-2.692-0.574-0.652-0.108-1.215 0.018-1.509 0.625-0.315 0.797-0.565 1.617-0.747 2.451-0.279 0.951-0.56 1.902-0.842 2.854-0.544 1.838-1.088 3.675-1.633 5.512l-0.011 0.009c-0.022 0.016-0.037 0.038-0.043 0.064s-0.002 0.052 0.011 0.075c-0.264 0.89-0.528 1.78-0.792 2.671-0.172 0.58-0.545 1.334 0.109 1.765 0.612 0.404 1.553 0.496 2.257 0.687 0.812 0.22 1.623 0.439 2.435 0.658 0.016 0.019 0.038 0.034 0.063 0.040s0.051 0.006 0.076-0.003c0.181 0.048 0.362 0.097 0.544 0.145 0.319 0.085 0.637 0.168 0.957 0.249-0.006 0.025-0.005 0.051 0.003 0.075s0.022 0.046 0.041 0.064c0.019 0.018 0.043 0.030 0.069 0.037s0.053 0.007 0.079 0c0.062-0.023 0.122-0.050 0.18-0.082 0.767 0.193 1.536 0.378 2.307 0.555zM17.857 24.061c-0.254-0.063-0.508-0.126-0.762-0.19 0.249-0.184 0.498-0.368 0.747-0.551 0.042-0.032 0.069-0.078 0.077-0.128s-0.007-0.102-0.038-0.143c0.096 0.028 0.192 0.056 0.288 0.083 0.245 0.069 0.489 0.131 0.73 0.195-0.221 0.182-0.45 0.356-0.689 0.517-0.113 0.076-0.233 0.146-0.352 0.217zM16.631 23.752c-0.42-0.107-0.839-0.216-1.257-0.326 0.406-0.256 0.795-0.551 1.182-0.804 0.376 0.126 0.752 0.25 1.131 0.367-0.013 0.006-0.026 0.014-0.038 0.022l-0-0c-0.283 0.208-0.565 0.415-0.848 0.622-0.055 0.040-0.112 0.079-0.169 0.119zM14.854 23.289c-0.265-0.070-0.53-0.141-0.795-0.212 0.107-0.087 0.21-0.178 0.316-0.262 0.26-0.209 0.519-0.417 0.779-0.625 0.009-0.007 0.017-0.015 0.025-0.024 0.272 0.086 0.542 0.176 0.813 0.266l0.145 0.048-0.762 0.483c-0.171 0.108-0.349 0.212-0.519 0.325zM13.621 22.96c-0.482-0.13-0.963-0.26-1.444-0.391 0.122-0.078 0.241-0.161 0.361-0.238 0.29-0.187 0.579-0.374 0.87-0.56 0.029-0.018 0.052-0.044 0.065-0.074 0.035 0.008 0.069 0.015 0.104 0.023 0.409 0.094 0.814 0.205 1.215 0.326l-0.627 0.493c-0.177 0.139-0.371 0.271-0.542 0.421zM11.737 22.45c-0.253-0.068-0.506-0.134-0.759-0.204 0.337-0.239 0.654-0.511 0.973-0.772 0.103 0.010 0.206 0.013 0.3 0.023 0.264 0.027 0.527 0.066 0.788 0.113-0.227 0.146-0.453 0.291-0.68 0.437-0.205 0.131-0.427 0.254-0.622 0.403zM10.587 22.14c-0.262-0.062-0.521-0.116-0.571-0.448 0.021-0.135 0.059-0.267 0.112-0.394l0.042-0.142c0.434-0.233 0.844-0.505 1.224-0.812-0.109 0.361-0.19 0.782 0.165 1.015-0.339 0.243-0.663 0.503-0.971 0.781zM10.309 20.685c0.108-0.365 0.217-0.73 0.327-1.094 0.456-0.255 0.877-0.563 1.253-0.916-0.107 0.369-0.215 0.737-0.323 1.106-0.396 0.329-0.816 0.631-1.257 0.905zM10.781 19.103l0.060-0.201 0.336-1.128c0.433-0.289 0.848-0.602 1.243-0.937-0.108 0.381-0.218 0.761-0.328 1.141l-0.011 0.038c-0.028 0.009-0.053 0.026-0.073 0.047-0.376 0.38-0.786 0.728-1.226 1.039v0zM11.339 17.23l0.371-1.244c0.434-0.32 0.842-0.677 1.249-1.030-0.128 0.436-0.254 0.873-0.378 1.311-0.401 0.338-0.822 0.651-1.243 0.963zM11.889 15.386l0.294-0.984c0.119-0.099 0.228-0.214 0.342-0.319 0.332-0.307 0.663-0.615 0.994-0.922l-0.006 0.019c-0.132 0.395-0.257 0.791-0.378 1.19-0.021 0.008-0.041 0.019-0.058 0.034-0.391 0.328-0.8 0.646-1.188 0.983zM12.375 13.758l0.4-1.34c0.532-0.408 1.035-0.848 1.507-1.317-0.197 0.544-0.416 1.083-0.617 1.64-0.033-0.023-0.074-0.034-0.115-0.031s-0.079 0.020-0.108 0.048c-0.294 0.271-0.588 0.542-0.881 0.813-0.059 0.054-0.121 0.118-0.186 0.186zM12.971 11.76c0.132-0.443 0.265-0.886 0.397-1.329 0.029 0 0.057-0.008 0.082-0.023 0.475-0.312 0.921-0.664 1.331-1.051-0.079 0.41-0.184 0.815-0.316 1.212-0.024-0.003-0.049-0.001-0.073 0.007s-0.044 0.020-0.062 0.037l-0-0c-0.429 0.394-0.906 0.761-1.359 1.147zM13.515 9.943l0.22-0.735 0.079-0.264c0.418-0.235 0.807-0.513 1.161-0.83-0.063 0.197-0.098 0.401-0.105 0.606-0.008 0.085-0.018 0.17-0.029 0.254-0.030-0.011-0.063-0.014-0.095-0.007s-0.061 0.021-0.085 0.042c-0.371 0.318-0.778 0.611-1.147 0.934zM13.953 8.481c0.064-0.214 0.128-0.428 0.193-0.642 0.14-0.463 0.282-0.875 0.905-0.782 0.155 0.023 0.309 0.049 0.464 0.078-0.477 0.491-1 0.942-1.561 1.345zM15.849 7.202c0.233 0.048 0.466 0.101 0.699 0.155-0.218 0.168-0.441 0.333-0.657 0.504-0.132-0.028-0.265-0.047-0.4-0.056-0.066-0.005-0.132-0.001-0.196 0.014 0.179-0.173 0.35-0.352 0.513-0.531 0.022-0.024 0.036-0.053 0.040-0.085zM16.833 7.422c0.17 0.040 0.339 0.079 0.508 0.118-0.191 0.194-0.389 0.382-0.59 0.567-0.179-0.060-0.36-0.119-0.54-0.169 0.195-0.153 0.388-0.31 0.582-0.462 0.019-0.014 0.033-0.033 0.040-0.055zM17.597 7.598l0.055 0.012c-0.038 0.155-0.068 0.307-0.104 0.43-0.029 0.098-0.060 0.197-0.093 0.298-0.145-0.043-0.295-0.093-0.449-0.145 0.208-0.189 0.403-0.39 0.591-0.596zM20.854 20.102c-1.156-0.337-2.312-0.671-3.469-1.004-0.552-0.158-1.102-0.315-1.65-0.481-0.612-0.225-1.239-0.415-1.875-0.569-0.066-0.014-0.135-0.005-0.194 0.025s-0.106 0.079-0.131 0.138c-0.025 0.059-0.027 0.125-0.006 0.186s0.065 0.112 0.122 0.145c1.023 0.55 2.334 0.797 3.46 1.11 1.199 0.334 2.401 0.654 3.604 0.977 0.356 0.096 0.493-0.425 0.14-0.528l-0-0zM21.445 18.205c-1.135-0.318-2.272-0.631-3.409-0.939-1.12-0.367-2.262-0.668-3.421-0.901-0.284-0.041-0.522 0.365-0.207 0.489 1.101 0.368 2.224 0.672 3.364 0.908 1.182 0.308 2.365 0.61 3.549 0.906 0.064 0.013 0.131 0.002 0.186-0.031s0.096-0.085 0.112-0.145c0.016-0.060 0.007-0.124-0.026-0.178s-0.086-0.094-0.149-0.111l-0-0zM22.001 16.318c-1.238-0.372-2.483-0.705-3.732-1.040-0.603-0.163-1.206-0.325-1.81-0.487-0.574-0.198-1.168-0.335-1.774-0.411-0.057 0.003-0.112 0.023-0.157 0.057s-0.076 0.082-0.090 0.134c-0.014 0.053-0.010 0.108 0.012 0.159s0.060 0.093 0.109 0.121c0.559 0.233 1.144 0.409 1.743 0.524 0.605 0.16 1.209 0.32 1.812 0.481 1.248 0.331 2.496 0.664 3.754 0.959 0.068 0.014 0.14 0.002 0.2-0.033s0.102-0.091 0.12-0.155c0.017-0.064 0.007-0.133-0.027-0.19s-0.092-0.1-0.159-0.119l-0-0zM22.328 14.13c-2.177-0.755-4.4-1.388-6.655-1.895-0.075-0.015-0.153-0.002-0.218 0.036s-0.112 0.099-0.131 0.169c-0.019 0.070-0.008 0.145 0.030 0.208s0.101 0.109 0.174 0.13c2.22 0.615 4.452 1.21 6.679 1.807 0.311 0.084 0.415-0.354 0.121-0.455l-0-0zM22.827 12.433c-1.127-0.361-2.261-0.702-3.399-1.031-0.55-0.158-1.1-0.314-1.649-0.469-0.522-0.187-1.065-0.316-1.618-0.384-0.057 0.002-0.112 0.022-0.157 0.057s-0.076 0.081-0.090 0.134c-0.014 0.053-0.010 0.108 0.012 0.159s0.060 0.092 0.11 0.12c0.469 0.209 0.962 0.367 1.468 0.47 0.59 0.165 1.179 0.331 1.768 0.498 1.139 0.322 2.278 0.643 3.421 0.953 0.344 0.092 0.466-0.4 0.135-0.507l-0-0zM22.541 8.566l0 0c0.078 0.496 0.008 1.003-0.203 1.463-0.084 0.136-0.205 0.249-0.351 0.326s-0.31 0.116-0.476 0.113c-0.562 0.011-1.124-0.35-1.669-0.447-0.437-0.078-1.148-0.030-1.484-0.351-0.322-0.307-0.097-0.797-0.008-1.155 0.092-0.37 0.113-0.893 0.559-1.040 0.417-0.138 1.017 0.098 1.417 0.211 0.62 0.18 1.223 0.41 1.802 0.688 0.023-0.007 0.047-0.011 0.072-0.012 0.014-0 0.027-0.002 0.042-0.003 0.067-0.001 0.132 0.019 0.186 0.056s0.093 0.091 0.113 0.152zM22.598 10.101c-0.138 0.413-0.256 0.679-0.74 0.765-0.291 0.034-0.586-0.001-0.858-0.102-0.572-0.171-1.118-0.405-1.694-0.566-0.355-0.099-1.249-0.141-1.483-0.439-0.256-0.327 0.201-1.212 0.304-1.579 0.076-0.269 0.099-0.728 0.375-0.892 0.303-0.098 0.628-0.122 0.943-0.070 1.074 0.151 2.127 0.414 3.14 0.785-0.008 0.044-0.003 0.089 0.013 0.131s0.044 0.079 0.080 0.108 0.079 0.049 0.126 0.057c0.046 0.008 0.094 0.005 0.139-0.009 0.115-0.033-0.109 0.9-0.125 0.964-0.072 0.28-0.126 0.573-0.218 0.848z"></path>
</symbol>
<symbol id="icon-study-6" viewBox="0 0 37 32">
<path fill="#4744c9" style="fill: var(--color1, #4744c9)" d="M36.195 14.497c-1.1-8.598-10.356-15.514-18.888-14.374-0.204 0.027-0.406 0.060-0.607 0.096-0.028-0.044-0.069-0.078-0.117-0.097s-0.101-0.024-0.152-0.012c-1.254 0.252-2.5 0.536-3.706 0.901-5.090 0.976-9.723 3.814-11.766 8.854-3.268 8.062 2.252 17.725 9.927 20.798 0.179 0.072 0.36 0.139 0.541 0.204 2.329 1.036 4.909 1.372 7.426 0.967 4.119-0.293 8.058-1.807 11.312-4.35 1.094-0.866 2.050-1.893 2.835-3.047 2.35-2.63 3.698-6.001 3.195-9.94zM35.765 15.292c0.171 2.121-0.272 4.247-1.274 6.125 0.21-0.63 0.365-1.277 0.463-1.934 0.369-2.502-0.109-5.040-1.096-7.368-0.358-1.794-1.102-3.489-2.18-4.967-2.423-3.329-6.266-5.227-10.216-6.058-1.37-0.285-2.765-0.441-4.164-0.465 8.572-1.161 17.726 5.999 18.467 14.667zM30.082 26.445c-1.135 0.825-2.362 1.516-3.655 2.061 3.774-2.834 6.612-7.071 7.456-11.568 0.155-0.827 0.229-1.668 0.219-2.51 0.562 2.186 0.62 4.482-0.034 6.674-0.343 1.125-0.866 2.188-1.55 3.145-0.734 0.815-1.55 1.552-2.436 2.198v0zM17.458 31.363c-2.090 0.033-4.167-0.339-6.116-1.096-1.41-0.702-2.675-1.662-3.732-2.83 0.077 0.060 0.152 0.123 0.23 0.182 3.716 2.771 8.512 3.479 13.029 2.901 0.475-0.061 0.95-0.139 1.427-0.235-1.046 0.451-2.14 0.784-3.26 0.993-0.526 0.047-1.052 0.077-1.577 0.086h0zM16.446 30.141c-3.83-0.262-7.445-1.748-10.095-4.559-0.146-0.154-0.286-0.313-0.422-0.473-0.072-0.129-0.143-0.258-0.211-0.39-3.691-7.113-1.23-16.635 5.062-21.366 2.774-1.304 5.708-2.119 8.916-1.803 4.869 0.478 9.173 3.623 11.923 7.548 0.71 1.013 1.308 2.1 1.783 3.242 0.977 5.57-2.261 11.521-6.611 15.164-0.789 0.661-1.63 1.256-2.516 1.779-2.537 0.749-5.188 1.040-7.828 0.86h0zM14.807 1.212c0.331-0.029 0.662-0.050 0.994-0.063-0.717 0.121-1.425 0.289-2.121 0.502 0.297-0.131 0.6-0.253 0.909-0.365 0.072-0.026 0.145-0.049 0.218-0.074zM10.58 2.867c-1.473 0.714-2.904 1.512-4.287 2.389 0.034-0.038 0.065-0.077 0.099-0.115 1.726-1.893 4.024-2.945 6.438-3.652-0.79 0.392-1.543 0.853-2.251 1.378zM5.399 6.376c0.053 0.003 0.106-0.011 0.15-0.041 1.091-0.697 2.197-1.38 3.326-2.005-3.67 3.628-5.662 9.040-5.327 14.288 0.092 1.436 0.372 2.854 0.831 4.217-1.141-2.177-1.75-4.593-1.779-7.051-0.068-3.322 0.864-6.703 2.798-9.408h0zM25.951 3.138c2.144 1.023 4.004 2.555 5.421 4.462 0.451 0.618 0.841 1.279 1.163 1.973-0.296-0.477-0.61-0.939-0.94-1.383-1.518-2.050-3.438-3.769-5.644-5.051v0zM0.582 14.777c-0.048-4.823 2.666-8.98 6.786-11.334 0.324-0.185 0.654-0.358 0.989-0.518-1.227 0.762-2.308 1.736-3.192 2.878-2.594 3.363-3.46 7.923-2.923 12.074 0.359 2.761 1.491 5.365 3.264 7.512 0.593 1.066 1.33 2.045 2.19 2.91-0.519-0.367-1.018-0.763-1.493-1.185-1.732-1.562-3.124-3.463-4.091-5.585s-1.487-4.421-1.529-6.752zM23.055 30.533c0.576-0.268 1.137-0.565 1.681-0.892 1.519-0.494 2.976-1.161 4.343-1.988-0.504 0.363-1.027 0.7-1.566 1.009-1.405 0.802-2.902 1.43-4.459 1.87v0z"></path>
<path fill="#4744c9" style="fill: var(--color1, #4744c9)" d="M25.944 10.827c-0.049 0.009-0.095 0.029-0.134 0.059-1.355-0.052-2.709-0.093-4.064-0.122 0.087-0.791 0.049-1.645-0.647-2.16-0.788-0.582-2.018-0.501-2.938-0.485-0.639 0.012-1.275 0.053-1.911 0.104-0.519-0.009-1.036 0.057-1.536 0.197-0.961 0.389-0.574 1.482-0.656 2.265-0.494 0.001-0.987 0.001-1.481 0.004-0.524 0.003-1.049 0.007-1.574 0.014-0.493-0.042-0.99-0.012-1.475 0.088-0.614 0.194-0.858 0.786-0.924 1.379-0.062 1.048-0.059 2.099 0.009 3.147 0.012 1.095 0.025 2.19 0.039 3.284 0.002 0.195 0 0.394-0.003 0.595-0.035 0.037-0.065 0.080-0.087 0.125-0.029 0.059-0.037 0.126-0.023 0.19s0.050 0.121 0.101 0.162c-0.030 0.649 0.004 1.299 0.101 1.942 0.033 0.316 0.161 0.615 0.367 0.856s0.481 0.415 0.788 0.497c0.923 0.233 2.010 0.128 2.957 0.157 1.134 0.035 2.268 0.064 3.403 0.088 2.269 0.047 4.538 0.071 6.807 0.073 0.988 0.059 1.979 0.039 2.964-0.062 0.308-0.023 0.602-0.136 0.845-0.325s0.427-0.445 0.527-0.736c0.098-0.469 0.135-0.948 0.11-1.426 0.016-0.644 0.033-1.287 0.051-1.93 0.033-1.245 0.066-2.489 0.099-3.732 0.033-1.24 0.546-4.684-1.716-4.251l-0.001-0zM15.276 8.926c-0.141 0.16-0.28 0.32-0.417 0.483-0.081 0.096-0.172 0.192-0.259 0.292-0.007-0.191 0.059-0.377 0.185-0.521s0.302-0.235 0.492-0.253zM14.589 10.364c0.187-0.179 0.354-0.377 0.498-0.592-0.078 0.3-0.077 0.615 0.003 0.915-0.169-0-0.339-0.001-0.509-0.001 0.008-0.105 0.009-0.213 0.009-0.322zM15.459 9.32c0.128-0.15 0.257-0.299 0.387-0.447 0.183-0.014 0.365-0.027 0.548-0.039-0.073 0.105-0.145 0.211-0.209 0.321-0.246-0.001-0.489 0.053-0.712 0.157l-0.015 0.008zM16.56 9.14c0.076-0.108 0.148-0.22 0.222-0.329 0.193-0.010 0.386-0.018 0.578-0.025-0.089 0.105-0.176 0.211-0.259 0.32-0.158 0.010-0.315 0.020-0.472 0.030-0.023 0.001-0.046 0.003-0.070 0.004zM17.561 9.081c0.085-0.101 0.168-0.205 0.252-0.306 0.216-0.005 0.439-0.011 0.664-0.013-0.067 0.098-0.136 0.195-0.201 0.295-0.058 0.002-0.114 0.003-0.165 0.005-0.183 0.004-0.367 0.011-0.55 0.020zM18.688 9.047c0.040-0.059 0.079-0.117 0.119-0.175 0.012-0.016 0.020-0.033 0.025-0.052s0.005-0.039 0.002-0.058c0.259 0.003 0.517 0.019 0.775 0.049-0.055 0.090-0.113 0.179-0.172 0.267-0.249-0.025-0.499-0.036-0.749-0.031zM19.076 9.714c-0.002 0.028 0.004 0.056 0.018 0.080s0.035 0.043 0.060 0.055 0.053 0.016 0.081 0.011c0.027-0.004 0.053-0.017 0.073-0.037 0.027-0.022 0.052-0.045 0.078-0.069 0.483 0.096 0.848 0.349 0.788 0.979l-0-0c-1.515-0.026-3.029-0.041-4.543-0.045-0.001-0.014-0.002-0.028-0.004-0.042-0.034-0.049-0.057-0.105-0.067-0.164s-0.005-0.119 0.012-0.177 0.047-0.11 0.088-0.154c0.041-0.044 0.091-0.078 0.147-0.1 0.069-0.195 0.187-0.28 0.355-0.258 0.2-0.028 0.403-0.035 0.605-0.022 0.412-0.018 0.823-0.045 1.236-0.054 0.315-0.007 0.709-0.034 1.075-0.005zM19.825 9.144c0.051-0.093 0.1-0.186 0.146-0.276 0.034 0.007 0.068 0.014 0.101 0.022 0.153 0.033 0.301 0.088 0.438 0.164-0.066 0.095-0.133 0.19-0.197 0.286-0.151-0.092-0.316-0.159-0.489-0.197zM20.568 9.578c0.072-0.101 0.141-0.206 0.21-0.31 0.075 0.084 0.136 0.18 0.18 0.283-0.003 0.004-0.006 0.008-0.009 0.013-0.068 0.107-0.138 0.213-0.212 0.315-0.043-0.107-0.099-0.208-0.169-0.301zM20.84 10.308c0.030-0.039 0.059-0.079 0.088-0.118 0.049-0.065 0.096-0.132 0.143-0.199 0.025 0.252 0.026 0.506 0.003 0.759-0.087-0.002-0.172-0.003-0.257-0.004 0.030-0.144 0.038-0.291 0.023-0.438zM17.343 18.57l-0.541 0.515c-0.061 0.058-0.124 0.115-0.187 0.172l-0.001-0.009c-0.041-0.393-0.068-0.678 0.432-0.692 0.099-0.001 0.198 0.003 0.297 0.014zM16.645 19.646c0.112-0.109 0.22-0.222 0.33-0.329 0.224-0.217 0.448-0.434 0.673-0.651 0.020-0.018 0.033-0.041 0.039-0.067 0.063 0.003 0.127 0.001 0.19-0.004 0.137-0.012 0.27-0.031 0.401-0.045-0.482 0.532-0.983 1.056-1.432 1.614-0.198-0.131-0.174-0.224-0.198-0.49l-0.002-0.027zM17.133 20.276c0.519-0.558 0.996-1.166 1.49-1.744 0.046 0.001 0.093 0.005 0.139 0.010 0.026 0.051 0.064 0.096 0.111 0.129s0.101 0.055 0.158 0.062c-0.257 0.283-0.514 0.565-0.771 0.848-0.211 0.232-0.44 0.457-0.648 0.696-0.159 0.021-0.32 0.021-0.479-0.001zM18.128 20.203c0.139-0.161 0.274-0.325 0.412-0.479 0.242-0.271 0.485-0.541 0.727-0.811 0.028 0.206 0.040 0.413 0.035 0.621-0.028-0.008-0.058-0.009-0.085-0s-0.053 0.024-0.072 0.046c-0.184 0.195-0.379 0.385-0.565 0.583-0.151 0.002-0.303 0.016-0.452 0.041zM18.99 20.243c0.097-0.106 0.193-0.212 0.289-0.317-0.019 0.138-0.061 0.282-0.168 0.324-0.040 0.007-0.082 0.005-0.121-0.007zM11.363 21.504c-0.244 0.293-0.498 0.582-0.733 0.885-0.264 0.012-0.528-0.039-0.768-0.149 0.575-0.575 1.105-1.194 1.585-1.85 0.114-0.153-0.1-0.363-0.218-0.208-0.502 0.648-1.039 1.268-1.607 1.859-0.019-0.023-0.037-0.047-0.053-0.072-0.121-0.198-0.191-0.423-0.203-0.655 0.421-0.537 0.837-1.076 1.26-1.61 0.595 0.007 1.19 0.013 1.785 0.018 1.174 0.012 2.349 0.023 3.524 0.032 0.022 0.125 0.044 0.242 0.061 0.344 0.018 0.245 0.131 0.472 0.315 0.634s0.424 0.245 0.669 0.232c0.369-0.002 0.737-0.032 1.101-0.092 0.378-0.036 0.727 0.089 1.096 0.082 0.516-0.010 0.712-0.395 0.778-0.856 0.012-0.089 0.023-0.196 0.031-0.315 2.293-0.152 4.593-0.156 6.886-0.013-0.006 0.242-0.013 0.485-0.019 0.727 0.030 0.472 0.007 0.946-0.071 1.412-0.24 0.876-1.473 0.703-2.163 0.705-0.917 0.004-1.833 0.003-2.749-0.001-1.832-0.007-3.665-0.029-5.497-0.065-1.792-0.035-3.584-0.081-5.375-0.15 0.197-0.227 0.387-0.461 0.581-0.69 0.124-0.146-0.093-0.354-0.216-0.206v0zM11.614 17.992c-0.307 0.352-0.614 0.707-0.916 1.066l-0.589-0.011c0.628-0.819 1.238-1.655 1.919-2.434 0.116-0.134-0.081-0.324-0.2-0.191-0.74 0.831-1.535 1.696-2.211 2.616-0.098-0.004-0.199-0.013-0.3-0.019l-0.004-0.452c1.216-1.375 2.299-2.894 3.435-4.335 0.108-0.137-0.087-0.327-0.198-0.189-1.075 1.335-2.224 2.64-3.244 4.022-0.005-0.315-0.010-0.63-0.017-0.946 0.722-0.818 1.399-1.674 2.030-2.564 0.691-0.883 1.382-1.766 2.073-2.648 0.1-0.128-0.082-0.305-0.185-0.176-0.721 0.906-1.442 1.811-2.162 2.717-0.577 0.724-1.233 1.432-1.766 2.199-0.011-0.524-0.024-1.049-0.033-1.574 0.024 0.007 0.050 0.006 0.075-0.002s0.045-0.023 0.061-0.043c0.974-1.213 1.871-2.468 2.91-3.631 0.023-0.024 0.037-0.056 0.039-0.089 0.481-0.003 0.962-0.004 1.443-0.004 4.047-0 8.093 0.142 12.139 0.134 0.069 0.035 0.148 0.045 0.223 0.029 1.145-0.223 0.91 1.746 0.894 2.34-0.024 0.902-0.048 1.802-0.072 2.702l-0.072 2.703v0.005c-2.295-0.172-4.599-0.185-6.895-0.039-0.037-0.628-0.228-1.256-0.819-1.162-0.009-0.004-0.015-0.008-0.023-0.011-0.646-0.235-1.396-0.066-2.073-0.13-0.453-0.043-0.927 0.052-1.13 0.505-0.090 0.25-0.12 0.517-0.087 0.781-1.37-0.029-2.74-0.056-4.108-0.082l-0.614-0.011c0.233-0.286 0.47-0.569 0.712-0.849 0.136-0.158-0.097-0.383-0.236-0.225zM10.183 19.683c-0.289 0.357-0.57 0.72-0.841 1.090-0.007-0.246-0.011-0.492-0.014-0.739 0.105-0.127 0.209-0.254 0.311-0.383 0.181 0.005 0.366 0.019 0.544 0.032zM11.964 11.31c-0.996 1.053-1.907 2.184-2.724 3.382-0.010-0.7-0.015-1.4-0.005-2.098 0.004-0.397-0.008-0.787 0.311-1.060 0.292-0.249 0.741-0.222 1.135-0.212-0.012 0.007-0.024 0.015-0.034 0.026-0.486 0.461-0.947 0.948-1.382 1.457-0.021 0.023-0.032 0.054-0.030 0.085s0.015 0.061 0.037 0.082c0.023 0.022 0.053 0.034 0.084 0.033s0.061-0.012 0.084-0.034c0.487-0.46 0.95-0.945 1.386-1.453 0.013-0.014 0.023-0.031 0.028-0.050s0.006-0.038 0.002-0.057c-0.004-0.019-0.012-0.037-0.024-0.052s-0.027-0.027-0.045-0.035c0.034 0 0.067 0 0.099-0 0.359-0.006 0.717-0.010 1.076-0.013z"></path>
</symbol>
</defs>
</svg>
